<svg width="340" height="63" viewBox="0 0 340 63" fill="none" xmlns="http://www.w3.org/2000/svg">
<rect width="340" height="63" fill="#FFCC00"/>
<path fill-rule="evenodd" clip-rule="evenodd" d="M311.788 40.702V32.091C311.788 31.011 311.572 30.205 311.141 29.673C310.709 29.141 310.023 28.875 309.084 28.875C307.834 28.875 306.92 29.247 306.342 29.989C305.763 30.732 305.474 31.977 305.474 33.725V40.702H302.518V26.697H304.832L305.248 28.533H305.398C305.818 27.866 306.413 27.351 307.185 26.988C307.956 26.625 308.811 26.444 309.751 26.444C313.088 26.444 314.757 28.153 314.757 31.572V40.702H311.788ZM298.342 29.192C297.16 29.192 296.201 29.58 295.468 30.357C294.734 31.133 294.367 32.142 294.367 33.383V40.702H291.411V26.697H293.726L294.116 29.166H294.267C294.728 28.33 295.329 27.668 296.072 27.178C296.814 26.689 297.612 26.444 298.468 26.444C299.063 26.444 299.554 26.486 299.939 26.57L299.65 29.343C299.231 29.242 298.795 29.192 298.342 29.192ZM279.877 37.505C280.564 38.235 281.533 38.6 282.782 38.6C283.604 38.6 284.369 38.522 285.078 38.366C285.786 38.21 286.547 37.95 287.361 37.587V40.006C286.64 40.352 285.91 40.597 285.172 40.74C284.434 40.884 283.592 40.955 282.644 40.955C280.481 40.955 278.789 40.32 277.569 39.05C276.348 37.779 275.738 36.03 275.738 33.801C275.738 31.513 276.304 29.715 277.437 28.406C278.569 27.098 280.124 26.444 282.103 26.444C283.94 26.444 285.39 27.005 286.455 28.128C287.52 29.251 288.053 30.796 288.053 32.762V34.371H278.782C278.824 35.73 279.189 36.775 279.877 37.505ZM285.147 32.218C285.13 31.061 284.853 30.186 284.317 29.59C283.78 28.995 283.042 28.698 282.103 28.698C281.164 28.698 280.411 28.997 279.845 29.597C279.279 30.196 278.942 31.07 278.833 32.218H285.147ZM269.487 32.091C269.487 31.011 269.271 30.205 268.839 29.673C268.407 29.141 267.722 28.875 266.783 28.875C265.541 28.875 264.629 29.248 264.047 29.996C263.464 30.743 263.173 31.994 263.173 33.75V40.702H260.217V20.999H263.173V26C263.173 26.803 263.122 27.659 263.022 28.571H263.21C263.613 27.896 264.173 27.372 264.889 27.001C265.606 26.629 266.443 26.444 267.399 26.444C270.77 26.444 272.455 28.153 272.455 31.572V40.702H269.487V32.091ZM253.286 28.926C250.879 28.926 249.676 30.534 249.676 33.75C249.676 35.32 249.976 36.5 250.575 37.289C251.175 38.079 252.053 38.473 253.21 38.473C254.527 38.473 255.772 38.144 256.946 37.486V40.082C256.418 40.394 255.854 40.618 255.254 40.753C254.655 40.888 253.927 40.955 253.072 40.955C250.967 40.955 249.368 40.337 248.273 39.1C247.179 37.864 246.632 36.089 246.632 33.776C246.632 31.42 247.204 29.609 248.349 28.343C249.493 27.077 251.148 26.444 253.311 26.444C254.778 26.444 256.099 26.718 257.273 27.267L256.38 29.66C255.131 29.171 254.099 28.926 253.286 28.926ZM241.777 24.62C241.24 24.62 240.827 24.475 240.538 24.183C240.248 23.892 240.104 23.493 240.104 22.987C240.104 22.455 240.248 22.045 240.538 21.758C240.827 21.471 241.24 21.328 241.777 21.328C242.296 21.328 242.701 21.471 242.99 21.758C243.28 22.045 243.424 22.455 243.424 22.987C243.424 23.493 243.28 23.892 242.99 24.183C242.701 24.475 242.296 24.62 241.777 24.62ZM233.047 32.459C234.196 32.906 235.03 33.315 235.55 33.687C236.07 34.058 236.456 34.487 236.707 34.972C236.959 35.458 237.085 36.038 237.085 36.713C237.085 38.081 236.59 39.13 235.601 39.86C234.611 40.59 233.194 40.955 231.349 40.955C229.496 40.955 228.007 40.673 226.884 40.107V37.536C228.519 38.296 230.041 38.676 231.45 38.676C233.269 38.676 234.179 38.123 234.179 37.017C234.179 36.663 234.079 36.367 233.877 36.131C233.676 35.895 233.345 35.65 232.884 35.396C232.422 35.143 231.781 34.856 230.959 34.535C229.357 33.911 228.274 33.286 227.708 32.661C227.141 32.037 226.858 31.226 226.858 30.23C226.858 29.031 227.338 28.101 228.299 27.438C229.259 26.775 230.565 26.444 232.217 26.444C233.852 26.444 235.399 26.777 236.858 27.444L235.902 29.685C234.401 29.061 233.139 28.748 232.116 28.748C230.557 28.748 229.777 29.196 229.777 30.091C229.777 30.53 229.98 30.901 230.387 31.205C230.793 31.509 231.68 31.927 233.047 32.459ZM213.815 32.459C214.963 32.906 215.798 33.315 216.318 33.687C216.838 34.058 217.223 34.487 217.475 34.972C217.727 35.458 217.852 36.038 217.852 36.713C217.852 38.081 217.357 39.13 216.368 39.86C215.378 40.59 213.961 40.955 212.117 40.955C210.263 40.955 208.775 40.673 207.651 40.107V37.536C209.286 38.296 210.808 38.676 212.217 38.676C214.037 38.676 214.947 38.123 214.947 37.017C214.947 36.663 214.846 36.367 214.645 36.131C214.444 35.895 214.112 35.65 213.651 35.396C213.19 35.143 212.548 34.856 211.727 34.535C210.125 33.911 209.041 33.286 208.475 32.661C207.909 32.037 207.626 31.226 207.626 30.23C207.626 29.031 208.106 28.101 209.066 27.438C210.026 26.775 211.332 26.444 212.984 26.444C214.62 26.444 216.167 26.777 217.626 27.444L216.67 29.685C215.169 29.061 213.907 28.748 212.884 28.748C211.324 28.748 210.544 29.196 210.544 30.091C210.544 30.53 210.747 30.901 211.154 31.205C211.561 31.509 212.448 31.927 213.815 32.459ZM202.859 40.955C200.058 40.955 198.658 39.47 198.658 36.498V28.951H196.758V27.634L198.796 26.545L199.802 23.582H201.626V26.697H205.588V28.951H201.626V36.447C201.626 37.165 201.804 37.695 202.161 38.037C202.517 38.379 202.985 38.549 203.563 38.549C204.284 38.549 205.005 38.436 205.727 38.208V40.449C205.4 40.593 204.978 40.713 204.463 40.81C203.947 40.907 203.412 40.955 202.859 40.955ZM186.846 37.505C187.534 38.235 188.502 38.6 189.752 38.6C190.574 38.6 191.339 38.522 192.048 38.366C192.756 38.21 193.517 37.95 194.331 37.587V40.006C193.609 40.352 192.88 40.597 192.142 40.74C191.404 40.884 190.561 40.955 189.614 40.955C187.45 40.955 185.758 40.32 184.538 39.05C183.318 37.779 182.708 36.03 182.708 33.801C182.708 31.513 183.274 29.715 184.406 28.406C185.538 27.098 187.094 26.444 189.073 26.444C190.909 26.444 192.36 27.005 193.425 28.128C194.49 29.251 195.022 30.796 195.022 32.762V34.371H185.752C185.794 35.73 186.159 36.775 186.846 37.505ZM192.117 32.218C192.1 31.061 191.823 30.186 191.287 29.59C190.75 28.995 190.012 28.698 189.073 28.698C188.133 28.698 187.381 28.997 186.815 29.597C186.249 30.196 185.911 31.07 185.802 32.218H192.117ZM177.828 40.702L173.362 34.561L171.74 35.903V40.702H168.809V20.999H171.74V30.61L171.589 33.307H171.664L173.337 31.205L177.538 26.697H180.947L175.35 32.712L181.299 40.702H177.828ZM161.878 28.926C159.471 28.926 158.268 30.534 158.268 33.75C158.268 35.32 158.568 36.5 159.167 37.289C159.767 38.079 160.645 38.473 161.803 38.473C163.119 38.473 164.364 38.144 165.538 37.486V40.082C165.01 40.394 164.446 40.618 163.847 40.753C163.247 40.888 162.52 40.955 161.664 40.955C159.559 40.955 157.96 40.337 156.866 39.1C155.771 37.864 155.224 36.089 155.224 33.776C155.224 31.42 155.796 29.609 156.941 28.343C158.086 27.077 159.74 26.444 161.903 26.444C163.371 26.444 164.691 26.718 165.865 27.267L164.972 29.66C163.723 29.171 162.691 28.926 161.878 28.926ZM150.369 24.62C149.832 24.62 149.419 24.475 149.13 24.183C148.841 23.892 148.696 23.493 148.696 22.987C148.696 22.455 148.841 22.045 149.13 21.758C149.419 21.471 149.832 21.328 150.369 21.328C150.889 21.328 151.293 21.471 151.583 21.758C151.872 22.045 152.017 22.455 152.017 22.987C152.017 23.493 151.872 23.892 151.583 24.183C151.293 24.475 150.889 24.62 150.369 24.62ZM140.96 40.702H137.954V24.785H132.545V22.189H146.369V24.785H140.96V40.702ZM121.954 40.955C119.153 40.955 117.753 39.47 117.753 36.498V28.951H115.853V27.634L117.891 26.545L118.897 23.582H120.721V26.697H124.684V28.951H120.721V36.447C120.721 37.165 120.899 37.695 121.256 38.037C121.612 38.379 122.08 38.549 122.658 38.549C123.38 38.549 124.101 38.436 124.822 38.208V40.449C124.495 40.593 124.073 40.713 123.558 40.81C123.042 40.907 122.507 40.955 121.954 40.955ZM103.904 38.866L110.935 28.976H104.332V26.697H114.256V28.774L107.376 38.423H114.457V40.702H103.904V38.866ZM99.514 40.955C96.713 40.955 95.313 39.47 95.313 36.498V28.951H93.413V27.634L95.451 26.545L96.457 23.582H98.281V26.697H102.244V28.951H98.281V36.447C98.281 37.165 98.459 37.695 98.816 38.037C99.172 38.379 99.64 38.549 100.218 38.549C100.94 38.549 101.661 38.436 102.382 38.208V40.449C102.055 40.593 101.634 40.713 101.118 40.81C100.602 40.907 100.067 40.955 99.514 40.955ZM83.502 37.505C84.189 38.235 85.158 38.6 86.407 38.6C87.229 38.6 87.994 38.522 88.703 38.366C89.411 38.21 90.172 37.95 90.986 37.587V40.006C90.265 40.352 89.535 40.597 88.797 40.74C88.059 40.884 87.216 40.955 86.269 40.955C84.105 40.955 82.414 40.32 81.193 39.05C79.973 37.779 79.363 36.03 79.363 33.801C79.363 31.513 79.929 29.715 81.061 28.406C82.193 27.098 83.749 26.444 85.728 26.444C87.564 26.444 89.015 27.005 90.08 28.128C91.145 29.251 91.678 30.796 91.678 32.762V34.371H82.407C82.449 35.73 82.814 36.775 83.502 37.505ZM88.772 32.218C88.755 31.061 88.478 30.186 87.942 29.59C87.405 28.995 86.667 28.698 85.728 28.698C84.789 28.698 84.036 28.997 83.47 29.597C82.904 30.196 82.567 31.07 82.458 32.218H88.772ZM70.483 45.869C69.661 45.869 68.973 45.763 68.42 45.552V43.007C69.124 43.184 69.737 43.273 70.257 43.273C71.9 43.273 72.722 42.226 72.722 40.132V22.189H75.741V40.031C75.741 41.922 75.294 43.368 74.401 44.368C73.508 45.368 72.202 45.869 70.483 45.869ZM151.828 40.702H148.872V26.697H151.828V40.702ZM243.236 40.702H240.28V26.697H243.236V40.702Z" fill="#052453"/>
<path fill-rule="evenodd" clip-rule="evenodd" d="M31 51L56 26L53 23C53 23 50.5 25.5 48 23C45.5 20.5 48 18 48 18L45 15L40.8316 19.1684L41.6631 20L41 20.6632L40.1684 19.8316L20 40L23 43C23 43 25.5 41.5 27.5 43.5C29.5 45.5 28 48 28 48L31 51ZM42 21.6632L42.6631 21L44.6631 23L44 23.6632L42 21.6632ZM45.6631 24L45 24.6632L47 26.6632L47.6631 26L45.6631 24ZM48 27.6632L48.6631 27L50.6631 29L50 29.6632L48 27.6632Z" fill="#052453"/>
</svg>
