<svg xmlns="http://www.w3.org/2000/svg" width="585" height="95" fill="none"><path fill="#fff" d="M16.267 32.571c9.712 0 15.249-7.25 15.227-16.303H16.047v3.515H27.45c-.813 5.12-4.505 9.207-11.272 9.207-6.504 0-11.712-4.9-11.712-11.953 0-6.988 5.208-11.997 11.712-11.997 4.812 0 8.723 2.417 10.393 6.503h3.955c-1.604-6.394-7.91-10.085-14.26-10.085C7.52 1.458.578 8.335.578 17.037c0 8.635 6.943 15.534 15.689 15.534ZM57.531 20.245c0-6.02-4.614-11.294-11.074-11.294-6.482 0-11.404 5.295-11.404 11.843 0 6.57 4.922 11.821 11.404 11.821 5.098 0 9.097-3.252 10.371-7.36h-4.24c-.99 2.526-3.209 3.845-6.219 3.845-3.691 0-7.031-2.813-7.492-7.317h18.588c.044-.813.066-1.143.066-1.538Zm-18.479-1.802c.857-3.867 3.977-5.933 7.34-5.933 3.822 0 7.052 2.747 7.272 5.933H39.052ZM89.94 8.95c-3.47 0-6.503 1.934-8.239 5.758C80.537 10.905 77.9 8.95 73.88 8.95c-3.604 0-6.57 2.153-7.713 4.965l-.043-4.328h-3.56V32h3.735V20.223c0-4.57 3.142-7.735 6.57-7.735 3.582 0 5.757 2.264 5.757 7.427V32h3.735V20.223c0-4.57 3.142-7.735 6.548-7.735 3.604 0 5.779 2.285 5.779 7.427V32h3.757V19.85c0-7.164-2.944-10.9-8.503-10.9ZM126.042 20.245c0-6.02-4.614-11.294-11.074-11.294-6.482 0-11.404 5.295-11.404 11.843 0 6.57 4.922 11.821 11.404 11.821 5.097 0 9.096-3.252 10.371-7.36h-4.241c-.989 2.526-3.208 3.845-6.218 3.845-3.692 0-7.031-2.813-7.493-7.317h18.589c.044-.813.066-1.143.066-1.538Zm-18.479-1.802c.857-3.867 3.977-5.933 7.339-5.933 3.823 0 7.053 2.747 7.273 5.933h-14.612ZM132.941 5.215c1.626 0 2.615-1.076 2.615-2.417 0-1.318-.989-2.395-2.593-2.395-1.582 0-2.57 1.077-2.57 2.395 0 1.34.988 2.417 2.548 2.417ZM134.853 32V9.588h-3.779V32h3.779ZM145.883 32V20.223c0-4.79 3.406-7.735 7.141-7.735 3.89 0 6.263 2.264 6.263 7.427V32h3.779V19.85c0-7.164-3.12-10.9-9.075-10.9-3.801 0-6.987 2.088-8.262 4.966V9.588h-3.625V32h3.779ZM177.524 32.637c5.339 0 9.031-2.373 9.031-6.965 0-4.878-4.109-5.977-8.218-6.614-4.175-.703-5.383-1.494-5.383-3.625 0-1.802 1.384-3.318 4.284-3.318 2.989 0 4.79 1.428 4.9 3.56h3.714c0-3.912-3.428-6.724-8.614-6.724-5.339 0-8.02 2.9-8.02 6.57 0 4.526 3.67 5.998 7.844 6.613 3.516.572 5.647 1.23 5.647 3.736 0 2.263-1.757 3.691-5.141 3.691-3.692 0-5.713-1.977-5.757-4.416l-3.647-.022c0 3.823 3.098 7.514 9.36 7.514ZM200.661 32.637c3.999 0 7.361-2.087 8.877-5.405V32h3.626V9.588h-3.626V14.4c-1.516-3.34-4.856-5.427-8.899-5.427-6.086 0-10.81 5.273-10.81 11.82 0 6.593 4.702 11.844 10.832 11.844Zm.835-3.537c-4.307 0-7.91-3.34-7.91-8.306 0-4.834 3.56-8.284 7.932-8.284 4.351 0 7.888 3.648 7.888 8.284 0 4.702-3.515 8.306-7.91 8.306ZM247.792 8.95c-3.471 0-6.503 1.934-8.239 5.758-1.165-3.802-3.802-5.757-7.823-5.757-3.603 0-6.569 2.153-7.712 4.965l-.044-4.328h-3.559V32h3.735V20.223c0-4.57 3.142-7.735 6.57-7.735 3.581 0 5.757 2.264 5.757 7.427V32h3.735V20.223c0-4.57 3.142-7.735 6.548-7.735 3.603 0 5.779 2.285 5.779 7.427V32h3.757V19.85c0-7.164-2.944-10.9-8.504-10.9ZM283.564 32.637c4.065 0 7.229-2.373 8.657-5.405V32h3.626V1.062h-3.78v11.075l.088 2.175c-1.296-2.703-4.372-5.361-8.569-5.361-6.438 0-11.052 5.295-11.052 11.843 0 6.592 4.702 11.843 11.03 11.843Zm.615-3.515c-4.504 0-7.888-3.626-7.888-8.328 0-4.746 3.472-8.306 7.888-8.306 4.417 0 7.932 3.648 7.932 8.306 0 4.702-3.537 8.328-7.932 8.328ZM304.987 5.215c1.626 0 2.615-1.076 2.615-2.417 0-1.318-.989-2.395-2.593-2.395-1.582 0-2.571 1.077-2.571 2.395 0 1.34.989 2.417 2.549 2.417ZM306.899 32V9.588h-3.779V32h3.779ZM334.738 20.245c0-6.02-4.614-11.294-11.074-11.294-6.482 0-11.404 5.295-11.404 11.843 0 6.57 4.922 11.821 11.404 11.821 5.098 0 9.097-3.252 10.371-7.36h-4.241c-.988 2.526-3.208 3.845-6.218 3.845-3.691 0-7.031-2.813-7.493-7.317h18.589c.044-.813.066-1.143.066-1.538Zm-18.479-1.802c.857-3.867 3.977-5.933 7.339-5.933 3.823 0 7.053 2.747 7.273 5.933h-14.612ZM376.574 32 363.94 2.117h-3.735L347.548 32h4.131l2.835-6.768h15.095L372.443 32h4.131ZM361.918 7.588l.132-.505h.044l.11.505 6.021 14.348h-12.327l6.02-14.348ZM384.309 32V21.453c0-5.405 2.922-8.547 6.855-8.547h1.978V9.588h-2.176c-3.252 0-5.713 1.912-6.811 5.01v-5.01h-3.648V32h3.802ZM409.863 32.637c6.262 0 11.008-5.251 11.008-11.843 0-6.548-4.724-11.821-11.052-11.821-3.889 0-7.075 2.307-8.548 5.339l.066-3.076V1.062h-3.779V32h3.626v-4.768c1.604 3.34 4.987 5.405 8.679 5.405Zm-.659-3.515c-4.307 0-7.889-3.56-7.889-8.328 0-4.636 3.516-8.306 7.889-8.306 4.372 0 7.91 3.472 7.91 8.306 0 4.944-3.604 8.328-7.91 8.328ZM447.37 20.245c0-6.02-4.614-11.294-11.074-11.294-6.482 0-11.404 5.295-11.404 11.843 0 6.57 4.922 11.821 11.404 11.821 5.098 0 9.097-3.252 10.371-7.36h-4.241c-.988 2.526-3.208 3.845-6.218 3.845-3.691 0-7.031-2.813-7.493-7.317h18.589c.044-.813.066-1.143.066-1.538Zm-18.479-1.802c.857-3.867 3.977-5.933 7.339-5.933 3.823 0 7.053 2.747 7.273 5.933h-14.612ZM454.27 5.215c1.626 0 2.614-1.076 2.614-2.417 0-1.318-.988-2.395-2.592-2.395-1.583 0-2.571 1.077-2.571 2.395 0 1.34.988 2.417 2.549 2.417ZM456.181 32V9.588h-3.779V32h3.779ZM476.22 32v-3.208h-3.384c-1.999 0-4.021-.747-4.021-4.922V12.906h7.405V9.588h-7.405v-6.68l-3.779.022v6.658h-4.988v3.318h4.988v10.788c0 6.988 3.648 8.306 7.053 8.306h4.131ZM488.569 32.637c5.339 0 9.031-2.373 9.031-6.965 0-4.878-4.109-5.977-8.218-6.614-4.175-.703-5.383-1.494-5.383-3.625 0-1.802 1.384-3.318 4.284-3.318 2.988 0 4.79 1.428 4.9 3.56h3.713c0-3.912-3.427-6.724-8.613-6.724-5.339 0-8.02 2.9-8.02 6.57 0 4.526 3.67 5.998 7.844 6.613 3.516.572 5.647 1.23 5.647 3.736 0 2.263-1.757 3.691-5.141 3.691-3.692 0-5.713-1.977-5.757-4.416l-3.648-.022c0 3.823 3.099 7.514 9.361 7.514ZM509.816 32l5.581-16.787h.022L520.957 32h3.559l7.713-22.412h-4l-5.207 15.864-.593 1.67h-.066l-.506-1.604-4.943-15.93h-2.901l-5.097 16.216-.44 1.318h-.044l-.417-1.34-5.318-16.194h-4.065L506.345 32h3.471ZM556.003 20.245c0-6.02-4.614-11.294-11.074-11.294-6.482 0-11.404 5.295-11.404 11.843 0 6.57 4.922 11.821 11.404 11.821 5.097 0 9.096-3.252 10.371-7.36h-4.241c-.989 2.526-3.208 3.845-6.218 3.845-3.692 0-7.031-2.813-7.493-7.317h18.589c.044-.813.066-1.143.066-1.538Zm-18.479-1.802c.857-3.867 3.977-5.933 7.339-5.933 3.823 0 7.053 2.747 7.273 5.933h-14.612ZM564.814 32V1.019h-3.779V32h3.779ZM584.853 32v-3.208h-3.384c-1.999 0-4.021-.747-4.021-4.922V12.906h7.405V9.588h-7.405v-6.68l-3.779.022v6.658h-4.988v3.318h4.988v10.788c0 6.988 3.647 8.306 7.053 8.306h4.131ZM70.407 86l9.119-22.412h-4.043l-6.328 15.82-.528 2-.549-2-6.328-15.82h-4.021L66.826 86h3.581ZM92.446 86.637c6.701 0 11.689-5.251 11.689-11.843 0-6.57-5.01-11.843-11.69-11.843-6.657 0-11.645 5.295-11.645 11.843 0 6.592 5.01 11.843 11.646 11.843Zm.044-3.56c-4.46 0-7.91-3.515-7.91-8.283 0-4.724 3.45-8.284 7.91-8.284 4.438 0 7.866 3.56 7.866 8.284 0 4.768-3.428 8.284-7.866 8.284ZM113.276 86V74.223c0-4.79 3.406-7.735 7.141-7.735 3.889 0 6.262 2.263 6.262 7.427V86h3.779V73.85c0-7.164-3.12-10.9-9.074-10.9-3.801 0-6.988 2.088-8.262 4.966v-4.328h-3.625V86h3.779ZM175.942 62.95c-3.472 0-6.504 1.934-8.24 5.757-1.164-3.8-3.801-5.756-7.822-5.756-3.604 0-6.57 2.153-7.713 4.965l-.043-4.328h-3.56V86h3.735V74.223c0-4.57 3.142-7.735 6.57-7.735 3.582 0 5.757 2.263 5.757 7.427V86h3.735V74.223c0-4.57 3.142-7.735 6.548-7.735 3.604 0 5.779 2.285 5.779 7.427V86h3.757V73.85c0-7.164-2.944-10.9-8.503-10.9ZM201.21 86.637c6.702 0 11.69-5.251 11.69-11.843 0-6.57-5.01-11.843-11.69-11.843-6.657 0-11.645 5.295-11.645 11.843 0 6.592 5.01 11.843 11.645 11.843Zm.044-3.56c-4.46 0-7.91-3.515-7.91-8.283 0-4.724 3.45-8.284 7.91-8.284 4.439 0 7.867 3.56 7.867 8.284 0 4.768-3.428 8.284-7.867 8.284ZM222.062 86V75.453c0-5.405 2.923-8.547 6.856-8.547h1.978v-3.318h-2.176c-3.252 0-5.713 1.911-6.811 5.01v-5.01h-3.648V86h3.801ZM244.035 94.438c7.844 0 11.624-5.208 11.624-11.448V63.588h-3.626V68.4c-1.34-2.966-4.526-5.427-8.811-5.427-6.24 0-10.898 5.273-10.898 11.403 0 6.175 4.702 11.206 11.008 11.206 3.801 0 7.119-1.845 8.701-5.25V83.1c0 4.174-2.175 8.108-7.998 8.108-4.878 0-6.745-2.373-7.185-5.076h-3.581c.241 4.087 3.23 8.305 10.766 8.305Zm-.044-12.195c-4.394 0-7.91-3.406-7.91-7.867 0-4.504 3.516-7.866 7.932-7.866 4.395 0 7.888 3.604 7.888 7.866 0 4.307-3.515 7.867-7.91 7.867ZM283.498 74.245c0-6.02-4.614-11.294-11.074-11.294-6.482 0-11.404 5.295-11.404 11.843 0 6.57 4.922 11.821 11.404 11.821 5.097 0 9.097-3.252 10.371-7.36h-4.241c-.989 2.526-3.208 3.845-6.218 3.845-3.691 0-7.031-2.813-7.493-7.317h18.589c.044-.813.066-1.143.066-1.538Zm-18.479-1.802c.857-3.867 3.977-5.933 7.339-5.933 3.823 0 7.053 2.747 7.273 5.933h-14.612ZM292.309 86V74.223c0-4.79 3.406-7.735 7.141-7.735 3.889 0 6.262 2.263 6.262 7.427V86h3.78V73.85c0-7.164-3.12-10.9-9.075-10.9-3.801 0-6.987 2.088-8.262 4.966v-4.328h-3.625V86h3.779ZM337.419 94.438c7.844 0 11.623-5.208 11.623-11.448V63.588h-3.625V68.4c-1.34-2.966-4.526-5.427-8.811-5.427-6.24 0-10.898 5.273-10.898 11.403 0 6.175 4.702 11.206 11.008 11.206 3.801 0 7.119-1.845 8.701-5.25V83.1c0 4.174-2.175 8.108-7.998 8.108-4.878 0-6.746-2.373-7.185-5.076h-3.582c.242 4.087 3.23 8.305 10.767 8.305Zm-.044-12.195c-4.395 0-7.91-3.406-7.91-7.867 0-4.504 3.515-7.866 7.932-7.866 4.395 0 7.888 3.604 7.888 7.866 0 4.307-3.515 7.867-7.91 7.867ZM376.882 74.245c0-6.02-4.614-11.294-11.074-11.294-6.482 0-11.404 5.295-11.404 11.843 0 6.57 4.922 11.821 11.404 11.821 5.097 0 9.096-3.252 10.371-7.36h-4.241c-.989 2.526-3.208 3.845-6.218 3.845-3.692 0-7.032-2.813-7.493-7.317h18.589c.044-.813.066-1.143.066-1.538Zm-18.479-1.802c.857-3.867 3.977-5.933 7.339-5.933 3.823 0 7.053 2.747 7.273 5.933h-14.612ZM389.384 86.637c5.34 0 9.031-2.373 9.031-6.965 0-4.878-4.109-5.977-8.218-6.614-4.175-.703-5.383-1.494-5.383-3.625 0-1.802 1.384-3.318 4.285-3.318 2.988 0 4.79 1.428 4.9 3.56h3.713c0-3.912-3.428-6.724-8.613-6.724-5.34 0-8.02 2.9-8.02 6.57 0 4.526 3.669 5.998 7.844 6.613 3.515.572 5.647 1.23 5.647 3.736 0 2.263-1.758 3.691-5.142 3.691-3.691 0-5.713-1.978-5.757-4.417l-3.647-.021c0 3.823 3.098 7.514 9.36 7.514ZM416.367 86v-3.208h-3.384c-2 0-4.021-.747-4.021-4.922V66.906h7.405v-3.318h-7.405v-6.68l-3.779.022v6.658h-4.988v3.318h4.988v10.788c0 6.988 3.647 8.306 7.053 8.306h4.131ZM429.484 86.637c3.999 0 7.361-2.087 8.877-5.405V86h3.626V63.588h-3.626V68.4c-1.516-3.34-4.856-5.427-8.899-5.427-6.086 0-10.81 5.273-10.81 11.82 0 6.593 4.702 11.844 10.832 11.844Zm.835-3.537c-4.306 0-7.91-3.34-7.91-8.306 0-4.834 3.56-8.284 7.932-8.284 4.351 0 7.888 3.648 7.888 8.284 0 4.702-3.515 8.306-7.91 8.306ZM453.017 86V55.019h-3.779V86h3.779ZM473.056 86v-3.208h-3.384c-1.999 0-4.021-.747-4.021-4.922V66.906h7.405v-3.318h-7.405v-6.68l-3.779.022v6.658h-4.988v3.318h4.988v10.788c0 6.988 3.648 8.306 7.053 8.306h4.131ZM497.819 74.245c0-6.02-4.614-11.294-11.074-11.294-6.482 0-11.404 5.295-11.404 11.843 0 6.57 4.922 11.821 11.404 11.821 5.098 0 9.097-3.252 10.371-7.36h-4.241c-.988 2.526-3.208 3.845-6.218 3.845-3.691 0-7.031-2.813-7.492-7.317h18.588c.044-.813.066-1.143.066-1.538Zm-18.479-1.802c.857-3.867 3.977-5.933 7.339-5.933 3.823 0 7.053 2.747 7.273 5.933H479.34ZM506.63 86V74.223c0-4.79 3.406-7.735 7.141-7.735 3.89 0 6.263 2.263 6.263 7.427V86h3.779V73.85c0-7.164-3.12-10.9-9.075-10.9-3.801 0-6.987 2.088-8.261 4.966v-4.328h-3.626V86h3.779ZM532.844 86.461c1.472 0 2.483-1.054 2.483-2.35 0-1.275-1.011-2.352-2.483-2.352-1.472 0-2.483 1.077-2.483 2.351 0 1.297 1.011 2.351 2.483 2.351Z"/></svg>