<svg width="585" height="95" viewBox="0 0 585 95" fill="none" xmlns="http://www.w3.org/2000/svg">
<path d="M16.2666 32.5713C25.9785 32.5713 31.5156 25.3203 31.4937 16.2676H16.0469V19.7832H27.4507C26.6377 24.9028 22.9463 28.9897 16.1787 28.9897C9.6748 28.9897 4.46729 24.0898 4.46729 17.0366C4.46729 10.0493 9.6748 5.03955 16.1787 5.03955C20.9907 5.03955 24.9019 7.45654 26.5718 11.5435H30.5269C28.9229 5.14941 22.6167 1.45801 16.2666 1.45801C7.52148 1.45801 0.578125 8.33545 0.578125 17.0366C0.578125 25.6719 7.52148 32.5713 16.2666 32.5713Z" fill="#ffffff"/>
<path d="M57.5312 20.2446C57.5312 14.2241 52.917 8.95068 46.457 8.95068C39.9751 8.95068 35.0532 14.2461 35.0532 20.7939C35.0532 27.3638 39.9751 32.6152 46.457 32.6152C51.5547 32.6152 55.5537 29.3633 56.8281 25.2544H52.5874C51.5986 27.7812 49.3794 29.0996 46.3691 29.0996C42.6777 29.0996 39.3379 26.2871 38.8765 21.7827H57.4653C57.5093 20.9697 57.5312 20.6401 57.5312 20.2446ZM39.0522 18.4429C39.9092 14.5757 43.0293 12.5103 46.3911 12.5103C50.2144 12.5103 53.4443 15.2568 53.6641 18.4429H39.0522Z" fill="#ffffff"/>
<path d="M89.9409 8.95068C86.4692 8.95068 83.437 10.8843 81.7012 14.7075C80.5366 10.9062 77.8999 8.95068 73.8789 8.95068C70.2754 8.95068 67.3091 11.104 66.1665 13.9165L66.1226 9.58789H62.563V32H66.2983V20.2227C66.2983 15.6523 69.4404 12.4883 72.8682 12.4883C76.4497 12.4883 78.625 14.7515 78.625 19.915V32H82.3604V20.2227C82.3604 15.6523 85.5024 12.4883 88.9082 12.4883C92.5117 12.4883 94.687 14.7734 94.687 19.915V32H98.4443V19.8491C98.4443 12.686 95.5 8.95068 89.9409 8.95068Z" fill="#ffffff"/>
<path d="M126.042 20.2446C126.042 14.2241 121.428 8.95068 114.968 8.95068C108.486 8.95068 103.564 14.2461 103.564 20.7939C103.564 27.3638 108.486 32.6152 114.968 32.6152C120.065 32.6152 124.064 29.3633 125.339 25.2544H121.098C120.109 27.7812 117.89 29.0996 114.88 29.0996C111.188 29.0996 107.849 26.2871 107.387 21.7827H125.976C126.02 20.9697 126.042 20.6401 126.042 20.2446ZM107.563 18.4429C108.42 14.5757 111.54 12.5103 114.902 12.5103C118.725 12.5103 121.955 15.2568 122.175 18.4429H107.563Z" fill="#ffffff"/>
<path d="M132.941 5.21533C134.567 5.21533 135.556 4.13867 135.556 2.79834C135.556 1.47998 134.567 0.40332 132.963 0.40332C131.381 0.40332 130.393 1.47998 130.393 2.79834C130.393 4.13867 131.381 5.21533 132.941 5.21533ZM134.853 32V9.58789H131.074V32H134.853Z" fill="#ffffff"/>
<path d="M145.883 32V20.2227C145.883 15.4326 149.289 12.4883 153.024 12.4883C156.914 12.4883 159.287 14.7515 159.287 19.915V32H163.066V19.8491C163.066 12.686 159.946 8.95068 153.991 8.95068C150.19 8.95068 147.004 11.0381 145.729 13.9165V9.58789H142.104V32H145.883Z" fill="#ffffff"/>
<path d="M177.524 32.6372C182.863 32.6372 186.555 30.2642 186.555 25.6719C186.555 20.7939 182.446 19.6953 178.337 19.0581C174.162 18.355 172.954 17.564 172.954 15.4326C172.954 13.6309 174.338 12.1147 177.238 12.1147C180.227 12.1147 182.028 13.543 182.138 15.6743H185.852C185.852 11.7632 182.424 8.95068 177.238 8.95068C171.899 8.95068 169.218 11.8511 169.218 15.5205C169.218 20.0469 172.888 21.519 177.062 22.1343C180.578 22.7056 182.709 23.3647 182.709 25.8696C182.709 28.1328 180.952 29.561 177.568 29.561C173.876 29.561 171.855 27.5835 171.811 25.1445L168.164 25.1226C168.164 28.9458 171.262 32.6372 177.524 32.6372Z" fill="#ffffff"/>
<path d="M200.661 32.6372C204.66 32.6372 208.022 30.5498 209.538 27.2319V32H213.164V9.58789H209.538V14.3999C208.022 11.0601 204.682 8.97266 200.639 8.97266C194.553 8.97266 189.829 14.2461 189.829 20.7939C189.829 27.3857 194.531 32.6372 200.661 32.6372ZM201.496 29.0996C197.189 29.0996 193.586 25.7598 193.586 20.7939C193.586 15.96 197.146 12.5103 201.518 12.5103C205.869 12.5103 209.406 16.1577 209.406 20.7939C209.406 25.4961 205.891 29.0996 201.496 29.0996Z" fill="#ffffff"/>
<path d="M247.792 8.95068C244.321 8.95068 241.289 10.8843 239.553 14.7075C238.388 10.9062 235.751 8.95068 231.73 8.95068C228.127 8.95068 225.161 11.104 224.018 13.9165L223.974 9.58789H220.415V32H224.15V20.2227C224.15 15.6523 227.292 12.4883 230.72 12.4883C234.301 12.4883 236.477 14.7515 236.477 19.915V32H240.212V20.2227C240.212 15.6523 243.354 12.4883 246.76 12.4883C250.363 12.4883 252.539 14.7734 252.539 19.915V32H256.296V19.8491C256.296 12.686 253.352 8.95068 247.792 8.95068Z" fill="#ffffff"/>
<path d="M283.564 32.6372C287.629 32.6372 290.793 30.2642 292.221 27.2319V32H295.847V1.0625H292.067V12.1367L292.155 14.312C290.859 11.6094 287.783 8.95068 283.586 8.95068C277.148 8.95068 272.534 14.2461 272.534 20.7939C272.534 27.3857 277.236 32.6372 283.564 32.6372ZM284.179 29.1216C279.675 29.1216 276.291 25.4961 276.291 20.7939C276.291 16.0479 279.763 12.4883 284.179 12.4883C288.596 12.4883 292.111 16.1357 292.111 20.7939C292.111 25.4961 288.574 29.1216 284.179 29.1216Z" fill="#ffffff"/>
<path d="M304.987 5.21533C306.613 5.21533 307.602 4.13867 307.602 2.79834C307.602 1.47998 306.613 0.40332 305.009 0.40332C303.427 0.40332 302.438 1.47998 302.438 2.79834C302.438 4.13867 303.427 5.21533 304.987 5.21533ZM306.899 32V9.58789H303.12V32H306.899Z" fill="#ffffff"/>
<path d="M334.738 20.2446C334.738 14.2241 330.124 8.95068 323.664 8.95068C317.182 8.95068 312.26 14.2461 312.26 20.7939C312.26 27.3638 317.182 32.6152 323.664 32.6152C328.762 32.6152 332.761 29.3633 334.035 25.2544H329.794C328.806 27.7812 326.586 29.0996 323.576 29.0996C319.885 29.0996 316.545 26.2871 316.083 21.7827H334.672C334.716 20.9697 334.738 20.6401 334.738 20.2446ZM316.259 18.4429C317.116 14.5757 320.236 12.5103 323.598 12.5103C327.421 12.5103 330.651 15.2568 330.871 18.4429H316.259Z" fill="#ffffff"/>
<path d="M376.574 32L363.94 2.11719H360.205L347.548 32H351.679L354.514 25.2324H369.609L372.443 32H376.574ZM361.918 7.58838L362.05 7.08301H362.094L362.204 7.58838L368.225 21.9365H355.898L361.918 7.58838Z" fill="#ffffff"/>
<path d="M384.309 32V21.4531C384.309 16.0479 387.231 12.9058 391.164 12.9058H393.142V9.58789H390.966C387.714 9.58789 385.253 11.4995 384.155 14.5977V9.58789H380.507V32H384.309Z" fill="#ffffff"/>
<path d="M409.863 32.6372C416.125 32.6372 420.871 27.3857 420.871 20.7939C420.871 14.2461 416.147 8.97266 409.819 8.97266C405.93 8.97266 402.744 11.2798 401.271 14.312L401.337 11.2358V1.0625H397.558V32H401.184V27.2319C402.788 30.5718 406.171 32.6372 409.863 32.6372ZM409.204 29.1216C404.897 29.1216 401.315 25.562 401.315 20.7939C401.315 16.1577 404.831 12.4883 409.204 12.4883C413.576 12.4883 417.114 15.96 417.114 20.7939C417.114 25.7378 413.51 29.1216 409.204 29.1216Z" fill="#ffffff"/>
<path d="M447.37 20.2446C447.37 14.2241 442.756 8.95068 436.296 8.95068C429.814 8.95068 424.892 14.2461 424.892 20.7939C424.892 27.3638 429.814 32.6152 436.296 32.6152C441.394 32.6152 445.393 29.3633 446.667 25.2544H442.426C441.438 27.7812 439.218 29.0996 436.208 29.0996C432.517 29.0996 429.177 26.2871 428.715 21.7827H447.304C447.348 20.9697 447.37 20.6401 447.37 20.2446ZM428.891 18.4429C429.748 14.5757 432.868 12.5103 436.23 12.5103C440.053 12.5103 443.283 15.2568 443.503 18.4429H428.891Z" fill="#ffffff"/>
<path d="M454.27 5.21533C455.896 5.21533 456.884 4.13867 456.884 2.79834C456.884 1.47998 455.896 0.40332 454.292 0.40332C452.709 0.40332 451.721 1.47998 451.721 2.79834C451.721 4.13867 452.709 5.21533 454.27 5.21533ZM456.181 32V9.58789H452.402V32H456.181Z" fill="#ffffff"/>
<path d="M476.22 32V28.792H472.836C470.837 28.792 468.815 28.0449 468.815 23.8701V12.9058H476.22V9.58789H468.815V2.9082L465.036 2.93018V9.58789H460.048V12.9058H465.036V23.6943C465.036 30.6816 468.684 32 472.089 32H476.22Z" fill="#ffffff"/>
<path d="M488.569 32.6372C493.908 32.6372 497.6 30.2642 497.6 25.6719C497.6 20.7939 493.491 19.6953 489.382 19.0581C485.207 18.355 483.999 17.564 483.999 15.4326C483.999 13.6309 485.383 12.1147 488.283 12.1147C491.271 12.1147 493.073 13.543 493.183 15.6743H496.896C496.896 11.7632 493.469 8.95068 488.283 8.95068C482.944 8.95068 480.263 11.8511 480.263 15.5205C480.263 20.0469 483.933 21.519 488.107 22.1343C491.623 22.7056 493.754 23.3647 493.754 25.8696C493.754 28.1328 491.997 29.561 488.613 29.561C484.921 29.561 482.9 27.5835 482.856 25.1445L479.208 25.1226C479.208 28.9458 482.307 32.6372 488.569 32.6372Z" fill="#ffffff"/>
<path d="M509.816 32L515.397 15.2129H515.419L520.957 32H524.516L532.229 9.58789H528.229L523.022 25.4521L522.429 27.1221H522.363L521.857 25.5181L516.914 9.58789H514.013L508.916 25.8037L508.476 27.1221H508.432L508.015 25.7817L502.697 9.58789H498.632L506.345 32H509.816Z" fill="#ffffff"/>
<path d="M556.003 20.2446C556.003 14.2241 551.389 8.95068 544.929 8.95068C538.447 8.95068 533.525 14.2461 533.525 20.7939C533.525 27.3638 538.447 32.6152 544.929 32.6152C550.026 32.6152 554.025 29.3633 555.3 25.2544H551.059C550.07 27.7812 547.851 29.0996 544.841 29.0996C541.149 29.0996 537.81 26.2871 537.348 21.7827H555.937C555.981 20.9697 556.003 20.6401 556.003 20.2446ZM537.524 18.4429C538.381 14.5757 541.501 12.5103 544.863 12.5103C548.686 12.5103 551.916 15.2568 552.136 18.4429H537.524Z" fill="#ffffff"/>
<path d="M564.814 32V1.01855H561.035V32H564.814Z" fill="#ffffff"/>
<path d="M584.853 32V28.792H581.469C579.47 28.792 577.448 28.0449 577.448 23.8701V12.9058H584.853V9.58789H577.448V2.9082L573.669 2.93018V9.58789H568.681V12.9058H573.669V23.6943C573.669 30.6816 577.316 32 580.722 32H584.853Z" fill="#ffffff"/>
<path d="M70.4072 86L79.5259 63.5879H75.4829L69.1548 79.4082L68.6274 81.4077L68.0781 79.4082L61.75 63.5879H57.729L66.8257 86H70.4072Z" fill="#ffffff"/>
<path d="M92.4458 86.6372C99.1475 86.6372 104.135 81.3857 104.135 74.7939C104.135 68.2241 99.1255 62.9507 92.4458 62.9507C85.7881 62.9507 80.8003 68.2461 80.8003 74.7939C80.8003 81.3857 85.8101 86.6372 92.4458 86.6372ZM92.4897 83.0776C88.0293 83.0776 84.5796 79.562 84.5796 74.7939C84.5796 70.0698 88.0293 66.5103 92.4897 66.5103C96.9282 66.5103 100.356 70.0698 100.356 74.7939C100.356 79.562 96.9282 83.0776 92.4897 83.0776Z" fill="#ffffff"/>
<path d="M113.276 86V74.2227C113.276 69.4326 116.682 66.4883 120.417 66.4883C124.306 66.4883 126.679 68.7515 126.679 73.915V86H130.458V73.8491C130.458 66.686 127.338 62.9507 121.384 62.9507C117.583 62.9507 114.396 65.0381 113.122 67.9165V63.5879H109.497V86H113.276Z" fill="#ffffff"/>
<path d="M175.942 62.9507C172.47 62.9507 169.438 64.8843 167.702 68.7075C166.538 64.9062 163.901 62.9507 159.88 62.9507C156.276 62.9507 153.31 65.104 152.167 67.9165L152.124 63.5879H148.564V86H152.299V74.2227C152.299 69.6523 155.441 66.4883 158.869 66.4883C162.451 66.4883 164.626 68.7515 164.626 73.915V86H168.361V74.2227C168.361 69.6523 171.503 66.4883 174.909 66.4883C178.513 66.4883 180.688 68.7734 180.688 73.915V86H184.445V73.8491C184.445 66.686 181.501 62.9507 175.942 62.9507Z" fill="#ffffff"/>
<path d="M201.21 86.6372C207.912 86.6372 212.9 81.3857 212.9 74.7939C212.9 68.2241 207.89 62.9507 201.21 62.9507C194.553 62.9507 189.565 68.2461 189.565 74.7939C189.565 81.3857 194.575 86.6372 201.21 86.6372ZM201.254 83.0776C196.794 83.0776 193.344 79.562 193.344 74.7939C193.344 70.0698 196.794 66.5103 201.254 66.5103C205.693 66.5103 209.121 70.0698 209.121 74.7939C209.121 79.562 205.693 83.0776 201.254 83.0776Z" fill="#ffffff"/>
<path d="M222.062 86V75.4531C222.062 70.0479 224.985 66.9058 228.918 66.9058H230.896V63.5879H228.72C225.468 63.5879 223.007 65.4995 221.909 68.5977V63.5879H218.261V86H222.062Z" fill="#ffffff"/>
<path d="M244.035 94.4375C251.879 94.4375 255.659 89.23 255.659 82.9897V63.5879H252.033V68.3999C250.693 65.4336 247.507 62.9727 243.222 62.9727C236.982 62.9727 232.324 68.2461 232.324 74.3765C232.324 80.5508 237.026 85.5825 243.332 85.5825C247.133 85.5825 250.451 83.7368 252.033 80.3311V83.0996C252.033 87.2744 249.858 91.2075 244.035 91.2075C239.157 91.2075 237.29 88.8345 236.85 86.1318H233.269C233.51 90.2188 236.499 94.4375 244.035 94.4375ZM243.991 82.2427C239.597 82.2427 236.081 78.8369 236.081 74.3765C236.081 69.8721 239.597 66.5103 244.013 66.5103C248.408 66.5103 251.901 70.1138 251.901 74.3765C251.901 78.6831 248.386 82.2427 243.991 82.2427Z" fill="#ffffff"/>
<path d="M283.498 74.2446C283.498 68.2241 278.884 62.9507 272.424 62.9507C265.942 62.9507 261.02 68.2461 261.02 74.7939C261.02 81.3638 265.942 86.6152 272.424 86.6152C277.521 86.6152 281.521 83.3633 282.795 79.2544H278.554C277.565 81.7812 275.346 83.0996 272.336 83.0996C268.645 83.0996 265.305 80.2871 264.843 75.7827H283.432C283.476 74.9697 283.498 74.6401 283.498 74.2446ZM265.019 72.4429C265.876 68.5757 268.996 66.5103 272.358 66.5103C276.181 66.5103 279.411 69.2568 279.631 72.4429H265.019Z" fill="#ffffff"/>
<path d="M292.309 86V74.2227C292.309 69.4326 295.715 66.4883 299.45 66.4883C303.339 66.4883 305.712 68.7515 305.712 73.915V86H309.492V73.8491C309.492 66.686 306.372 62.9507 300.417 62.9507C296.616 62.9507 293.43 65.0381 292.155 67.9165V63.5879H288.53V86H292.309Z" fill="#ffffff"/>
<path d="M337.419 94.4375C345.263 94.4375 349.042 89.23 349.042 82.9897V63.5879H345.417V68.3999C344.077 65.4336 340.891 62.9727 336.606 62.9727C330.366 62.9727 325.708 68.2461 325.708 74.3765C325.708 80.5508 330.41 85.5825 336.716 85.5825C340.517 85.5825 343.835 83.7368 345.417 80.3311V83.0996C345.417 87.2744 343.242 91.2075 337.419 91.2075C332.541 91.2075 330.673 88.8345 330.234 86.1318H326.652C326.894 90.2188 329.882 94.4375 337.419 94.4375ZM337.375 82.2427C332.98 82.2427 329.465 78.8369 329.465 74.3765C329.465 69.8721 332.98 66.5103 337.397 66.5103C341.792 66.5103 345.285 70.1138 345.285 74.3765C345.285 78.6831 341.77 82.2427 337.375 82.2427Z" fill="#ffffff"/>
<path d="M376.882 74.2446C376.882 68.2241 372.268 62.9507 365.808 62.9507C359.326 62.9507 354.404 68.2461 354.404 74.7939C354.404 81.3638 359.326 86.6152 365.808 86.6152C370.905 86.6152 374.904 83.3633 376.179 79.2544H371.938C370.949 81.7812 368.73 83.0996 365.72 83.0996C362.028 83.0996 358.688 80.2871 358.227 75.7827H376.816C376.86 74.9697 376.882 74.6401 376.882 74.2446ZM358.403 72.4429C359.26 68.5757 362.38 66.5103 365.742 66.5103C369.565 66.5103 372.795 69.2568 373.015 72.4429H358.403Z" fill="#ffffff"/>
<path d="M389.384 86.6372C394.724 86.6372 398.415 84.2642 398.415 79.6719C398.415 74.7939 394.306 73.6953 390.197 73.0581C386.022 72.355 384.814 71.564 384.814 69.4326C384.814 67.6309 386.198 66.1147 389.099 66.1147C392.087 66.1147 393.889 67.543 393.999 69.6743H397.712C397.712 65.7632 394.284 62.9507 389.099 62.9507C383.759 62.9507 381.079 65.8511 381.079 69.5205C381.079 74.0469 384.748 75.519 388.923 76.1343C392.438 76.7056 394.57 77.3647 394.57 79.8696C394.57 82.1328 392.812 83.561 389.428 83.561C385.737 83.561 383.715 81.5835 383.671 79.1445L380.024 79.1226C380.024 82.9458 383.122 86.6372 389.384 86.6372Z" fill="#ffffff"/>
<path d="M416.367 86V82.792H412.983C410.983 82.792 408.962 82.0449 408.962 77.8701V66.9058H416.367V63.5879H408.962V56.9082L405.183 56.9302V63.5879H400.195V66.9058H405.183V77.6943C405.183 84.6816 408.83 86 412.236 86H416.367Z" fill="#ffffff"/>
<path d="M429.484 86.6372C433.483 86.6372 436.845 84.5498 438.361 81.2319V86H441.987V63.5879H438.361V68.3999C436.845 65.0601 433.505 62.9727 429.462 62.9727C423.376 62.9727 418.652 68.2461 418.652 74.7939C418.652 81.3857 423.354 86.6372 429.484 86.6372ZM430.319 83.0996C426.013 83.0996 422.409 79.7598 422.409 74.7939C422.409 69.96 425.969 66.5103 430.341 66.5103C434.692 66.5103 438.229 70.1577 438.229 74.7939C438.229 79.4961 434.714 83.0996 430.319 83.0996Z" fill="#ffffff"/>
<path d="M453.017 86V55.0186H449.238V86H453.017Z" fill="#ffffff"/>
<path d="M473.056 86V82.792H469.672C467.673 82.792 465.651 82.0449 465.651 77.8701V66.9058H473.056V63.5879H465.651V56.9082L461.872 56.9302V63.5879H456.884V66.9058H461.872V77.6943C461.872 84.6816 465.52 86 468.925 86H473.056Z" fill="#ffffff"/>
<path d="M497.819 74.2446C497.819 68.2241 493.205 62.9507 486.745 62.9507C480.263 62.9507 475.341 68.2461 475.341 74.7939C475.341 81.3638 480.263 86.6152 486.745 86.6152C491.843 86.6152 495.842 83.3633 497.116 79.2544H492.875C491.887 81.7812 489.667 83.0996 486.657 83.0996C482.966 83.0996 479.626 80.2871 479.165 75.7827H497.753C497.797 74.9697 497.819 74.6401 497.819 74.2446ZM479.34 72.4429C480.197 68.5757 483.317 66.5103 486.679 66.5103C490.502 66.5103 493.732 69.2568 493.952 72.4429H479.34Z" fill="#ffffff"/>
<path d="M506.63 86V74.2227C506.63 69.4326 510.036 66.4883 513.771 66.4883C517.661 66.4883 520.034 68.7515 520.034 73.915V86H523.813V73.8491C523.813 66.686 520.693 62.9507 514.738 62.9507C510.937 62.9507 507.751 65.0381 506.477 67.9165V63.5879H502.851V86H506.63Z" fill="#ffffff"/>
<path d="M532.844 86.4614C534.316 86.4614 535.327 85.4067 535.327 84.1104C535.327 82.8359 534.316 81.7593 532.844 81.7593C531.372 81.7593 530.361 82.8359 530.361 84.1104C530.361 85.4067 531.372 86.4614 532.844 86.4614Z" fill="#ffffff"/>
</svg>
