<svg xmlns="http://www.w3.org/2000/svg" width="189" height="38" fill="none"><rect width="188.083" height="37.021" fill="#1EDC82" rx="18.51"/><path fill="#161528" d="M42.821 21.24h1.464c1.93 0 3.346-1.145 3.346-3.144v-6.07h-1.673V18c0 1.064-.664 1.728-1.667 1.728h-1.47v1.51ZM56.147 17.635c0-1.917-1.409-3.57-3.509-3.57-2.093 0-3.611 1.66-3.611 3.692 0 2.033 1.517 3.693 3.611 3.693 1.734 0 2.974-1.145 3.326-2.399h-1.788c-.237.59-.745.935-1.572.935-.962 0-1.761-.657-1.93-1.795h5.44a4.62 4.62 0 0 0 .033-.556Zm-5.406-.711c.278-.982 1.064-1.43 1.89-1.43.962 0 1.775.65 1.843 1.43h-3.733ZM60.22 21.24h1.415v-1.362h-1.077c-.522 0-1.01-.237-1.01-1.213v-2.98h2.087v-1.41h-2.087v-2.053l-1.64.014v2.039h-1.442v1.41h1.443v2.906c0 2.296 1.26 2.649 2.31 2.649ZM62.428 21.24h6.002v-1.382h-3.746l3.584-4.553v-1.03H62.61v1.382h3.428l-3.611 4.566v1.017ZM72.576 21.24h1.417v-1.362h-1.078c-.521 0-1.01-.237-1.01-1.213v-2.98h2.088v-1.41h-2.087v-2.053l-1.64.014v2.039h-1.443v1.41h1.443v2.906c0 2.296 1.26 2.649 2.31 2.649ZM85.334 17.635c0-1.917-1.41-3.57-3.51-3.57-2.093 0-3.61 1.66-3.61 3.692 0 2.033 1.517 3.693 3.61 3.693 1.735 0 2.974-1.145 3.327-2.399h-1.789c-.237.59-.745.935-1.572.935-.962 0-1.761-.657-1.93-1.795h5.44c.027-.258.034-.38.034-.556Zm-5.407-.711c.278-.982 1.064-1.43 1.89-1.43.963 0 1.776.65 1.843 1.43h-3.733ZM86.675 21.24h1.64v-3.557c0-1.362.88-2.107 1.842-2.107.99 0 1.613.562 1.613 1.944v3.72h1.64v-3.754c0-2.188-.929-3.421-2.799-3.421-1.07 0-1.978.535-2.378 1.294v-1.084h-1.558v6.965ZM97.996 21.24h1.416v-1.362h-1.077c-.522 0-1.01-.237-1.01-1.213v-2.98h2.087v-1.41h-2.087v-2.053l-1.64.014v2.039h-1.442v1.41h1.443v2.906c0 2.296 1.26 2.649 2.31 2.649ZM103.423 21.45a2.73 2.73 0 0 0 2.412-1.383v1.173h1.558V11.7h-1.633v2.988l.034.725a2.725 2.725 0 0 0-2.351-1.348c-2.033 0-3.387 1.66-3.387 3.692 0 2.046 1.388 3.693 3.367 3.693Zm.298-1.511c-1.199 0-2.053-.949-2.053-2.182 0-1.267.894-2.175 2.053-2.175 1.151 0 2.053.956 2.053 2.175 0 1.233-.908 2.182-2.053 2.182ZM115.943 17.635c0-1.917-1.41-3.57-3.51-3.57-2.093 0-3.611 1.66-3.611 3.692 0 2.033 1.518 3.693 3.611 3.693 1.735 0 2.974-1.145 3.327-2.399h-1.789c-.237.59-.745.935-1.572.935-.962 0-1.761-.657-1.93-1.795h5.44c.027-.258.034-.38.034-.556Zm-5.407-.711c.278-.982 1.064-1.43 1.89-1.43.963 0 1.776.65 1.843 1.43h-3.733ZM120.387 21.45c1.789 0 3.103-1.145 3.462-2.758h-1.667c-.305.867-.996 1.24-1.788 1.24-1.003 0-1.979-.8-1.979-2.175 0-1.368.969-2.168 1.979-2.168.792 0 1.477.373 1.788 1.145h1.674c-.393-1.53-1.674-2.67-3.469-2.67-2.08 0-3.597 1.668-3.597 3.693 0 2.033 1.517 3.693 3.597 3.693ZM129.73 21.24h1.842l-2.459-4.208 2.161-2.757h-1.998l-2.453 3.266V11.7h-1.639v9.539h1.639v-1.938l1.098-1.2 1.809 3.138ZM138.855 17.635c0-1.917-1.409-3.57-3.509-3.57-2.093 0-3.611 1.66-3.611 3.692 0 2.033 1.518 3.693 3.611 3.693 1.734 0 2.974-1.145 3.326-2.399h-1.788c-.237.59-.745.935-1.572.935-.962 0-1.761-.657-1.931-1.795h5.441c.027-.258.033-.38.033-.556Zm-5.406-.711c.278-.982 1.064-1.43 1.89-1.43.962 0 1.775.65 1.843 1.43h-3.733ZM140.197 21.24h1.639v-3.557c0-1.362.881-2.107 1.843-2.107.989 0 1.613.562 1.613 1.944v3.72h1.639v-3.754c0-2.188-.928-3.421-2.798-3.421-1.07 0-1.978.535-2.378 1.294v-1.084h-1.558v6.965Z"/></svg>