<svg xmlns="http://www.w3.org/2000/svg" width="367" height="43" fill="none"><path fill="#fff" d="M11.795 16v-1.719H3.889V9.383h6.789V7.75h-6.79V3.12h7.81V1.39h-9.71V16h9.807ZM16.189 16v-5.758c0-2.342 1.665-3.781 3.49-3.781 1.902 0 3.062 1.106 3.062 3.63V16h1.848v-5.94c0-3.502-1.525-5.329-4.437-5.329-1.858 0-3.416 1.021-4.039 2.428V5.043h-1.772V16h1.848ZM33.956 16v-1.568h-1.654c-.978 0-1.966-.366-1.966-2.407v-5.36h3.62V5.043h-3.62V1.777l-1.848.011v3.255H26.05v1.622h2.438v5.275c0 3.415 1.784 4.06 3.448 4.06h2.02ZM40.466 16.311c1.987 0 3.534-1.16 4.232-2.642V16h1.773V.875h-1.848v5.414l.043 1.064c-.634-1.322-2.138-2.622-4.19-2.622-3.147 0-5.403 2.59-5.403 5.79 0 3.223 2.3 5.79 5.393 5.79Zm.3-1.718c-2.201 0-3.856-1.773-3.856-4.072 0-2.32 1.697-4.06 3.857-4.06 2.159 0 3.877 1.783 3.877 4.06 0 2.3-1.729 4.072-3.877 4.072ZM60.092 10.253c0-2.943-2.256-5.522-5.414-5.522-3.17 0-5.575 2.59-5.575 5.79 0 3.212 2.406 5.78 5.575 5.78 2.492 0 4.447-1.59 5.07-3.599h-2.073c-.484 1.236-1.569 1.88-3.04 1.88-1.805 0-3.438-1.375-3.663-3.577h9.088c.021-.398.032-.559.032-.752Zm-9.034-.88c.419-1.892 1.944-2.901 3.587-2.901 1.87 0 3.449 1.342 3.556 2.9h-7.143ZM67.225 16.311c2.6 0 4.619-1.621 5.242-3.985h-1.89c-.57 1.504-1.87 2.256-3.342 2.256-1.901 0-3.76-1.536-3.76-4.06 0-2.503 1.848-4.05 3.76-4.05 1.483 0 2.772.74 3.341 2.159h1.902c-.656-2.267-2.643-3.9-5.253-3.9-3.17 0-5.597 2.59-5.597 5.79 0 3.202 2.428 5.79 5.597 5.79ZM84.326 16l-4.125-6.563 3.567-4.394H81.5l-4.705 5.833V.875h-1.848V16h1.848v-3.083l2.052-2.267L82.23 16h2.095ZM95.842 10.253c0-2.943-2.256-5.522-5.414-5.522-3.17 0-5.575 2.59-5.575 5.79 0 3.212 2.406 5.78 5.575 5.78 2.492 0 4.447-1.59 5.07-3.599h-2.073c-.484 1.236-1.569 1.88-3.04 1.88-1.805 0-3.438-1.375-3.663-3.577h9.088c.021-.398.032-.559.032-.752Zm-9.034-.88c.419-1.892 1.944-2.901 3.587-2.901 1.87 0 3.449 1.342 3.556 2.9h-7.143ZM104.779 2.905c.795 0 1.279-.526 1.279-1.181 0-.645-.484-1.171-1.268-1.171-.773 0-1.257.526-1.257 1.17 0 .656.484 1.182 1.246 1.182Zm-2.61 16.855c2.363 0 3.534-1.397 3.534-3.803V5.043h-1.858v11.032c0 1.236-.656 2.138-1.869 2.138h-1.128v1.547h1.321ZM119.324 10.253c0-2.943-2.256-5.522-5.414-5.522-3.169 0-5.575 2.59-5.575 5.79 0 3.212 2.406 5.78 5.575 5.78 2.492 0 4.447-1.59 5.07-3.599h-2.073c-.483 1.236-1.568 1.88-3.04 1.88-1.805 0-3.437-1.375-3.663-3.577h9.088c.021-.398.032-.559.032-.752Zm-9.034-.88c.419-1.892 1.944-2.901 3.588-2.901 1.869 0 3.448 1.342 3.556 2.9h-7.144ZM127.714 16v-1.568h-1.654c-.978 0-1.966-.366-1.966-2.407v-5.36h3.62V5.043h-3.62V1.777l-1.848.011v3.255h-2.438v1.622h2.438v5.275c0 3.415 1.783 4.06 3.448 4.06h2.02ZM138.188 16v-1.58h-6.575l6.317-8.163V5.043h-8.54v1.58h6.037l-6.349 8.185V16h9.11ZM146.749 16v-1.568h-1.654c-.978 0-1.966-.366-1.966-2.407v-5.36h3.62V5.043h-3.62V1.777l-1.848.011v3.255h-2.438v1.622h2.438v5.275c0 3.415 1.783 4.06 3.448 4.06h2.02ZM159.274 16.311c2.858 0 4.974-1.61 4.974-5.413V5.043H162.4v5.8c0 2.472-1.128 3.728-3.147 3.728-2.009 0-3.148-1.267-3.148-3.727V5.043h-1.836v5.855c0 3.802 2.094 5.413 5.005 5.413ZM169.351 16v-5.758c0-2.342 1.665-3.781 3.491-3.781 1.901 0 3.061 1.106 3.061 3.63V16h1.848v-5.94c0-3.502-1.525-5.329-4.437-5.329-1.858 0-3.416 1.021-4.039 2.428V5.043h-1.772V16h1.848ZM184.819 16.311c2.611 0 4.415-1.16 4.415-3.405 0-2.385-2.008-2.922-4.017-3.233-2.041-.344-2.632-.73-2.632-1.773 0-.88.677-1.622 2.095-1.622 1.461 0 2.341.699 2.395 1.74h1.816c0-1.912-1.676-3.287-4.211-3.287-2.611 0-3.921 1.418-3.921 3.212 0 2.213 1.794 2.933 3.835 3.234 1.718.28 2.76.601 2.76 1.826 0 1.106-.859 1.805-2.513 1.805-1.805 0-2.793-.967-2.815-2.16l-1.783-.01c0 1.869 1.515 3.673 4.576 3.673ZM201.824 10.253c0-2.943-2.256-5.522-5.414-5.522-3.169 0-5.575 2.59-5.575 5.79 0 3.212 2.406 5.78 5.575 5.78 2.492 0 4.447-1.59 5.07-3.599h-2.073c-.483 1.236-1.568 1.88-3.04 1.88-1.805 0-3.437-1.375-3.663-3.577h9.088c.021-.398.032-.559.032-.752Zm-9.034-.88c.419-1.892 1.944-2.901 3.588-2.901 1.869 0 3.448 1.342 3.556 2.9h-7.144ZM206.143 16v-5.156c0-2.643 1.428-4.179 3.351-4.179h.967V5.043h-1.064c-1.589 0-2.793.935-3.33 2.45v-2.45h-1.783V16h1.859ZM222.148 10.253c0-2.943-2.255-5.522-5.414-5.522-3.169 0-5.575 2.59-5.575 5.79 0 3.212 2.406 5.78 5.575 5.78 2.493 0 4.448-1.59 5.071-3.599h-2.074c-.483 1.236-1.568 1.88-3.04 1.88-1.804 0-3.437-1.375-3.663-3.577h9.088c.022-.398.032-.559.032-.752Zm-9.034-.88c.419-1.892 1.945-2.901 3.588-2.901 1.869 0 3.448 1.342 3.556 2.9h-7.144ZM234.416 16.311c1.955 0 3.599-1.02 4.34-2.642V16h1.772V5.043h-1.772v2.353c-.741-1.633-2.374-2.654-4.351-2.654-2.975 0-5.285 2.578-5.285 5.78 0 3.222 2.299 5.79 5.296 5.79Zm.408-1.729c-2.105 0-3.867-1.633-3.867-4.06 0-2.364 1.74-4.05 3.878-4.05 2.127 0 3.856 1.783 3.856 4.05 0 2.298-1.718 4.06-3.867 4.06ZM253.451 16l-4.125-6.563 3.567-4.394h-2.267l-4.705 5.833V.875h-1.848V16h1.848v-3.083l2.052-2.267 3.383 5.35h2.095ZM261.647 16v-1.568h-1.654c-.977 0-1.966-.366-1.966-2.407v-5.36h3.62V5.043h-3.62V1.777l-1.847.011v3.255h-2.439v1.622h2.439v5.275c0 3.415 1.783 4.06 3.448 4.06h2.019ZM268.651 16.311c2.858 0 4.974-1.61 4.974-5.413V5.043h-1.848v5.8c0 2.472-1.128 3.728-3.147 3.728-2.009 0-3.148-1.267-3.148-3.727V5.043h-1.836v5.855c0 3.802 2.094 5.413 5.005 5.413ZM286.945 10.253c0-2.943-2.256-5.522-5.414-5.522-3.169 0-5.575 2.59-5.575 5.79 0 3.212 2.406 5.78 5.575 5.78 2.492 0 4.448-1.59 5.071-3.599h-2.074c-.483 1.236-1.568 1.88-3.04 1.88-1.804 0-3.437-1.375-3.663-3.577h9.088c.022-.398.032-.559.032-.752Zm-9.034-.88c.419-1.892 1.944-2.901 3.588-2.901 1.869 0 3.448 1.342 3.556 2.9h-7.144ZM291.253 16V.854h-1.848V16h1.848ZM296.646 16V.854h-1.848V16h1.848ZM310.256 10.253c0-2.943-2.256-5.522-5.414-5.522-3.169 0-5.575 2.59-5.575 5.79 0 3.212 2.406 5.78 5.575 5.78 2.492 0 4.447-1.59 5.07-3.599h-2.073c-.484 1.236-1.568 1.88-3.04 1.88-1.805 0-3.438-1.375-3.663-3.577h9.088c.021-.398.032-.559.032-.752Zm-9.034-.88c.419-1.892 1.944-2.901 3.588-2.901 1.869 0 3.448 1.342 3.555 2.9h-7.143ZM314.563 16v-5.758c0-2.342 1.666-3.781 3.492-3.781 1.901 0 3.061 1.106 3.061 3.63V16h1.848v-5.94c0-3.502-1.526-5.329-4.437-5.329-1.858 0-3.416 1.021-4.039 2.428V5.043h-1.772V16h1.847ZM2.46 42c3.008 0 5.145-1.89 5.145-5.006v-9.603h-1.88v9.507c0 2.062-1.3 3.383-3.254 3.383H.397V42H2.46ZM15.866 42.312c3.277 0 5.715-2.568 5.715-5.79 0-3.212-2.45-5.79-5.715-5.79-3.255 0-5.693 2.588-5.693 5.79 0 3.222 2.45 5.79 5.693 5.79Zm.022-1.74c-2.181 0-3.867-1.72-3.867-4.05 0-2.31 1.686-4.05 3.867-4.05 2.17 0 3.845 1.74 3.845 4.05 0 2.33-1.675 4.05-3.845 4.05ZM30.218 42.312c3.061 0 5.382-2.568 5.382-5.79 0-3.202-2.31-5.78-5.404-5.78a4.646 4.646 0 0 0-4.178 2.61l.032-1.503v-4.974h-1.848V42h1.773v-2.331c.784 1.633 2.438 2.643 4.243 2.643Zm-.323-1.72c-2.105 0-3.856-1.74-3.856-4.07 0-2.267 1.719-4.061 3.856-4.061 2.138 0 3.868 1.697 3.868 4.06 0 2.417-1.762 4.072-3.867 4.072ZM42.142 42.312c2.61 0 4.415-1.16 4.415-3.406 0-2.384-2.01-2.922-4.018-3.233-2.041-.344-2.632-.73-2.632-1.773 0-.88.677-1.622 2.095-1.622 1.46 0 2.342.699 2.395 1.74h1.816c0-1.912-1.676-3.287-4.211-3.287-2.61 0-3.92 1.418-3.92 3.212 0 2.213 1.793 2.933 3.834 3.234 1.719.28 2.76.601 2.76 1.826 0 1.106-.859 1.805-2.513 1.805-1.805 0-2.793-.967-2.814-2.16l-1.784-.01c0 1.869 1.515 3.674 4.577 3.674ZM59.222 42.312c2.857 0 4.973-1.612 4.973-5.414v-5.855h-1.847v5.8c0 2.471-1.128 3.728-3.148 3.728-2.009 0-3.147-1.267-3.147-3.727v-5.801h-1.837v5.855c0 3.802 2.094 5.413 5.006 5.413ZM69.298 42v-5.758c0-2.342 1.665-3.781 3.491-3.781 1.901 0 3.062 1.106 3.062 3.63V42h1.847v-5.94c0-3.502-1.525-5.329-4.436-5.329-1.859 0-3.416 1.021-4.04 2.428v-2.116H67.45V42h1.848ZM85.583 42.312c1.987 0 3.534-1.16 4.232-2.643V42h1.773V26.875H89.74v5.414l.043 1.063c-.634-1.32-2.138-2.62-4.19-2.62-3.147 0-5.403 2.588-5.403 5.79 0 3.222 2.3 5.79 5.393 5.79Zm.3-1.72c-2.201 0-3.856-1.772-3.856-4.07 0-2.32 1.698-4.061 3.857-4.061 2.159 0 3.878 1.783 3.878 4.06 0 2.3-1.73 4.072-3.878 4.072ZM104.414 42l2.729-8.207h.01L109.86 42h1.741l3.77-10.957h-1.955l-2.546 7.756-.29.816h-.032l-.247-.784-2.417-7.788h-1.418l-2.492 7.928-.215.644h-.022l-.204-.655-2.599-7.917h-1.988L102.717 42h1.697ZM126.994 36.253c0-2.943-2.256-5.522-5.414-5.522-3.169 0-5.575 2.59-5.575 5.79 0 3.212 2.406 5.78 5.575 5.78 2.492 0 4.447-1.59 5.07-3.599h-2.073c-.483 1.236-1.568 1.88-3.04 1.88-1.805 0-3.437-1.375-3.663-3.577h9.088c.021-.398.032-.559.032-.752Zm-9.034-.88c.419-1.892 1.944-2.901 3.588-2.901 1.869 0 3.448 1.343 3.556 2.9h-7.144ZM131.312 42v-5.156c0-2.643 1.429-4.179 3.352-4.179h.967v-1.622h-1.064c-1.589 0-2.793.934-3.33 2.45v-2.45h-1.783V42h1.858ZM141.722 42.312c1.987 0 3.534-1.16 4.232-2.643V42h1.773V26.875h-1.848v5.414l.043 1.063c-.634-1.32-2.138-2.62-4.19-2.62-3.147 0-5.403 2.588-5.403 5.79 0 3.222 2.299 5.79 5.393 5.79Zm.3-1.72c-2.202 0-3.856-1.772-3.856-4.07 0-2.32 1.697-4.061 3.856-4.061 2.16 0 3.878 1.783 3.878 4.06 0 2.3-1.729 4.072-3.878 4.072ZM161.348 36.253c0-2.943-2.256-5.522-5.414-5.522-3.169 0-5.576 2.59-5.576 5.79 0 3.212 2.407 5.78 5.576 5.78 2.492 0 4.447-1.59 5.07-3.599h-2.073c-.484 1.236-1.569 1.88-3.04 1.88-1.805 0-3.438-1.375-3.663-3.577h9.087c.022-.398.033-.559.033-.752Zm-9.035-.88c.419-1.892 1.945-2.901 3.588-2.901 1.87 0 3.449 1.343 3.556 2.9h-7.144ZM173.83 42V29.099h4.63V27.39h-11.15v1.708h4.619V42h1.901ZM188.826 36.253c0-2.943-2.256-5.522-5.414-5.522-3.169 0-5.575 2.59-5.575 5.79 0 3.212 2.406 5.78 5.575 5.78 2.492 0 4.447-1.59 5.07-3.599h-2.073c-.483 1.236-1.568 1.88-3.04 1.88-1.805 0-3.437-1.375-3.663-3.577h9.088c.021-.398.032-.559.032-.752Zm-9.034-.88c.419-1.892 1.944-2.901 3.588-2.901 1.869 0 3.448 1.343 3.556 2.9h-7.144ZM192.199 28.905c.795 0 1.279-.526 1.279-1.181 0-.645-.484-1.171-1.268-1.171-.773 0-1.257.526-1.257 1.17 0 .656.484 1.182 1.246 1.182ZM193.134 42V31.043h-1.848V42h1.848ZM198.526 42V26.854h-1.847V42h1.847ZM212.212 42.312c2.857 0 4.974-1.612 4.974-5.414v-5.855h-1.848v5.8c0 2.471-1.128 3.728-3.148 3.728-2.008 0-3.147-1.267-3.147-3.727v-5.801h-1.837v5.855c0 3.802 2.095 5.413 5.006 5.413ZM222.288 42v-5.758c0-2.342 1.665-3.781 3.491-3.781 1.902 0 3.062 1.106 3.062 3.63V42h1.847v-5.94c0-3.502-1.525-5.329-4.436-5.329-1.858 0-3.416 1.021-4.039 2.428v-2.116h-1.773V42h1.848ZM237.757 42.312c2.61 0 4.415-1.16 4.415-3.406 0-2.384-2.009-2.922-4.018-3.233-2.041-.344-2.632-.73-2.632-1.773 0-.88.677-1.622 2.095-1.622 1.461 0 2.342.699 2.396 1.74h1.815c0-1.912-1.676-3.287-4.211-3.287-2.61 0-3.921 1.418-3.921 3.212 0 2.213 1.794 2.933 3.835 3.234 1.719.28 2.761.601 2.761 1.826 0 1.106-.859 1.805-2.514 1.805-1.804 0-2.793-.967-2.814-2.16l-1.783-.01c0 1.869 1.514 3.674 4.576 3.674ZM254.762 36.253c0-2.943-2.256-5.522-5.414-5.522-3.169 0-5.576 2.59-5.576 5.79 0 3.212 2.407 5.78 5.576 5.78 2.492 0 4.447-1.59 5.07-3.599h-2.073c-.484 1.236-1.569 1.88-3.04 1.88-1.805 0-3.438-1.375-3.663-3.577h9.087c.022-.398.033-.559.033-.752Zm-9.034-.88c.418-1.892 1.944-2.901 3.587-2.901 1.87 0 3.449 1.343 3.556 2.9h-7.143ZM259.08 42v-5.156c0-2.643 1.429-4.179 3.352-4.179h.966v-1.622h-1.063c-1.59 0-2.793.934-3.33 2.45v-2.45h-1.783V42h1.858ZM275.086 36.253c0-2.943-2.256-5.522-5.414-5.522-3.169 0-5.575 2.59-5.575 5.79 0 3.212 2.406 5.78 5.575 5.78 2.492 0 4.447-1.59 5.07-3.599h-2.073c-.483 1.236-1.568 1.88-3.04 1.88-1.805 0-3.438-1.375-3.663-3.577h9.088c.021-.398.032-.559.032-.752Zm-9.034-.88c.419-1.892 1.944-2.901 3.588-2.901 1.869 0 3.448 1.343 3.555 2.9h-7.143ZM279.394 42v-5.758c0-2.342 1.665-3.781 3.491-3.781 1.901 0 3.061 1.106 3.061 3.63V42h1.848v-5.94c0-3.502-1.525-5.329-4.437-5.329-1.858 0-3.416 1.021-4.039 2.428v-2.116h-1.772V42h1.848ZM301.232 42V29.099h4.63V27.39h-11.15v1.708h4.619V42h1.901ZM316.229 36.253c0-2.943-2.256-5.522-5.415-5.522-3.168 0-5.575 2.59-5.575 5.79 0 3.212 2.407 5.78 5.575 5.78 2.493 0 4.448-1.59 5.071-3.599h-2.073c-.484 1.236-1.569 1.88-3.041 1.88-1.804 0-3.437-1.375-3.663-3.577h9.088c.022-.398.033-.559.033-.752Zm-9.035-.88c.419-1.892 1.945-2.901 3.588-2.901 1.869 0 3.448 1.343 3.556 2.9h-7.144ZM323.061 42.312c1.955 0 3.598-1.021 4.339-2.643V42h1.773V31.043H327.4v2.352c-.741-1.632-2.374-2.653-4.35-2.653-2.976 0-5.285 2.578-5.285 5.78 0 3.222 2.298 5.79 5.296 5.79Zm.408-1.73c-2.106 0-3.867-1.633-3.867-4.06 0-2.364 1.74-4.05 3.877-4.05 2.127 0 3.857 1.783 3.857 4.05 0 2.298-1.719 4.06-3.867 4.06ZM346.103 30.731c-1.698 0-3.18.946-4.029 2.815-.569-1.858-1.858-2.815-3.824-2.815-1.762 0-3.212 1.053-3.771 2.428l-.021-2.116h-1.74V42h1.826v-5.758c0-2.234 1.536-3.781 3.212-3.781 1.751 0 2.814 1.106 2.814 3.63V42h1.826v-5.758c0-2.234 1.537-3.781 3.202-3.781 1.761 0 2.825 1.117 2.825 3.63V42h1.837v-5.94c0-3.502-1.44-5.329-4.157-5.329ZM357.339 42.312c2.61 0 4.415-1.16 4.415-3.406 0-2.384-2.009-2.922-4.018-3.233-2.041-.344-2.632-.73-2.632-1.773 0-.88.677-1.622 2.095-1.622 1.461 0 2.342.699 2.396 1.74h1.815c0-1.912-1.676-3.287-4.211-3.287-2.61 0-3.921 1.418-3.921 3.212 0 2.213 1.794 2.933 3.835 3.234 1.719.28 2.761.601 2.761 1.826 0 1.106-.859 1.805-2.514 1.805-1.804 0-2.793-.967-2.814-2.16l-1.783-.01c0 1.869 1.514 3.674 4.576 3.674ZM366.373 37.8l.258-3.019v-7.39h-1.902v7.38l.258 3.029h1.386Zm-.677 4.415c.72 0 1.214-.505 1.214-1.139s-.494-1.16-1.214-1.16c-.719 0-1.203.526-1.203 1.16 0 .623.494 1.139 1.203 1.139Z"/></svg>