<svg xmlns="http://www.w3.org/2000/svg" width="285" height="48" fill="none"><rect width="285" height="48" fill="#1EDC82" rx="24"/><path fill="#161528" d="M57.345 27.5h2.311l-4.974-11.962h-2.075L47.633 27.5h2.311l.95-2.311h5.502l.949 2.311Zm-5.704-4.14 1.924-4.71.07-.29h.027l.053.29 1.933 4.71h-4.007Zm15.257 4.14h2.391l-3.19-5.458 2.803-3.577H66.31L63.128 22.7v-7.576H61V27.5h2.127v-2.514l1.424-1.555 2.346 4.069Zm7.454 0h1.837v-1.767H74.79c-.677 0-1.31-.307-1.31-1.573v-3.867h2.708v-1.828H73.48v-2.663l-2.126.017v2.646h-1.873v1.828h1.873v3.77c0 2.98 1.634 3.437 2.997 3.437Zm7.514.273c2.39 0 4.237-1.266 4.237-4.483v-4.825h-2.119v4.764c0 1.652-.703 2.566-2.127 2.566-1.415 0-2.135-.897-2.135-2.567v-4.763h-2.11v4.825c0 3.217 1.837 4.483 4.254 4.483Zm15.135-4.949c0-2.487-1.828-4.632-4.553-4.632-2.716 0-4.684 2.154-4.684 4.79 0 2.637 1.968 4.79 4.684 4.79 2.25 0 3.859-1.485 4.316-3.11h-2.32c-.308.764-.967 1.212-2.04 1.212-1.248 0-2.285-.852-2.505-2.33h7.058c.035-.333.044-.491.044-.72Zm-7.014-.923c.36-1.274 1.38-1.854 2.453-1.854 1.248 0 2.302.844 2.39 1.854h-4.843Zm8.754 5.599h2.127V15.116h-2.127V27.5Zm4.623 0h2.127V15.116h-2.127V27.5Zm13.219-4.676c0-2.487-1.828-4.632-4.553-4.632-2.716 0-4.684 2.154-4.684 4.79 0 2.637 1.968 4.79 4.684 4.79 2.25 0 3.859-1.485 4.316-3.11h-2.321c-.307.764-.966 1.212-2.039 1.212-1.248 0-2.285-.852-2.505-2.33h7.058c.035-.333.044-.491.044-.72Zm-7.014-.923c.361-1.274 1.38-1.854 2.452-1.854 1.249 0 2.303.844 2.391 1.854h-4.843Zm12.243 5.599h1.899c2.505 0 4.342-1.485 4.342-4.078v-7.875h-2.171v7.752c0 1.38-.861 2.241-2.162 2.241h-1.908v1.96Zm12.797.273c2.787 0 4.782-2.128 4.782-4.79 0-2.646-1.995-4.79-4.773-4.79-2.768 0-4.755 2.153-4.755 4.79 0 2.654 1.995 4.79 4.746 4.79Zm.018-1.978c-1.521 0-2.654-1.178-2.654-2.813 0-1.626 1.133-2.82 2.654-2.82 1.52 0 2.654 1.194 2.654 2.82 0 1.635-1.134 2.813-2.654 2.813Zm11.769 1.977c2.522 0 4.376-2.135 4.376-4.79 0-2.636-1.836-4.78-4.403-4.78a3.505 3.505 0 0 0-3.05 1.74l.053-1.187v-3.63h-2.127V27.5h2.022v-1.52c.615 1.107 1.81 1.793 3.129 1.793Zm-.387-1.96c-1.442 0-2.663-1.177-2.663-2.83 0-1.582 1.186-2.82 2.654-2.82s2.663 1.124 2.663 2.82c0 1.75-1.222 2.83-2.654 2.83Zm10.468 1.96c1.467 0 2.663-.667 3.252-1.792v1.52h2.021v-9.035h-2.021v1.53c-.581-1.126-1.785-1.803-3.261-1.803-2.417 0-4.245 2.154-4.245 4.79 0 2.655 1.81 4.79 4.254 4.79Zm.509-1.968c-1.432 0-2.654-1.064-2.654-2.822 0-1.696 1.195-2.82 2.654-2.82 1.477 0 2.655 1.247 2.655 2.82 0 1.6-1.169 2.822-2.655 2.822Zm7.269 1.696h2.127v-4.614c0-1.767 1.142-2.734 2.39-2.734 1.284 0 2.092.73 2.092 2.523V27.5h2.127v-4.87c0-2.838-1.204-4.438-3.63-4.438-1.388 0-2.566.695-3.085 1.68v-1.407h-2.021V27.5Zm15.302 3.428c3.067 0 4.746-1.925 4.746-4.465v-7.998h-2.022v1.538c-.474-.932-1.591-1.81-3.208-1.81-2.513 0-4.298 2.153-4.298 4.605 0 2.46 1.802 4.482 4.369 4.482 1.344 0 2.513-.527 3.128-1.714v.923c0 1.415-.755 2.646-2.724 2.646-1.609 0-2.215-.695-2.4-1.644h-2.003c.061 1.714 1.327 3.437 4.412 3.437Zm-.018-5.493c-1.494 0-2.654-1.117-2.654-2.646 0-1.556 1.16-2.628 2.654-2.628a2.652 2.652 0 0 1 2.654 2.628 2.65 2.65 0 0 1-2.654 2.646Zm15.864-2.61c0-2.488-1.828-4.633-4.552-4.633-2.716 0-4.685 2.154-4.685 4.79 0 2.637 1.969 4.79 4.685 4.79 2.25 0 3.858-1.485 4.315-3.11h-2.32c-.308.764-.967 1.212-2.039 1.212-1.248 0-2.286-.852-2.505-2.33h7.057c.036-.333.044-.491.044-.72Zm-7.013-.924c.36-1.274 1.38-1.854 2.452-1.854 1.248 0 2.303.844 2.39 1.854h-4.842Zm13.904 5.872c2.522 0 4.377-2.136 4.377-4.79 0-2.637-1.837-4.782-4.403-4.782-1.301 0-2.453.694-3.05 1.74l.053-1.186v-3.63h-2.127V27.5h2.021v-1.52c.615 1.107 1.811 1.793 3.129 1.793Zm-.387-1.96c-1.441 0-2.663-1.178-2.663-2.83 0-1.583 1.187-2.822 2.654-2.822 1.468 0 2.664 1.125 2.664 2.821 0 1.75-1.222 2.83-2.655 2.83Zm10.96 1.96c2.786 0 4.781-2.128 4.781-4.79 0-2.646-1.995-4.79-4.772-4.79-2.769 0-4.755 2.153-4.755 4.79 0 2.654 1.995 4.79 4.746 4.79Zm.018-1.978c-1.521 0-2.655-1.178-2.655-2.813 0-1.626 1.134-2.82 2.655-2.82 1.52 0 2.654 1.194 2.654 2.82 0 1.635-1.134 2.813-2.654 2.813Zm10.16 1.705h1.837v-1.767h-1.398c-.676 0-1.309-.307-1.309-1.573v-3.867h2.707v-1.828h-2.707v-2.663l-2.127.017v2.646h-1.872v1.828h1.872v3.77c0 2.98 1.635 3.437 2.997 3.437Zm11.909-4.676c0-2.487-1.828-4.632-4.553-4.632-2.715 0-4.684 2.154-4.684 4.79 0 2.637 1.969 4.79 4.684 4.79 2.25 0 3.859-1.485 4.316-3.11h-2.321c-.307.764-.966 1.212-2.039 1.212-1.248 0-2.285-.852-2.504-2.33h7.057c.035-.333.044-.491.044-.72Zm-7.014-.923c.361-1.274 1.38-1.854 2.453-1.854 1.248 0 2.302.844 2.39 1.854h-4.843Z"/></svg>