<svg xmlns="http://www.w3.org/2000/svg" width="183" height="40" fill="none"><path fill="#1EDC82" d="M44.883 7.349h-4.635l.007 12.087c0 3.492-2.567 5.113-5.093 5.113-2.525 0-5.165-1.673-5.22-5.397V7.35h-4.636v11.773c.06 3.727 1.704 6.024 3.092 7.295C30.2 28.07 32.6 28.98 35.161 28.98c4.838 0 9.737-3.413 9.737-9.936L44.88 7.347l.003.002ZM102.688 19.68c.109-.626.169-1.269.169-1.925 0-6.19-5.035-11.224-11.224-11.224-6.19 0-11.225 5.035-11.225 11.224 0 6.19 5.035 11.225 11.225 11.225 4.346 0 7.294-1.369 9.818-4.601l-3.898-2.32c-1.78 2.065-3.718 2.416-5.922 2.416-3.04 0-5.613-2.03-6.44-4.803l17.495.01.002-.002Zm-11.055-8.645c3.067 0 5.658 2.066 6.462 4.88H85.17c.803-2.814 3.394-4.88 6.462-4.88ZM136.939 6.53c-6.209 0-11.225 4.866-11.225 11.225s5.018 11.225 11.225 11.225c6.206 0 11.224-4.908 11.224-11.225 0-6.317-4.974-11.224-11.224-11.224Zm0 17.967c-3.741 0-6.632-2.86-6.632-6.742s2.891-6.742 6.632-6.742c3.741 0 6.632 2.86 6.632 6.742s-2.891 6.742-6.632 6.742ZM121.622 21.35a6.834 6.834 0 0 1-5.752 3.125c-3.756 0-6.813-3.015-6.813-6.72 0-3.705 3.057-6.72 6.813-6.72a6.839 6.839 0 0 1 5.693 3.033l3.267-3.222a11.424 11.424 0 0 0-8.96-4.315c-6.275 0-11.38 5.035-11.38 11.224 0 6.19 5.105 11.225 11.38 11.225 3.674 0 6.944-1.729 9.028-4.402l-3.274-3.229h-.002ZM53.47 2.653a2.653 2.653 0 1 1-5.306 0 2.653 2.653 0 0 1 5.305 0ZM17.326 30.204c-.271 3.073-2.75 5.305-5.898 5.305-3.146 0-5.627-2.232-5.897-5.305l-4.715.03C1.128 35.802 5.691 40 11.43 40c5.737 0 10.302-4.199 10.612-9.765l-4.715-.03ZM53.061 7.347h-4.49V28.57h4.49V7.347ZM22.449 7.349H11.022C4.927 7.349 0 12.037 0 18.163 0 24.29 4.927 28.98 11.02 28.98s11.022-4.73 11.022-10.817c0-2.684-.938-5.094-2.508-6.954h2.915V7.348v.002ZM11.022 24.552c-3.61 0-6.402-2.708-6.402-6.387 0-3.68 2.791-6.387 6.402-6.387 3.61 0 6.402 2.708 6.402 6.387 0 3.68-2.791 6.387-6.402 6.387ZM73.692.408v8.283c-1.885-1.329-4.216-2.103-6.754-2.103-6.32 0-11.428 4.853-11.428 11.196 0 6.342 5.11 11.196 11.428 11.196 2.538 0 4.867-.875 6.754-2.324v1.807h4.675V.408h-4.675Zm-6.754 24.1c-3.809 0-6.752-2.852-6.752-6.724 0-3.873 2.943-6.726 6.752-6.726 3.808 0 6.752 2.853 6.752 6.726 0 3.872-2.944 6.725-6.752 6.725ZM182.037 16.75c-.049-6.432-4.635-9.799-9.166-9.799-2.388 0-4.618.903-6.276 2.54a8.6 8.6 0 0 0-.494.532 8.85 8.85 0 0 0-6.558-3.084h-.153c-1.844 0-3.453.603-4.827 1.76V7.405h-4.342l-.017 21.166h4.63l.016-12c.009-3.187 2.4-5.066 4.536-5.066h.077c2.995.052 4.337 2.724 4.337 5.35l.011 11.715h4.63l.005-11.846c0-2.59 1.37-5.206 4.427-5.206 1.173 0 2.263.44 3.07 1.237.957.946 1.463 2.355 1.468 4.077v11.74h4.63v-11.82l-.004-.001Z"/></svg>