<svg xmlns="http://www.w3.org/2000/svg" width="24" height="24" fill="none"><g clip-path="url(#a)"><path fill="#1EDC82" d="M0 12C0 5.37 5.37 0 12 0s12 5.37 12 12-5.37 12-12 12S0 18.63 0 12Zm9.749 1.55h8.84c.64 0 1.156-.517 1.156-1.158v-.784c0-.64-.516-1.157-1.156-1.157h-8.84l3.655-3.511a1.136 1.136 0 0 0 0-1.653l-.537-.537c-.454-.454-1.198-.454-1.631 0l-6.424 6.424c-.454.454-.454 1.198 0 1.632l6.424 6.423c.454.454 1.198.454 1.631 0l.537-.537a1.197 1.197 0 0 0 0-1.673L9.75 13.508v.041Z"/></g><defs><clipPath id="a"><path fill="#fff" d="M24 24H0V0h24z"/></clipPath></defs></svg>