<svg xmlns="http://www.w3.org/2000/svg" width="16" height="16" fill="none"><path fill="#1EDC82" d="M7.75 0C12 0 15.5 3.5 15.5 7.75c0 4.281-3.5 7.75-7.75 7.75A7.749 7.749 0 0 1 0 7.75C0 3.5 3.469 0 7.75 0Zm0 1.5A6.248 6.248 0 0 0 1.5 7.75 6.228 6.228 0 0 0 7.75 14 6.248 6.248 0 0 0 14 7.75c0-3.438-2.813-6.25-6.25-6.25Zm4.375 4.094c.125.125.125.375 0 .531l-5.406 5.344a.36.36 0 0 1-.532 0L3.345 8.594c-.125-.125-.125-.375 0-.531l.719-.688a.36.36 0 0 1 .53 0L6.47 9.25l4.406-4.375c.156-.156.406-.156.531 0l.719.719Z"/></svg>