<svg xmlns="http://www.w3.org/2000/svg" width="219" height="153" fill="none"><path fill="#FC0" d="m176.059 80.178-1.731.073c-1.349.048-2.33.274-2.944.676-.614.403-.92 1.018-.92 1.847 0 .602.178 1.067.536 1.396.358.329.894.494 1.609.494 1.041 0 1.876-.291 2.506-.872.629-.581.944-1.396.944-2.444v-1.17ZM159.029 75.228c-1.154 0-1.985.34-2.493 1.018-.508.679-.77 1.815-.786 3.407v.195c0 1.642.26 2.831.78 3.566.52.736 1.369 1.103 2.548 1.103 1.016 0 1.786-.402 2.31-1.206.524-.805.786-1.967.786-3.487 0-3.064-1.048-4.596-3.145-4.596ZM146.022 80.178l-1.732.073c-1.349.048-2.33.274-2.944.676-.613.403-.92 1.018-.92 1.847 0 .602.179 1.067.536 1.396.358.329.894.494 1.61.494 1.04 0 1.875-.291 2.505-.872.629-.581.945-1.396.945-2.444v-1.17ZM131.551 74.082c0-1.007-.329-1.731-.987-2.17-.659-.439-1.65-.658-2.975-.658h-1.926v5.827h2.024c1.357 0 2.34-.252 2.95-.756.609-.504.914-1.251.914-2.243ZM108.34 78.446c-.016-1.113-.284-1.956-.804-2.529-.521-.573-1.236-.86-2.146-.86-.91 0-1.64.289-2.188.866-.549.577-.876 1.418-.982 2.523h6.12ZM46.479 72.705c-.874-1.13-2.176-1.695-3.907-1.695-1.748 0-3.066.565-3.956 1.695-.89 1.129-1.335 2.787-1.335 4.973 0 2.195.443 3.859 1.329 4.993.885 1.133 2.198 1.7 3.937 1.7 1.731 0 3.038-.561 3.92-1.682.881-1.122 1.322-2.792 1.322-5.011 0-2.186-.437-3.844-1.31-4.973ZM152.349 43.405c.455-1.109 1.19-1.664 2.207-1.664 2.018 0 3.027 2.257 3.027 6.77 0 4.575-1.009 6.862-3.027 6.862-1.017 0-1.752-.569-2.207-1.71-.454-1.139-.681-2.857-.681-5.152s.227-3.997.681-5.106ZM130.342 29.888c.446-1.124 1.178-1.687 2.195-1.687 2.033 0 3.05 2.273 3.05 6.816 0 4.545-1.017 6.817-3.05 6.817-1.017 0-1.749-.563-2.195-1.687-.447-1.124-.67-2.834-.67-5.13 0-2.295.223-4.004.67-5.129ZM109.709 28.918c2.079 0 3.6 1.013 4.563 3.038.962 2.026 1.444 5.303 1.444 9.831 0 4.544-.482 7.818-1.444 9.82-.963 2.003-2.484 3.004-4.563 3.004-2.08 0-3.593-.986-4.541-2.958-.947-1.971-1.421-5.26-1.421-9.866 0-4.605.474-7.902 1.421-9.889.948-1.987 2.461-2.98 4.541-2.98Z"/><path fill="#FC0" fill-rule="evenodd" d="M129.252-105.124c71.381 0 129.248 57.866 129.248 129.248 0 71.382-57.867 129.248-129.248 129.248C57.87 153.372.003 95.506.003 24.124c0-71.382 57.867-129.248 129.249-129.248Zm67.147 189.172c.346.329.799.494 1.36.494.699 0 1.397-.11 2.096-.329v2.157c-.317.139-.725.254-1.225.348-.5.093-1.018.14-1.554.14-2.715 0-4.072-1.43-4.072-4.291v-7.266h-1.84v-1.268l1.974-1.048.976-2.853h1.767v2.999h3.84v2.17h-3.84v7.217c0 .691.173 1.201.518 1.53Zm-9.136 2.81c-2.715 0-4.072-1.43-4.072-4.291v-7.266h-1.841v-1.268l1.975-1.048.975-2.853h1.768v2.999h3.84v2.17h-3.84v7.217c0 .691.172 1.201.518 1.53.345.329.798.494 1.359.494.699 0 1.398-.11 2.097-.329v2.157c-.317.139-.725.254-1.225.348-.5.093-1.018.14-1.554.14Zm-10.96-2.121h-.097c-.651.821-1.305 1.379-1.963 1.676-.658.297-1.504.445-2.536.445-1.325 0-2.359-.358-3.102-1.073-.744-.715-1.116-1.727-1.116-3.035 0-1.39.516-2.438 1.548-3.145 1.032-.707 2.605-1.093 4.718-1.159l2.329-.073v-.719c0-.861-.201-1.505-.604-1.932-.402-.427-1.026-.64-1.871-.64-.691 0-1.353.102-1.987.305-.634.203-1.244.443-1.829.719l-.926-2.048a9.964 9.964 0 0 1 2.401-.872c.87-.199 1.691-.298 2.463-.298 1.715 0 3.009.373 3.883 1.121.873.748 1.31 1.922 1.31 3.523v9.082h-2.048l-.573-1.877Zm-16.579 2.121c-1.707 0-3.032-.614-3.974-1.841h-.195l-.525 1.597h-2.145V67.646h2.865v4.51c0 .333-.017.829-.049 1.487a44.525 44.525 0 0 1-.073 1.256h.122c.91-1.341 2.251-2.011 4.023-2.011 1.682 0 2.992.609 3.931 1.828.939 1.219 1.408 2.93 1.408 5.132 0 2.211-.475 3.932-1.426 5.163-.951 1.231-2.272 1.847-3.962 1.847Zm-13.459-2.121h-.097c-.65.821-1.305 1.379-1.963 1.676-.658.297-1.504.445-2.536.445-1.324 0-2.358-.358-3.102-1.073-.744-.715-1.116-1.727-1.116-3.035 0-.961.247-1.758.443-2.393.087-.283.165-.534.206-.752 1.932-.707 3.504-1.093 5.617-1.159l2.329-.073v-.719c0-.861-.201-1.505-.604-1.932-.402-.427-1.026-.64-1.871-.64-.691 0-1.353.102-1.987.305-.634.203-1.243.443-1.828.719l-.927-2.048a9.956 9.956 0 0 1 2.402-.872c.869-.199 1.69-.298 2.462-.298 1.715 0 3.009.373 3.883 1.121.873.748 1.31 1.922 1.31 3.523v9.082h-2.048l-.573-1.877Zm-13.458 1.877-4.267-7.119h-2.877v7.119h-2.913V68.791h5.034c2.3 0 4.003.431 5.108 1.293 1.105.861 1.658 2.162 1.658 3.901 0 2.218-1.154 3.799-3.462 4.742l5.035 7.887h-3.316Zm-19.566-7.912h6.266v2.439h-6.266v-2.439Zm-10.009 4.834c.667.703 1.605 1.055 2.816 1.055.797 0 1.538-.075 2.225-.226.687-.15 1.424-.4 2.213-.75v2.329a8.8 8.8 0 0 1-2.121.707c-.716.138-1.532.207-2.451.207-2.097 0-3.736-.611-4.919-1.835-1.182-1.223-1.773-2.907-1.773-5.053 0-2.202.548-3.933 1.645-5.193 1.097-1.26 2.605-1.889 4.523-1.889 1.78 0 3.186.54 4.218 1.621s1.548 2.568 1.548 4.462v1.548h-8.984c.04 1.308.394 2.314 1.06 3.017Zm-10.069-5.211c0-1.041-.209-1.817-.628-2.329-.419-.512-1.083-.768-1.993-.768-1.211 0-2.097.358-2.658 1.073-.56.715-.841 1.914-.841 3.596v6.717h-2.865V73.131h2.243l.403 1.768h.146c.406-.642.983-1.138 1.731-1.487.748-.35 1.577-.524 2.487-.524 3.234 0 4.852 1.645 4.852 4.937v8.789h-2.877v-8.289Zm-14.495-7.193c-.52 0-.92-.14-1.201-.421-.28-.28-.42-.664-.42-1.152 0-.512.14-.906.42-1.182.281-.276.681-.415 1.201-.415.504 0 .896.139 1.177.415.28.276.42.67.42 1.182 0 .488-.14.872-.42 1.152-.281.281-.673.421-1.177.421Zm-8.411-3.486h2.864v18.968h-2.864V67.646Zm-6.864 10.679c0-1.041-.209-1.817-.628-2.329-.418-.512-1.083-.768-1.993-.768-1.211 0-2.097.358-2.657 1.073-.561.715-.841 1.914-.841 3.596v6.717h-2.865V73.131h2.243l.402 1.768h.146c.407-.642.984-1.138 1.731-1.487.748-.35 1.577-.524 2.487-.524 3.235 0 4.852 1.645 4.852 4.937v8.789h-2.877v-8.289Zm-20.846 8.533c-2.69 0-4.756-.798-6.199-2.395-1.442-1.597-2.164-3.867-2.164-6.809s.726-5.201 2.176-6.778c1.451-1.577 3.521-2.365 6.212-2.365 2.649 0 4.697.801 6.144 2.402 1.446 1.601 2.17 3.856 2.17 6.765 0 2.902-.726 5.157-2.176 6.766-1.451 1.609-3.505 2.414-6.163 2.414Zm37.535-.244h-2.865V73.131h2.865v13.483Zm74.474-27.475c2.449 0 4.313-.885 5.591-2.657 1.279-1.771 1.918-4.428 1.918-7.971 0-3.404-.658-6.015-1.975-7.833-1.317-1.817-3.162-2.726-5.534-2.726-4.929 0-7.394 3.52-7.394 10.559 0 3.435.647 6.065 1.941 7.89 1.294 1.826 3.111 2.738 5.453 2.738Zm-3.835-34.242-18.739 33.78h4.483l18.738-33.78h-4.482Zm-23.626 17.965c1.286 1.841 3.1 2.761 5.442 2.761 2.479 0 4.355-.89 5.626-2.669s1.906-4.44 1.906-7.983c0-3.388-.651-5.996-1.952-7.821-1.302-1.825-3.162-2.738-5.58-2.738-4.914 0-7.371 3.52-7.371 10.559 0 3.42.643 6.05 1.929 7.891ZM101.16 54.726c1.94 2.943 4.79 4.413 8.549 4.413 3.881 0 6.765-1.424 8.653-4.274 1.886-2.85 2.83-7.209 2.83-13.078 0-5.699-.97-10.027-2.911-12.985-1.941-2.957-4.799-4.436-8.572-4.436-3.867 0-6.744 1.413-8.63 4.24-1.887 2.827-2.831 7.22-2.831 13.181 0 5.684.97 9.997 2.912 12.939ZM81.982 30.674c-.123 1.525-.185 3.589-.185 6.192v21.811h5.43v-33.78h-4.528l-9.936 7.81 2.727 3.443c2.942-2.388 4.67-3.805 5.187-4.252.516-.446.95-.855 1.305-1.224Z" clip-rule="evenodd"/><path d="m176.059 80.178-1.731.073c-1.349.048-2.33.274-2.944.676-.614.403-.92 1.018-.92 1.847 0 .602.178 1.067.536 1.396.358.329.894.494 1.609.494 1.041 0 1.876-.291 2.506-.872.629-.581.944-1.396.944-2.444v-1.17ZM159.029 75.228c-1.154 0-1.985.34-2.493 1.018-.508.679-.77 1.815-.786 3.407v.195c0 1.642.26 2.831.78 3.566.52.736 1.369 1.103 2.548 1.103 1.016 0 1.786-.402 2.31-1.206.524-.805.786-1.967.786-3.487 0-3.064-1.048-4.596-3.145-4.596ZM146.022 80.178l-1.732.073c-1.349.048-2.33.274-2.944.676-.613.403-.92 1.018-.92 1.847 0 .602.179 1.067.536 1.396.358.329.894.494 1.61.494 1.04 0 1.875-.291 2.505-.872.629-.581.945-1.396.945-2.444v-1.17ZM131.551 74.082c0-1.007-.329-1.731-.987-2.17-.659-.439-1.65-.658-2.975-.658h-1.926v5.827h2.024c1.357 0 2.34-.252 2.95-.756.609-.504.914-1.251.914-2.243ZM108.34 78.446c-.016-1.113-.284-1.956-.804-2.529-.521-.573-1.236-.86-2.146-.86-.91 0-1.64.289-2.188.866-.549.577-.876 1.418-.982 2.523h6.12ZM46.479 72.705c-.874-1.13-2.176-1.695-3.907-1.695-1.748 0-3.066.565-3.956 1.695-.89 1.129-1.335 2.787-1.335 4.973 0 2.195.443 3.859 1.329 4.993.885 1.133 2.198 1.7 3.937 1.7 1.731 0 3.038-.561 3.92-1.682.881-1.122 1.322-2.792 1.322-5.011 0-2.186-.437-3.844-1.31-4.973ZM152.349 43.405c.455-1.109 1.19-1.664 2.207-1.664 2.018 0 3.027 2.257 3.027 6.77 0 4.575-1.009 6.862-3.027 6.862-1.017 0-1.752-.569-2.207-1.71-.454-1.139-.681-2.857-.681-5.152s.227-3.997.681-5.106ZM130.342 29.888c.446-1.124 1.178-1.687 2.195-1.687 2.033 0 3.05 2.273 3.05 6.816 0 4.545-1.017 6.817-3.05 6.817-1.017 0-1.749-.563-2.195-1.687-.447-1.124-.67-2.834-.67-5.13 0-2.295.223-4.004.67-5.129ZM109.709 28.918c2.079 0 3.6 1.013 4.563 3.038.962 2.026 1.444 5.303 1.444 9.831 0 4.544-.482 7.818-1.444 9.82-.963 2.003-2.484 3.004-4.563 3.004-2.08 0-3.593-.986-4.541-2.958-.947-1.971-1.421-5.26-1.421-9.866 0-4.605.474-7.902 1.421-9.889.948-1.987 2.461-2.98 4.541-2.98Z"/><path d="M129.252-105.124c71.381 0 129.248 57.866 129.248 129.248 0 71.382-57.867 129.248-129.248 129.248C57.87 153.372.003 95.506.003 24.124c0-71.382 57.867-129.248 129.249-129.248Zm67.147 189.172c.346.329.799.494 1.36.494.699 0 1.397-.11 2.096-.329v2.157c-.317.139-.725.254-1.225.348-.5.093-1.018.14-1.554.14-2.715 0-4.072-1.43-4.072-4.291v-7.266h-1.84v-1.268l1.974-1.048.976-2.853h1.767v2.999h3.84v2.17h-3.84v7.217c0 .691.173 1.201.518 1.53Zm-9.136 2.81c-2.715 0-4.072-1.43-4.072-4.291v-7.266h-1.841v-1.268l1.975-1.048.975-2.853h1.768v2.999h3.84v2.17h-3.84v7.217c0 .691.172 1.201.518 1.53.345.329.798.494 1.359.494.699 0 1.398-.11 2.097-.329v2.157c-.317.139-.725.254-1.225.348-.5.093-1.018.14-1.554.14Zm-10.96-2.121h-.097c-.651.821-1.305 1.379-1.963 1.676-.658.297-1.504.445-2.536.445-1.325 0-2.359-.358-3.102-1.073-.744-.715-1.116-1.727-1.116-3.035 0-1.39.516-2.438 1.548-3.145 1.032-.707 2.605-1.093 4.718-1.159l2.329-.073v-.719c0-.861-.201-1.505-.604-1.932-.402-.427-1.026-.64-1.871-.64-.691 0-1.353.102-1.987.305-.634.203-1.244.443-1.829.719l-.926-2.048a9.964 9.964 0 0 1 2.401-.872c.87-.199 1.691-.298 2.463-.298 1.715 0 3.009.373 3.883 1.121.873.748 1.31 1.922 1.31 3.523v9.082h-2.048l-.573-1.877Zm-16.579 2.121c-1.707 0-3.032-.614-3.974-1.841h-.195l-.525 1.597h-2.145V67.646h2.865v4.51c0 .333-.017.829-.049 1.487a44.525 44.525 0 0 1-.073 1.256h.122c.91-1.341 2.251-2.011 4.023-2.011 1.682 0 2.992.609 3.931 1.828.939 1.219 1.408 2.93 1.408 5.132 0 2.211-.475 3.932-1.426 5.163-.951 1.231-2.272 1.847-3.962 1.847Zm-13.459-2.121h-.097c-.65.821-1.305 1.379-1.963 1.676-.658.297-1.504.445-2.536.445-1.324 0-2.358-.358-3.102-1.073-.744-.715-1.116-1.727-1.116-3.035 0-.961.247-1.758.443-2.393.087-.283.165-.534.206-.752 1.932-.707 3.504-1.093 5.617-1.159l2.329-.073v-.719c0-.861-.201-1.505-.604-1.932-.402-.427-1.026-.64-1.871-.64-.691 0-1.353.102-1.987.305-.634.203-1.243.443-1.828.719l-.927-2.048a9.956 9.956 0 0 1 2.402-.872c.869-.199 1.69-.298 2.462-.298 1.715 0 3.009.373 3.883 1.121.873.748 1.31 1.922 1.31 3.523v9.082h-2.048l-.573-1.877Zm-13.458 1.877-4.267-7.119h-2.877v7.119h-2.913V68.791h5.034c2.3 0 4.003.431 5.108 1.293 1.105.861 1.658 2.162 1.658 3.901 0 2.218-1.154 3.799-3.462 4.742l5.035 7.887h-3.316Zm-19.566-7.912h6.266v2.439h-6.266v-2.439Zm-10.009 4.834c.667.703 1.605 1.055 2.816 1.055.797 0 1.538-.075 2.225-.226.687-.15 1.424-.4 2.213-.75v2.329a8.8 8.8 0 0 1-2.121.707c-.716.138-1.532.207-2.451.207-2.097 0-3.736-.611-4.919-1.835-1.182-1.223-1.773-2.907-1.773-5.053 0-2.202.548-3.933 1.645-5.193 1.097-1.26 2.605-1.889 4.523-1.889 1.78 0 3.186.54 4.218 1.621s1.548 2.568 1.548 4.462v1.548h-8.984c.04 1.308.394 2.314 1.06 3.017Zm-10.069-5.211c0-1.041-.209-1.817-.628-2.329-.419-.512-1.083-.768-1.993-.768-1.211 0-2.097.358-2.658 1.073-.56.715-.841 1.914-.841 3.596v6.717h-2.865V73.131h2.243l.403 1.768h.146c.406-.642.983-1.138 1.731-1.487.748-.35 1.577-.524 2.487-.524 3.234 0 4.852 1.645 4.852 4.937v8.789h-2.877v-8.289Zm-14.495-7.193c-.52 0-.92-.14-1.201-.421-.28-.28-.42-.664-.42-1.152 0-.512.14-.906.42-1.182.281-.276.681-.415 1.201-.415.504 0 .896.139 1.177.415.28.276.42.67.42 1.182 0 .488-.14.872-.42 1.152-.281.281-.673.421-1.177.421Zm-8.411-3.486h2.864v18.968h-2.864V67.646Zm-6.864 10.679c0-1.041-.209-1.817-.628-2.329-.418-.512-1.083-.768-1.993-.768-1.211 0-2.097.358-2.657 1.073-.561.715-.841 1.914-.841 3.596v6.717h-2.865V73.131h2.243l.402 1.768h.146c.407-.642.984-1.138 1.731-1.487.748-.35 1.577-.524 2.487-.524 3.235 0 4.852 1.645 4.852 4.937v8.789h-2.877v-8.289Zm-20.846 8.533c-2.69 0-4.756-.798-6.199-2.395-1.442-1.597-2.164-3.867-2.164-6.809s.726-5.201 2.176-6.778c1.451-1.577 3.521-2.365 6.212-2.365 2.649 0 4.697.801 6.144 2.402 1.446 1.601 2.17 3.856 2.17 6.765 0 2.902-.726 5.157-2.176 6.766-1.451 1.609-3.505 2.414-6.163 2.414Zm37.535-.244h-2.865V73.131h2.865v13.483Zm74.474-27.475c2.449 0 4.313-.885 5.591-2.657 1.279-1.771 1.918-4.428 1.918-7.971 0-3.404-.658-6.015-1.975-7.833-1.317-1.817-3.162-2.726-5.534-2.726-4.929 0-7.394 3.52-7.394 10.559 0 3.435.647 6.065 1.941 7.89 1.294 1.826 3.111 2.738 5.453 2.738Zm-3.835-34.242-18.739 33.78h4.483l18.738-33.78h-4.482Zm-23.626 17.965c1.286 1.841 3.1 2.761 5.442 2.761 2.479 0 4.355-.89 5.626-2.669s1.906-4.44 1.906-7.983c0-3.388-.651-5.996-1.952-7.821-1.302-1.825-3.162-2.738-5.58-2.738-4.914 0-7.371 3.52-7.371 10.559 0 3.42.643 6.05 1.929 7.891ZM101.16 54.726c1.94 2.943 4.79 4.413 8.549 4.413 3.881 0 6.765-1.424 8.653-4.274 1.886-2.85 2.83-7.209 2.83-13.078 0-5.699-.97-10.027-2.911-12.985-1.941-2.957-4.799-4.436-8.572-4.436-3.867 0-6.744 1.413-8.63 4.24-1.887 2.827-2.831 7.22-2.831 13.181 0 5.684.97 9.997 2.912 12.939ZM81.982 30.674c-.123 1.525-.185 3.589-.185 6.192v21.811h5.43v-33.78h-4.528l-9.936 7.81 2.727 3.443c2.942-2.388 4.67-3.805 5.187-4.252.516-.446.95-.855 1.305-1.224Z" clip-rule="evenodd"/></svg>