<svg xmlns="http://www.w3.org/2000/svg" width="584" height="93" fill="none"><path fill="#fff" fill-rule="evenodd" d="M580.644 69.975c.271.364.495.812.672 1.343a5.31 5.31 0 0 1 .266 1.688c0 1.781-.615 3.182-1.844 4.203-1.229 1.021-2.922 1.531-5.078 1.531a8.176 8.176 0 0 1-1.5-.125c-.792.49-1.187 1.063-1.187 1.719 0 .396.184.693.554.891.37.198 1.05.297 2.039.297h3.016c1.906 0 3.354.406 4.344 1.218.989.813 1.484 1.985 1.484 3.516 0 1.958-.807 3.469-2.422 4.531-1.615 1.063-3.948 1.594-7 1.594-2.354 0-4.151-.417-5.39-1.25-1.24-.834-1.86-2.021-1.86-3.563 0-1.062.336-1.955 1.008-2.679.672-.724 1.612-1.227 2.82-1.508a2.76 2.76 0 0 1-1.211-1.008c-.317-.463-.476-.95-.476-1.461 0-.646.182-1.192.547-1.64.364-.448.906-.891 1.625-1.329-.896-.385-1.623-1.012-2.18-1.882-.557-.87-.836-1.888-.836-3.055 0-1.875.591-3.328 1.774-4.359 1.182-1.032 2.867-1.547 5.054-1.547.49 0 1.003.034 1.539.101.537.068.94.138 1.211.211h5.985v2.016l-2.954.547Zm-9.695 15.398c-.62.495-.93 1.164-.93 2.008 0 .791.357 1.401 1.071 1.828.713.427 1.716.641 3.008.641 2 0 3.489-.287 4.468-.86.979-.573 1.469-1.333 1.469-2.281 0-.75-.268-1.284-.805-1.601-.536-.318-1.534-.477-2.992-.477h-2.781c-1.052 0-1.888.247-2.508.742Zm6.281-15c-.526-.609-1.325-.914-2.398-.914-1.063 0-1.867.302-2.414.906-.547.605-.82 1.485-.82 2.641 0 1.083.278 1.917.836 2.5.557.583 1.356.875 2.398.875 2.125 0 3.187-1.135 3.187-3.406 0-1.125-.263-1.992-.789-2.602Zm-17.023 3.695c0-1.333-.268-2.328-.805-2.984-.536-.656-1.388-.984-2.554-.984-1.553 0-2.688.458-3.407 1.375-.718.916-1.078 2.453-1.078 4.609v8.609h-3.672V67.412h2.875l.516 2.266h.187c.521-.823 1.261-1.458 2.219-1.906.958-.448 2.021-.672 3.188-.672 4.145 0 6.218 2.109 6.218 6.328v11.265h-3.687V74.068Zm-20 8.219h-.125c-.834 1.052-1.672 1.769-2.516 2.149-.843.38-1.927.57-3.25.57-1.698 0-3.023-.458-3.976-1.375-.953-.917-1.43-2.213-1.43-3.891 0-1.781.661-3.125 1.984-4.031 1.323-.906 3.339-1.401 6.047-1.484l2.985-.094v-.922c0-1.104-.258-1.93-.774-2.476-.515-.547-1.315-.821-2.398-.821-.886 0-1.735.131-2.547.391-.813.26-1.594.568-2.344.922l-1.187-2.625c.937-.49 1.963-.862 3.078-1.117a14.111 14.111 0 0 1 3.156-.383c2.198 0 3.857.479 4.977 1.437 1.119.959 1.679 2.464 1.679 4.516v11.64h-2.625l-.734-2.406Zm-.313-5.844-2.218.094c-1.73.063-2.987.352-3.774.867-.786.516-1.179 1.305-1.179 2.368 0 .771.229 1.367.687 1.789.458.422 1.146.632 2.063.632 1.333 0 2.403-.372 3.211-1.117.807-.744 1.21-1.789 1.21-3.133v-1.5Zm-15.25-5.125a5.31 5.31 0 0 1 .266 1.688c0 1.781-.615 3.182-1.844 4.203-1.229 1.021-2.922 1.531-5.078 1.531a8.176 8.176 0 0 1-1.5-.125c-.792.49-1.187 1.063-1.187 1.719 0 .396.185.693.554.891.37.198 1.05.297 2.039.297h3.016c1.906 0 3.354.406 4.344 1.218.989.813 1.484 1.985 1.484 3.516 0 1.958-.807 3.469-2.422 4.531-1.614 1.063-3.948 1.594-7 1.594-2.354 0-4.151-.417-5.39-1.25-1.24-.834-1.86-2.021-1.86-3.563 0-1.062.336-1.955 1.008-2.679.672-.724 1.612-1.227 2.82-1.508a2.752 2.752 0 0 1-1.21-1.008c-.318-.463-.477-.95-.477-1.461 0-.646.182-1.192.547-1.64.364-.448.906-.891 1.625-1.329-.896-.385-1.623-1.012-2.18-1.882-.557-.87-.836-1.888-.836-3.055 0-1.875.591-3.328 1.774-4.359 1.182-1.032 2.867-1.547 5.054-1.547.49 0 1.003.034 1.539.101.537.068.94.138 1.211.211h5.985v2.016l-2.953.547c.27.364.494.812.671 1.343Zm-10.367 14.055c-.62.495-.929 1.164-.929 2.008 0 .791.356 1.401 1.07 1.828.713.427 1.716.641 3.008.641 2 0 3.489-.287 4.468-.86.979-.573 1.469-1.333 1.469-2.281 0-.75-.268-1.284-.804-1.601-.537-.318-1.534-.477-2.993-.477h-2.781c-1.052 0-1.888.247-2.508.742Zm6.282-15c-.527-.609-1.326-.914-2.399-.914-1.062 0-1.867.302-2.414.906-.547.605-.82 1.485-.82 2.641 0 1.083.278 1.917.836 2.5.557.583 1.356.875 2.398.875 2.125 0 3.188-1.135 3.188-3.406 0-1.125-.264-1.992-.789-2.602Zm-13.415.117c-1.468 0-2.658.48-3.57 1.438-.911.958-1.367 2.203-1.367 3.734v9.031h-3.672V67.412h2.875l.484 3.047h.188c.573-1.031 1.32-1.849 2.242-2.453.922-.604 1.914-.906 2.977-.906.739 0 1.349.052 1.828.156l-.36 3.422a6.938 6.938 0 0 0-1.625-.188Zm-22.937 10.258c.854.901 2.057 1.352 3.609 1.352 1.021 0 1.972-.096 2.852-.289.88-.193 1.825-.513 2.836-.961v2.984c-.896.427-1.802.729-2.719.906-.917.177-1.964.266-3.141.266-2.687 0-4.789-.784-6.304-2.352-1.516-1.567-2.274-3.726-2.274-6.476 0-2.823.703-5.042 2.11-6.656 1.406-1.615 3.338-2.422 5.797-2.422 2.281 0 4.083.693 5.406 2.078 1.323 1.385 1.984 3.292 1.984 5.719v1.984h-11.515c.052 1.677.505 2.966 1.359 3.867Zm6.547-6.523c-.021-1.427-.365-2.508-1.031-3.242-.667-.735-1.584-1.102-2.75-1.102-1.167 0-2.102.37-2.805 1.109-.703.74-1.123 1.818-1.258 3.235h7.844Zm-19.422 8.203h-.172c-1.177 1.719-2.901 2.578-5.172 2.578-2.156 0-3.838-.781-5.047-2.344-1.208-1.562-1.812-3.755-1.812-6.578 0-2.833.612-5.039 1.836-6.617 1.224-1.578 2.919-2.367 5.086-2.367 2.27 0 4 .838 5.187 2.515h.188c-.178-1.239-.266-2.218-.266-2.937v-6.297h3.688v24.312h-2.875l-.641-2.265Zm0-6.313c0-2.177-.354-3.724-1.063-4.64-.708-.917-1.817-1.375-3.328-1.375-1.291 0-2.286.523-2.984 1.57-.698 1.047-1.047 2.539-1.047 4.477 0 1.916.338 3.377 1.016 4.382.677 1.006 1.692 1.508 3.047 1.508 1.51 0 2.609-.424 3.296-1.273.688-.849 1.042-2.227 1.063-4.133v-.516Zm-19.813 6.313h-.187c-.511.802-1.237 1.432-2.18 1.89-.943.459-2.018.688-3.226.688-2.094 0-3.657-.521-4.688-1.563-1.031-1.041-1.547-2.619-1.547-4.734V67.412h3.703v10.656c0 1.323.271 2.316.813 2.977.541.662 1.391.992 2.547.992 1.541 0 2.674-.461 3.398-1.383.724-.921 1.086-2.466 1.086-4.632v-8.61h3.688v17.281h-2.891l-.516-2.265Zm-26-1.68c.854.901 2.058 1.352 3.61 1.352 1.021 0 1.971-.096 2.851-.289.881-.193 1.826-.513 2.836-.961v2.984a11.28 11.28 0 0 1-2.718.906c-.917.177-1.964.266-3.141.266-2.688 0-4.789-.784-6.305-2.352-1.515-1.567-2.273-3.726-2.273-6.476 0-2.823.703-5.042 2.109-6.656 1.406-1.615 3.339-2.422 5.797-2.422 2.281 0 4.083.693 5.406 2.078 1.323 1.385 1.985 3.292 1.985 5.719v1.984H424.16c.052 1.677.505 2.966 1.359 3.867Zm6.547-6.523c-.021-1.427-.364-2.508-1.031-3.242-.667-.735-1.583-1.102-2.75-1.102s-2.101.37-2.805 1.109c-.703.74-1.122 1.818-1.257 3.235h7.843Zm-19.578-13.844h3.672v24.312h-3.672V60.381Zm-7.909-45.44c-1.56 0-2.912-.936-3.016-2.705l1.456-.884c.156-.832-.156-1.612-1.248-1.612-.676 0-2.236.208-2.236 3.432 0 .833.104 1.873.364 3.121 2.028 1.352 3.952 3.172 3.952 6.604 0 5.928-4.264 8.892-10.608 8.892-1.508 0-3.121-.208-4.213-.416-1.82 1.144-2.288 1.716-2.288 2.184 0 .468.572.728 3.328.728h5.305c5.876 0 11.804 1.404 11.804 8.477 0 5.772-4.16 9.932-14.664 9.932-9.049 0-12.845-2.184-12.845-5.564 0-2.6 2.184-3.64 4.004-4.16l3.12 1.404c-.312 1.144-.416 2.028-.416 2.86 0 2.184 1.092 4.472 6.657 4.472 5.512 0 8.424-2.236 8.424-5.512 0-2.496-1.144-3.484-6.604-3.484h-5.045c-6.188 0-7.852-2.548-7.852-4.837 0-2.964 1.872-4.42 5.928-6.864-4.056-1.144-6.032-3.588-6.032-7.904 0-4.888 3.38-8.684 11.233-8.684 2.548 0 4.056.364 5.772 1.3-.208-.936-.312-1.768-.312-2.549 0-4.264 2.964-5.512 5.096-5.512 2.444 0 4.212 1.352 4.212 3.848 0 2.393-1.56 3.433-3.276 3.433Zm-9.308 7.02c0-5.824-.832-6.604-2.236-6.604-1.456 0-2.497.936-2.497 6.604v2.808c0 4.888.885 5.98 2.445 5.98 1.404 0 2.288-.832 2.288-6.24v-2.548Zm-21.476 18.253c-4.213 0-6.553-1.301-7.177-3.849-.832 2.496-2.34 3.849-5.98 3.849-3.64 0-7.696-1.093-7.696-6.293 0-5.252 4.524-6.448 11.96-6.448h1.508v-4.004c0-6.604-.572-8.32-2.652-8.32-.936 0-2.444.416-2.444 2.08 0 .416.104.936.312 1.508h1.3c.26.676.416 1.352.416 2.34 0 2.444-1.976 4.056-4.576 4.056-3.224 0-4.472-1.768-4.472-4.316 0-4.368 3.796-6.396 10.868-6.396 8.165 0 10.921 2.288 10.921 9.828v10.556c0 2.132.624 2.704 1.508 2.704.936 0 1.82-.988 2.08-5.356l.78.052c-.26 6.24-2.184 8.009-6.656 8.009Zm-7.385-11.909h-.364c-2.184 0-3.224 1.56-3.224 4.732v.832c0 3.744.364 4.264 1.352 4.264.988 0 2.236-1.664 2.236-4.992v-4.836Zm-23.036 11.909c-5.148 0-8.84-1.509-8.84-7.957v-16.38h-2.86v-.936h2.86V8.232l9.672-2.392v9.101h6.761v.936h-6.761v17.524c0 3.068.468 4.732 2.288 4.732 2.497 0 4.057-2.288 4.525-5.824l.884.104c-.468 4.056-2.184 7.801-8.529 7.801Zm-26.676-1.457h2.132v-16.9c0-4.42-.624-4.94-1.924-4.94-2.184 0-4.212 3.276-4.212 7.488v14.352h2.236v.936h-14.768v-.936h2.86V1.628h-2.86V.692h12.532v19.033c.884-2.6 2.6-5.304 7.748-5.304 4.836 0 8.061 2.392 8.061 8.684v15.652h2.912v.936h-14.717v-.936Zm-25.583-.312c4.732 0 6.76-4.004 7.332-6.812l.936.104c-.676 3.224-2.392 8.477-11.077 8.477-8.008 0-12.48-4.473-12.48-12.585 0-8.736 5.304-13.208 13.884-13.208 6.345 0 9.517 2.704 9.517 6.604 0 3.224-1.716 4.888-4.316 4.888-2.704 0-4.628-1.404-4.628-4.316 0-.468.052-1.144.26-1.872h1.716c.26-.728.364-1.352.364-1.872 0-1.768-1.04-2.496-2.496-2.496-3.017 0-4.265 3.016-4.265 10.764v2.704c0 6.656 1.196 9.62 5.253 9.62Zm-17.108-7.124c0 5.928-3.848 8.893-9.724 8.893-2.496 0-4.264-.521-6.24-1.509-.312-.208-.78-.416-.988-.416-.676 0-1.404.468-2.236 1.925h-.625v-9.309h.625c1.924 6.344 5.096 8.164 9.36 8.164 3.848 0 5.304-1.404 5.304-3.38 0-2.34-2.548-2.86-6.5-3.952-4.16-1.144-8.789-2.756-8.789-8.528 0-5.304 3.641-8.788 9.153-8.788 2.288 0 3.848.572 5.252 1.196.624.26.832.416 1.456.416.78 0 1.144-.416 1.82-1.716h.572v7.956h-.624c-1.872-4.784-4.524-6.76-8.216-6.76-3.432 0-4.836 1.404-4.836 3.016 0 2.392 3.12 2.964 6.552 3.9 4.108 1.092 8.684 2.756 8.684 8.892Zm-28.184 8.893c-4.212 0-6.552-1.301-7.176-3.849-.832 2.496-2.34 3.849-5.98 3.849-3.64 0-7.696-1.093-7.696-6.293 0-5.252 4.524-6.448 11.96-6.448h1.508v-4.004c0-6.604-.572-8.32-2.652-8.32-.936 0-2.444.416-2.444 2.08 0 .416.104.936.312 1.508h1.3c.26.676.416 1.352.416 2.34 0 2.444-1.976 4.056-4.576 4.056-3.224 0-4.472-1.768-4.472-4.316 0-4.368 3.796-6.396 10.868-6.396 8.164 0 10.921 2.288 10.921 9.828v10.556c0 2.132.624 2.704 1.508 2.704.936 0 1.82-.988 2.08-5.356l.78.052c-.26 6.24-2.184 8.009-6.657 8.009Zm-7.384-11.909h-.364c-2.184 0-3.224 1.56-3.224 4.732v.832c0 3.744.364 4.264 1.352 4.264.988 0 2.236-1.664 2.236-4.992v-4.836ZM215.3 40.214h-4.628l-7.696-23.505-6.761 23.505h-4.524L178.587 4.28h-2.445v-.988h16.901v.988h-3.64l8.476 24.909 4.316-14.976-3.12-9.933h-2.964v-.988h16.121v.988h-3.068l7.748 24.597 6.24-24.597H217.9v-.988h10.4v.988h-3.432L215.3 40.214Zm-32.734 34.011 2.985-.094v-.922c0-1.104-.258-1.93-.774-2.476-.515-.547-1.315-.821-2.398-.821-.886 0-1.735.131-2.547.391-.813.26-1.594.568-2.344.922l-1.187-2.625c.937-.49 1.963-.862 3.078-1.117a14.111 14.111 0 0 1 3.156-.383c2.198 0 3.857.479 4.977 1.437 1.119.959 1.679 2.464 1.679 4.516v11.64h-2.625l-.734-2.406h-.125c-.834 1.052-1.672 1.769-2.516 2.149-.843.38-1.927.57-3.25.57-1.698 0-3.023-.458-3.976-1.375-.953-.917-1.43-2.213-1.43-3.891 0-1.781.661-3.125 1.984-4.031 1.323-.906 3.339-1.401 6.047-1.484Zm-3.531 7.336c.458.422 1.146.632 2.063.632 1.333 0 2.403-.372 3.211-1.117.807-.744 1.21-1.789 1.21-3.133v-1.5l-2.218.094c-1.73.063-2.987.352-3.774.867-.786.516-1.179 1.305-1.179 2.368 0 .771.229 1.367.687 1.789Zm-14.453 3.445c-2.188 0-3.886-.786-5.094-2.359h-.25l-.672 2.046h-2.75V60.381h3.672v5.781c0 .427-.021 1.063-.062 1.906a53.494 53.494 0 0 1-.094 1.61h.156c1.167-1.719 2.885-2.578 5.156-2.578 2.157 0 3.836.781 5.04 2.343 1.203 1.563 1.804 3.756 1.804 6.579 0 2.833-.609 5.039-1.828 6.617-1.219 1.578-2.912 2.367-5.078 2.367Zm-.891-14.906c-1.479 0-2.544.435-3.195 1.304-.651.87-.987 2.326-1.008 4.368v.25c0 2.104.333 3.627 1 4.57.667.943 1.755 1.414 3.266 1.414 1.302 0 2.289-.516 2.961-1.547.672-1.031 1.008-2.521 1.008-4.469 0-3.927-1.344-5.89-4.032-5.89Zm-16.672 3.968c0-1.333-.268-2.328-.804-2.984-.537-.656-1.388-.984-2.555-.984-1.542 0-2.674.461-3.398 1.383-.724.921-1.086 2.466-1.086 4.632v8.578h-3.672V60.381h3.672v6.172c0 .99-.063 2.047-.188 3.172h.235a5.098 5.098 0 0 1 2.086-1.938c.89-.458 1.929-.687 3.117-.687 4.187 0 6.281 2.109 6.281 6.328v11.265h-3.688V74.068Zm-20.125-3.906c-2.989 0-4.484 1.985-4.484 5.953 0 1.938.372 3.394 1.117 4.368.745.974 1.836 1.46 3.274 1.46a9.394 9.394 0 0 0 4.64-1.218v3.203a7.275 7.275 0 0 1-2.101.828c-.745.166-1.649.25-2.711.25-2.615 0-4.602-.763-5.961-2.289-1.359-1.526-2.039-3.716-2.039-6.57 0-2.907.711-5.141 2.133-6.704 1.422-1.562 3.476-2.343 6.164-2.343 1.822 0 3.463.338 4.922 1.015l-1.11 2.953c-1.552-.604-2.833-.906-3.844-.906Zm-15.718 12.125h-.125c-.834 1.052-1.672 1.769-2.516 2.149-.844.38-1.927.57-3.25.57-1.698 0-3.023-.458-3.976-1.375-.954-.917-1.43-2.213-1.43-3.891 0-1.781.661-3.125 1.984-4.031 1.323-.906 3.339-1.401 6.047-1.484l2.984-.094v-.922c0-1.104-.257-1.93-.773-2.476-.516-.547-1.315-.821-2.398-.821-.886 0-1.735.131-2.547.391-.813.26-1.594.568-2.344.922l-1.188-2.625c.938-.49 1.964-.862 3.079-1.117a14.111 14.111 0 0 1 3.156-.383c2.198 0 3.857.479 4.976 1.437 1.12.959 1.68 2.464 1.68 4.516v11.64h-2.625l-.734-2.406Zm-.313-5.844-2.219.094c-1.729.063-2.987.352-3.773.867-.787.516-1.18 1.305-1.18 2.368 0 .771.229 1.367.688 1.789.458.422 1.146.632 2.062.632 1.334 0 2.404-.372 3.211-1.117.807-.744 1.211-1.789 1.211-3.133v-1.5ZM79.644 66.49h-.125l.079 1.016a71.66 71.66 0 0 1 .218 5.312v11.875h-3.39V61.85h4.531L92.16 79.959h.094c-.021-.239-.063-1.112-.125-2.617a89.535 89.535 0 0 1-.094-3.524V61.85h3.422v22.843h-4.578L79.644 66.49Zm-26.25 14.258c.854.901 2.058 1.352 3.61 1.352 1.021 0 1.971-.096 2.851-.289.881-.193 1.826-.513 2.836-.961v2.984a11.28 11.28 0 0 1-2.718.906c-.917.177-1.964.266-3.141.266-2.688 0-4.789-.784-6.305-2.352-1.515-1.567-2.273-3.726-2.273-6.476 0-2.823.703-5.042 2.109-6.656 1.406-1.615 3.339-2.422 5.797-2.422 2.281 0 4.083.693 5.406 2.078 1.323 1.385 1.985 3.292 1.985 5.719v1.984H52.035c.052 1.677.505 2.966 1.359 3.867Zm6.547-6.523c-.021-1.427-.364-2.508-1.031-3.242-.667-.735-1.583-1.102-2.75-1.102s-2.101.37-2.805 1.109c-.703.74-1.122 1.818-1.257 3.235h7.843Zm-19.453-.157c0-1.333-.268-2.328-.804-2.984-.537-.656-1.389-.984-2.555-.984-1.552 0-2.688.458-3.406 1.375-.719.916-1.079 2.453-1.079 4.609v8.609h-3.671V67.412h2.875l.515 2.266h.188c.52-.823 1.26-1.458 2.218-1.906.959-.448 2.021-.672 3.188-.672 4.146 0 6.219 2.109 6.219 6.328v11.265h-3.688V74.068ZM21.91 64.85c-.667 0-1.18-.18-1.539-.539-.359-.36-.539-.852-.539-1.477 0-.656.18-1.161.539-1.516.359-.354.872-.531 1.539-.531.646 0 1.149.177 1.508.531.359.355.539.86.539 1.516 0 .625-.18 1.117-.539 1.477-.359.359-.862.539-1.508.539ZM5.723 80.748c.854.901 2.057 1.352 3.609 1.352 1.021 0 1.971-.096 2.852-.289.88-.193 1.825-.513 2.835-.961v2.984a11.28 11.28 0 0 1-2.718.906c-.917.177-1.964.266-3.141.266-2.687 0-4.789-.784-6.305-2.352C1.34 81.087.582 78.928.582 76.178c0-2.823.703-5.042 2.109-6.656C4.098 67.907 6.03 67.1 8.488 67.1c2.281 0 4.083.693 5.406 2.078 1.323 1.385 1.985 3.292 1.985 5.719v1.984H4.363c.052 1.677.505 2.966 1.36 3.867Zm6.546-6.523c-.021-1.427-.364-2.508-1.031-3.242-.667-.735-1.583-1.102-2.75-1.102s-2.101.37-2.804 1.109c-.704.74-1.123 1.818-1.258 3.235h7.843Zm11.454 10.468h-3.672V67.412h3.672v17.281Zm173.953-14.234h.187c.573-1.031 1.321-1.849 2.242-2.453.922-.604 1.914-.906 2.977-.906.739 0 1.349.052 1.828.156l-.359 3.422a6.944 6.944 0 0 0-1.625-.188c-1.469 0-2.659.48-3.571 1.438-.911.958-1.367 2.203-1.367 3.734v9.031h-3.672V67.412h2.875l.485 3.047Zm16.828 7.688c-.573-.313-1.37-.667-2.391-1.063-1.99-.771-3.336-1.541-4.039-2.312-.703-.771-1.055-1.771-1.055-3 0-1.479.597-2.628 1.79-3.446 1.192-.817 2.814-1.226 4.867-1.226 2.031 0 3.953.411 5.765 1.234l-1.187 2.766c-1.865-.771-3.433-1.157-4.703-1.157-1.938 0-2.907.553-2.907 1.657 0 .541.253 1 .758 1.375s1.607.89 3.305 1.547c1.427.552 2.463 1.057 3.109 1.515.646.459 1.125.987 1.438 1.586.312.599.469 1.315.469 2.149 0 1.687-.615 2.982-1.844 3.882-1.229.902-2.99 1.352-5.281 1.352-2.303 0-4.152-.349-5.547-1.047v-3.172c2.031.938 3.922 1.406 5.672 1.406 2.26 0 3.39-.682 3.39-2.046 0-.438-.125-.802-.375-1.094-.25-.292-.661-.594-1.234-.906ZM230.957 67.1c1.823 0 3.463.338 4.922 1.015l-1.11 2.953c-1.552-.604-2.833-.906-3.843-.906-2.99 0-4.485 1.985-4.485 5.953 0 1.938.373 3.394 1.118 4.368.744.974 1.835 1.46 3.273 1.46a9.4 9.4 0 0 0 4.641-1.218v3.203a7.281 7.281 0 0 1-2.102.828c-.745.166-1.648.25-2.711.25-2.615 0-4.601-.763-5.961-2.289-1.359-1.526-2.039-3.716-2.039-6.57 0-2.907.711-5.141 2.133-6.704 1.422-1.562 3.476-2.343 6.164-2.343Zm12.25-.547c0 .99-.063 2.047-.188 3.172h.235a5.098 5.098 0 0 1 2.086-1.938c.89-.458 1.929-.687 3.117-.687 4.187 0 6.281 2.109 6.281 6.328v11.265h-3.687V74.068c0-1.333-.269-2.328-.805-2.984-.537-.656-1.388-.984-2.555-.984-1.541 0-2.674.461-3.398 1.383-.724.921-1.086 2.466-1.086 4.632v8.578h-3.672V60.381h3.672v6.172Zm23.453 7.672 2.984-.094v-.922c0-1.104-.257-1.93-.773-2.476-.516-.547-1.315-.821-2.398-.821-.886 0-1.735.131-2.547.391-.813.26-1.594.568-2.344.922l-1.188-2.625c.938-.49 1.964-.862 3.079-1.117a14.111 14.111 0 0 1 3.156-.383c2.198 0 3.857.479 4.976 1.437 1.12.959 1.68 2.464 1.68 4.516v11.64h-2.625l-.734-2.406h-.125c-.834 1.052-1.672 1.769-2.516 2.149-.844.38-1.927.57-3.25.57-1.698 0-3.023-.458-3.976-1.375-.954-.917-1.43-2.213-1.43-3.891 0-1.781.661-3.125 1.984-4.031 1.323-.906 3.339-1.401 6.047-1.484Zm-3.531 7.336c.458.422 1.146.632 2.062.632 1.334 0 2.404-.372 3.211-1.117.807-.744 1.211-1.789 1.211-3.133v-1.5l-2.219.094c-1.729.063-2.987.352-3.773.867-.787.516-1.18 1.305-1.18 2.368 0 .771.229 1.367.688 1.789Zm16.047-15.336c0-2.042.479-3.555 1.437-4.539.958-.985 2.422-1.477 4.391-1.477 1.291 0 2.562.214 3.812.641l-.968 2.781c-.907-.292-1.771-.438-2.594-.438-.834 0-1.44.258-1.82.774-.381.516-.571 1.289-.571 2.32v1.125h4.219v2.781h-4.219v14.5h-3.687v-14.5h-2.844v-1.718l2.844-1.125v-1.125Zm12.609-2.657h2.266v3.844h4.922v2.781h-4.922v9.25c0 .886.221 1.54.664 1.961.442.422 1.023.633 1.742.633.896 0 1.791-.14 2.687-.422v2.766c-.406.177-.929.325-1.57.445-.64.12-1.305.18-1.992.18-3.479 0-5.219-1.833-5.219-5.5v-9.313h-2.359v-1.625l2.531-1.343 1.25-3.657Zm20.984-2.781c.646 0 1.149.177 1.508.531.36.355.539.86.539 1.516 0 .625-.179 1.117-.539 1.477-.359.359-.862.539-1.508.539-.666 0-1.179-.18-1.539-.539-.359-.36-.539-.852-.539-1.477 0-.656.18-1.161.539-1.516.36-.354.873-.531 1.539-.531Zm1.813 23.906h-3.672V67.412h3.672v17.281Zm8.641-15.015h.187c.479-.823 1.174-1.458 2.086-1.906.911-.448 1.914-.672 3.008-.672 2.656 0 4.416.906 5.281 2.718h.25c.51-.854 1.229-1.52 2.156-2 .927-.479 1.99-.718 3.188-.718 2.062 0 3.565.521 4.508 1.562.942 1.042 1.414 2.631 1.414 4.766v11.265h-3.672V74.037c0-1.323-.253-2.31-.758-2.961-.505-.651-1.289-.976-2.352-.976-1.427 0-2.471.445-3.132 1.336-.662.89-.993 2.257-.993 4.101v9.156h-3.687V74.037c0-1.323-.25-2.31-.75-2.961-.5-.651-1.281-.976-2.344-.976-1.417 0-2.456.461-3.117 1.383-.662.921-.992 2.455-.992 4.601v8.609h-3.672V67.412h2.875l.516 2.266Zm41.046 12.172c1.479 0 2.571-.282 3.274-.844.703-.563 1.055-1.318 1.055-2.266 0-.854-.323-1.578-.969-2.172-.646-.593-1.979-1.296-4-2.109-2.084-.844-3.552-1.807-4.406-2.891-.855-1.083-1.282-2.385-1.282-3.906 0-1.906.677-3.406 2.032-4.5 1.354-1.094 3.171-1.64 5.453-1.64 2.187 0 4.364.479 6.531 1.437l-1.188 3.047c-2.031-.854-3.843-1.281-5.437-1.281-1.209 0-2.125.263-2.75.789s-.938 1.221-.938 2.086c0 .593.125 1.101.375 1.523.25.422.662.82 1.235 1.195.573.375 1.604.87 3.094 1.485 1.677.698 2.906 1.349 3.687 1.953.781.604 1.354 1.287 1.719 2.047.364.76.547 1.656.547 2.687 0 2.032-.735 3.625-2.203 4.782-1.469 1.156-3.495 1.734-6.079 1.734-2.583 0-4.698-.401-6.343-1.203v-3.531c1.041.489 2.148.875 3.32 1.156 1.172.281 2.263.422 3.273.422Zm19.329-14.75c1.822 0 3.463.338 4.921 1.015l-1.109 2.953c-1.552-.604-2.833-.906-3.844-.906-2.989 0-4.484 1.985-4.484 5.953 0 1.938.372 3.394 1.117 4.368.745.974 1.836 1.46 3.274 1.46a9.394 9.394 0 0 0 4.64-1.218v3.203a7.275 7.275 0 0 1-2.101.828c-.745.166-1.649.25-2.711.25-2.615 0-4.602-.763-5.961-2.289-1.36-1.526-2.039-3.716-2.039-6.57 0-2.907.711-5.141 2.133-6.704 1.421-1.562 3.476-2.343 6.164-2.343Zm12.25-.547c0 .99-.063 2.047-.188 3.172h.234a5.104 5.104 0 0 1 2.086-1.938c.891-.458 1.93-.687 3.118-.687 4.187 0 6.281 2.109 6.281 6.328v11.265h-3.688V74.068c0-1.333-.268-2.328-.804-2.984-.537-.656-1.389-.984-2.555-.984-1.542 0-2.675.461-3.398 1.383-.725.921-1.086 2.466-1.086 4.632v8.578h-3.672V60.381h3.672v6.172Z" clip-rule="evenodd"/></svg>