<svg xmlns="http://www.w3.org/2000/svg" width="316" height="106" fill="none"><path fill="#fff" fill-rule="evenodd" d="M304.436 16.968c.049 1.605.483 2.839 1.301 3.701.817.863 1.969 1.294 3.454 1.294.978 0 1.887-.092 2.73-.277.842-.184 1.747-.491 2.714-.92v2.857c-.857.409-1.725.698-2.602.867-.877.17-1.879.255-3.006.255-2.572 0-4.584-.75-6.035-2.251-1.45-1.501-2.176-3.567-2.176-6.199 0-2.702.673-4.826 2.019-6.371 1.346-1.546 3.196-2.319 5.549-2.319 2.183 0 3.908.664 5.175 1.99 1.266 1.326 1.899 3.15 1.899 5.473v1.9h-11.022Zm6.58-5.646c-.638-.703-1.516-1.054-2.632-1.054-1.117 0-2.012.354-2.685 1.061-.673.708-1.074 1.74-1.204 3.096h7.508c-.02-1.366-.349-2.4-.987-3.103Zm-14.462.321c.169.509.254 1.047.254 1.616 0 1.705-.588 3.046-1.765 4.023-1.176.977-2.796 1.465-4.86 1.465a7.864 7.864 0 0 1-1.436-.119c-.758.469-1.137 1.017-1.137 1.645 0 .379.177.663.531.852.354.19 1.005.285 1.952.285h2.887c1.824 0 3.21.388 4.157 1.166.947.778 1.421 1.899 1.421 3.365 0 1.874-.773 3.32-2.318 4.337-1.546 1.017-3.779 1.526-6.7 1.526-2.254 0-3.974-.399-5.16-1.197-1.187-.798-1.78-1.934-1.78-3.41 0-1.017.322-1.872.965-2.565.643-.692 1.543-1.174 2.699-1.443a2.644 2.644 0 0 1-1.159-.964c-.304-.444-.456-.91-.456-1.399 0-.618.175-1.141.524-1.57.349-.429.867-.853 1.555-1.271-.858-.369-1.553-.97-2.086-1.802-.534-.833-.8-1.808-.8-2.924 0-1.795.565-3.186 1.697-4.173 1.132-.987 2.744-1.481 4.838-1.481.469 0 .96.033 1.473.098.514.065.9.132 1.159.202h5.728v1.929l-2.826.523c.259.349.473.778.643 1.286Zm-9.923 13.453c-.593.474-.89 1.114-.89 1.922 0 .757.341 1.341 1.024 1.75.683.408 1.643.613 2.879.613 1.915 0 3.34-.274 4.278-.823.937-.548 1.406-1.276 1.406-2.183 0-.718-.257-1.229-.771-1.533-.513-.304-1.468-.456-2.864-.456h-2.662c-1.007 0-1.807.236-2.4.71Zm6.012-14.357c-.504-.584-1.269-.875-2.296-.875-1.017 0-1.787.289-2.31.867-.524.579-.785 1.421-.785 2.528 0 1.037.266 1.834.8 2.393.533.558 1.298.837 2.295.837 2.034 0 3.051-1.087 3.051-3.26 0-1.077-.252-1.907-.755-2.49Zm-14.634-5.287c-.638 0-1.129-.172-1.473-.516-.344-.344-.516-.815-.516-1.413 0-.629.172-1.112.516-1.451.344-.339.835-.509 1.473-.509.618 0 1.099.17 1.443.509.344.339.516.822.516 1.451 0 .598-.172 1.069-.516 1.413-.344.344-.825.516-1.443.516Zm-17.917 16.825 8.36-11.68h-7.851V7.905h11.8v2.452l-8.181 11.396h8.42v2.693h-12.548v-2.169Zm-6.924-8.001c0-1.276-.257-2.229-.771-2.857-.513-.628-1.328-.942-2.445-.942-1.486 0-2.572.439-3.26 1.316-.688.877-1.032 2.348-1.032 4.412v8.241h-3.515V7.905h2.752l.494 2.168h.179c.499-.787 1.206-1.396 2.124-1.824.917-.429 1.934-.644 3.051-.644 3.968 0 5.952 2.019 5.952 6.057v10.784h-3.529v-10.17Zm-5.609 31.266-1.136 2.647c-1.785-.738-3.286-1.107-4.502-1.107-1.855 0-2.782.529-2.782 1.586 0 .518.242.957.725 1.316.484.359 1.538.852 3.164 1.48 1.365.529 2.357 1.013 2.976 1.451.618.439 1.077.945 1.376 1.518.299.574.448 1.259.448 2.057 0 1.615-.588 2.854-1.764 3.716-1.177.863-2.862 1.294-5.055 1.294-2.204 0-3.974-.334-5.31-1.002v-3.036c1.945.897 3.754 1.346 5.429 1.346 2.164 0 3.246-.653 3.246-1.96 0-.418-.12-.767-.359-1.046-.24-.279-.634-.569-1.182-.868-.548-.299-1.311-.638-2.288-1.017-1.905-.738-3.193-1.475-3.866-2.213s-1.01-1.695-1.01-2.872c0-1.415.571-2.515 1.713-3.297 1.141-.783 2.694-1.175 4.659-1.175 1.944 0 3.783.394 5.518 1.182Zm-12.174-40.09c-.638 0-1.129-.172-1.473-.516-.344-.344-.516-.815-.516-1.413 0-.629.172-1.112.516-1.451.344-.339.835-.509 1.473-.509.618 0 1.099.17 1.443.509.344.339.516.822.516 1.451 0 .598-.172 1.069-.516 1.413-.344.344-.825.516-1.443.516Zm-12.383 51.972c.817.863 1.969 1.294 3.455 1.294.977 0 1.886-.092 2.729-.277.843-.184 1.747-.491 2.715-.92v2.857c-.858.409-1.725.698-2.603.867-.877.17-1.879.255-3.006.255-2.572 0-4.584-.75-6.034-2.251-1.451-1.501-2.176-3.567-2.176-6.199 0-2.702.673-4.826 2.019-6.371 1.346-1.546 3.195-2.319 5.548-2.319 2.184 0 3.908.664 5.175 1.99 1.266 1.326 1.899 3.15 1.899 5.473v1.9h-11.022c.05 1.605.483 2.839 1.301 3.701Zm6.266-6.244c-.02-1.366-.349-2.4-.987-3.103-.638-.703-1.515-1.054-2.632-1.054-1.117 0-2.011.354-2.684 1.061-.673.709-1.075 1.74-1.204 3.096h7.507Zm-9.377-30.511c.818.863 1.969 1.294 3.455 1.294.977 0 1.887-.092 2.729-.277.843-.184 1.748-.491 2.715-.92v2.857a10.77 10.77 0 0 1-2.602.867c-.878.17-1.88.255-3.007.255-2.572 0-4.583-.75-6.034-2.251-1.451-1.501-2.176-3.567-2.176-6.199 0-2.702.673-4.826 2.019-6.371 1.346-1.546 3.195-2.319 5.548-2.319 2.184 0 3.909.664 5.175 1.99s1.899 3.15 1.899 5.473v1.9H218.59c.05 1.605.484 2.839 1.301 3.701Zm6.267-6.244c-.02-1.366-.35-2.4-.987-3.103-.639-.703-1.516-1.054-2.633-1.054-1.116 0-2.011.354-2.684 1.061-.673.708-1.075 1.74-1.204 3.096h7.508Zm-15.48 44.607h-.164c-1.127 1.645-2.777 2.468-4.95 2.468-2.964 0-3.675-.748-4.831-2.244-1.157-1.495-1.735-3.594-1.735-6.296 0-2.712.586-4.823 1.757-6.334 1.172-1.51 2.795-2.266 4.868-2.266 2.174 0 3.829.803 4.966 2.408h.179c-.169-1.186-.254-2.123-.254-2.811V37.93h3.53v23.271h-2.752l-.614-2.169Zm0-6.042c0-2.084-.339-3.564-1.016-4.442-.679-.877-1.74-1.316-3.186-1.316-1.236 0-2.189.501-2.857 1.503-.668 1.002-1.002 2.43-1.002 4.285 0 1.834.324 3.233.973 4.195.648.962 1.62 1.443 2.916 1.443 1.445 0 2.497-.406 3.156-1.219.658-.812.996-2.131 1.016-3.956v-.493Zm-11.067-30.713h-.164c-1.127 1.645-2.777 2.468-4.951 2.468-2.063 0-3.674-.748-4.83-2.244-1.157-1.495-1.735-3.594-1.735-6.296 0-2.712.586-4.823 1.757-6.334 1.172-1.51 2.794-2.266 4.868-2.266 2.174 0 3.829.803 4.966 2.408h.179c-.17-1.186-.254-2.123-.254-2.811V1.174h3.529v23.272h-2.752l-.613-2.169Zm0-6.042c0-2.084-.339-3.565-1.017-4.442-.678-.877-1.74-1.316-3.185-1.316-1.237 0-2.189.501-2.857 1.503-.668 1.002-1.002 2.43-1.002 4.285 0 1.834.324 3.233.972 4.195.648.962 1.62 1.443 2.917 1.443 1.445 0 2.497-.406 3.155-1.219.658-.812.997-2.131 1.017-3.956v-.493Zm-10.992 31.55a6.681 6.681 0 0 0-1.556-.179c-1.405 0-2.545.459-3.417 1.376-.872.917-1.309 2.109-1.309 3.574v8.645h-3.514V44.66h2.752l.463 2.916h.18c.548-.987 1.264-1.77 2.146-2.348.882-.578 1.832-.868 2.849-.868.708 0 1.291.05 1.75.15l-.344 3.275Zm-8.121-33.509c0-1.276-.257-2.229-.77-2.857-.514-.628-1.329-.942-2.446-.942-1.485 0-2.572.439-3.26 1.316-.688.877-1.032 2.348-1.032 4.412v8.241h-3.514V7.905h2.751l.494 2.168h.179c.499-.787 1.207-1.396 2.124-1.824.917-.429 1.934-.644 3.051-.644 3.968 0 5.952 2.019 5.952 6.057v10.784h-3.529v-10.17ZM172.93 46.35c1.266 1.326 1.9 3.15 1.9 5.473v1.9h-11.023c.05 1.605.484 2.839 1.302 3.701.817.863 1.969 1.294 3.454 1.294.977 0 1.887-.092 2.73-.277.842-.184 1.747-.491 2.714-.92v2.857c-.857.409-1.725.698-2.602.867-.878.17-1.88.255-3.006.255-2.573 0-4.584-.75-6.035-2.251-1.451-1.501-2.176-3.567-2.176-6.199 0-2.702.673-4.826 2.019-6.371 1.346-1.546 3.196-2.319 5.549-2.319 2.183 0 3.908.664 5.174 1.99Zm-5.174.673c-1.117 0-2.012.354-2.685 1.061-.673.709-1.074 1.74-1.204 3.096h7.508c-.02-1.366-.349-2.4-.987-3.103-.638-.703-1.516-1.054-2.632-1.054Zm-6.551-24.746h-.179c-.489.768-1.184 1.371-2.087 1.81-.902.438-1.932.658-3.088.658-2.004 0-3.5-.499-4.487-1.496-.987-.997-1.48-2.507-1.48-4.532V7.905h3.544v10.199c0 1.267.259 2.216.778 2.849.518.634 1.331.95 2.438.95 1.475 0 2.559-.441 3.253-1.324.692-.882 1.039-2.36 1.039-4.434v-8.24h3.529v16.541h-2.766l-.494-2.169Zm-8.211 18.704v3.679h4.712v2.662h-4.712v8.853c0 .848.212 1.474.636 1.877.424.404.98.606 1.668.606.857 0 1.714-.134 2.572-.404v2.647c-.389.17-.89.312-1.503.427-.613.114-1.249.172-1.907.172-3.33 0-4.995-1.755-4.995-5.265v-8.913h-2.258v-1.556l2.422-1.286 1.197-3.499h2.168Zm-1.854 47.597v1.9h-11.022c.049 1.605.483 2.839 1.301 3.701.817.863 1.969 1.294 3.455 1.294.977 0 1.886-.092 2.729-.277.842-.184 1.747-.491 2.714-.919v2.856c-.857.409-1.725.698-2.602.867-.877.17-1.879.255-3.006.255-2.572 0-4.584-.75-6.035-2.251-1.45-1.501-2.176-3.567-2.176-6.199 0-2.702.673-4.826 2.019-6.371 1.346-1.546 3.196-2.318 5.549-2.318 2.183 0 3.908.663 5.175 1.989 1.266 1.326 1.899 3.15 1.899 5.473Zm-4.442-3.746c-.638-.703-1.516-1.054-2.632-1.054-1.117 0-2.012.354-2.685 1.062-.673.708-1.074 1.74-1.204 3.095h7.508c-.02-1.366-.349-2.4-.987-3.103Zm-5.683-25.935h-.12c-.797 1.008-1.6 1.693-2.408 2.057-.807.364-1.844.546-3.11.546-1.626 0-2.894-.439-3.807-1.316-.912-.878-1.368-2.119-1.368-3.724 0-1.705.633-2.992 1.899-3.859s3.196-1.341 5.788-1.421l2.857-.089v-.883c0-1.057-.247-1.847-.741-2.37-.493-.524-1.258-.785-2.295-.785-.848 0-1.66.124-2.438.373-.778.25-1.525.544-2.243.883l-1.137-2.513a12.236 12.236 0 0 1 2.946-1.069c1.067-.244 2.074-.367 3.021-.367 2.104 0 3.692.459 4.764 1.376 1.071.918 1.607 2.358 1.607 4.323v11.142h-2.512l-.703-2.304Zm-.299-5.593-2.124.09c-1.655.06-2.859.336-3.612.83-.753.493-1.129 1.249-1.129 2.266 0 .738.219 1.308.658 1.712.439.404 1.097.606 1.974.606 1.277 0 2.301-.357 3.074-1.07.772-.712 1.159-1.712 1.159-2.998v-1.436Zm-12.354-32.635c.818.863 1.969 1.294 3.455 1.294.977 0 1.887-.092 2.73-.277.842-.184 1.747-.491 2.714-.92v2.857a10.77 10.77 0 0 1-2.602.867c-.878.17-1.88.255-3.006.255-2.573 0-4.584-.75-6.035-2.251-1.451-1.501-2.176-3.567-2.176-6.199 0-2.702.673-4.826 2.019-6.371 1.346-1.546 3.195-2.319 5.549-2.319 2.183 0 3.908.664 5.174 1.99 1.266 1.326 1.9 3.15 1.9 5.473v1.9h-11.023c.05 1.605.484 2.839 1.301 3.701Zm6.267-6.244c-.02-1.366-.349-2.4-.987-3.103-.638-.703-1.516-1.054-2.632-1.054-1.117 0-2.012.354-2.685 1.061-.673.708-1.074 1.74-1.204 3.096h7.508Zm-7.254 37.398v1.9h-11.022c.05 1.605.484 2.839 1.301 3.701.818.863 1.969 1.294 3.455 1.294.977 0 1.887-.092 2.729-.277.843-.184 1.748-.491 2.715-.92v2.857a10.77 10.77 0 0 1-2.602.867c-.878.17-1.88.255-3.007.255-2.572 0-4.583-.75-6.034-2.251-1.451-1.501-2.176-3.567-2.176-6.199 0-2.702.673-4.826 2.019-6.371 1.346-1.546 3.195-2.319 5.548-2.319 2.184 0 3.909.664 5.175 1.99s1.899 3.15 1.899 5.473Zm-4.441-3.746c-.639-.703-1.516-1.054-2.633-1.054-1.116 0-2.011.354-2.684 1.061-.673.709-1.075 1.74-1.204 3.096h7.508c-.02-1.366-.349-2.4-.987-3.103Zm-3.313-23.504c-.613.114-1.249.172-1.907.172-3.33 0-4.995-1.755-4.995-5.265v-8.913h-2.258V9.011l2.422-1.286 1.197-3.5h2.168v3.68h4.711v2.662h-4.711v8.853c0 .848.212 1.474.636 1.877.424.404.98.606 1.668.606.857 0 1.714-.135 2.572-.404v2.647c-.389.17-.89.312-1.503.427Zm-6.244 55.645c0 .409-.02 1.017-.06 1.825-.04.807-.07 1.321-.09 1.54h.15c1.116-1.645 2.762-2.467 4.935-2.467 2.064 0 3.672.747 4.823 2.243 1.152 1.495 1.728 3.594 1.728 6.296 0 2.712-.583 4.823-1.75 6.334-1.166 1.51-2.787 2.266-4.861 2.266-2.093 0-3.719-.753-4.875-2.259h-.239l-.643 1.96h-2.633V74.685h3.515v5.533Zm0 9.437c0 2.014.319 3.473.957 4.375.638.902 1.68 1.353 3.126 1.353 1.246 0 2.191-.493 2.834-1.48.643-.987.965-2.413.965-4.278 0-3.758-1.287-5.638-3.859-5.638-1.416 0-2.435.416-3.058 1.249-.624.832-.945 2.226-.965 4.18v.239Zm-8.076-38.624c0-1.276-.257-2.229-.77-2.857-.514-.628-1.329-.942-2.446-.942-1.475 0-2.56.441-3.252 1.324-.694.882-1.04 2.36-1.04 4.434v8.211h-3.514V37.93h3.514v5.907c0 .947-.06 1.959-.179 3.036h.224a4.872 4.872 0 0 1 1.997-1.854c.852-.439 1.847-.659 2.983-.659 4.008 0 6.012 2.02 6.012 6.058v10.783h-3.529v-10.17Zm-1.511-36.322c1.366.529 2.358 1.012 2.976 1.451.619.439 1.077.945 1.376 1.518.3.574.449 1.259.449 2.056 0 1.616-.588 2.855-1.765 3.717-1.176.862-2.861 1.294-5.055 1.294-2.203 0-3.973-.334-5.309-1.002v-3.036c1.944.897 3.754 1.346 5.429 1.346 2.163 0 3.245-.653 3.245-1.96 0-.418-.119-.767-.359-1.046-.239-.28-.633-.569-1.181-.868-.549-.299-1.311-.638-2.288-1.017-1.905-.738-3.193-1.475-3.866-2.213s-1.01-1.695-1.01-2.872c0-1.415.571-2.515 1.713-3.298 1.141-.782 2.694-1.174 4.658-1.174 1.944 0 3.784.394 5.519 1.182l-1.137 2.647c-1.785-.738-3.285-1.107-4.501-1.107-1.855 0-2.782.529-2.782 1.586 0 .518.241.957.725 1.316.484.359 1.538.852 3.163 1.48Zm-11.276-3.858c-1.406 0-2.545.459-3.418 1.376-.872.917-1.308 2.108-1.308 3.574v8.645h-3.515V7.905h2.752l.464 2.916h.179c.548-.987 1.264-1.77 2.146-2.348.883-.578 1.832-.868 2.849-.868.708 0 1.291.05 1.75.15l-.344 3.275a6.68 6.68 0 0 0-1.555-.179ZM86.098 44.66h4.711v2.662h-4.711v8.853c0 .848.211 1.474.635 1.877.424.404.98.606 1.668.606a8.52 8.52 0 0 0 2.572-.404v2.647c-.389.17-.89.312-1.503.427-.613.114-1.249.172-1.907.172-3.33 0-4.995-1.755-4.995-5.265v-8.913H80.31v-1.556l2.423-1.286 1.196-3.499h2.169v3.679ZM70.559 20.669c.817.863 1.969 1.294 3.455 1.294.977 0 1.886-.092 2.729-.277.842-.184 1.747-.491 2.714-.92v2.857c-.857.409-1.725.698-2.602.867-.877.17-1.879.255-3.006.255-2.572 0-4.584-.75-6.035-2.251-1.45-1.501-2.176-3.567-2.176-6.199 0-2.702.673-4.826 2.019-6.371 1.346-1.546 3.196-2.319 5.549-2.319 2.184 0 3.908.664 5.175 1.99 1.266 1.326 1.899 3.15 1.899 5.473v1.9H69.258c.049 1.605.483 2.839 1.301 3.701Zm6.266-6.244c-.02-1.366-.349-2.4-.987-3.103-.638-.703-1.515-1.054-2.632-1.054-1.117 0-2.012.354-2.685 1.061-.673.708-1.074 1.74-1.204 3.096h7.508Zm-6.461 66.691c.708 0 1.291.05 1.75.149l-.344 3.275a6.673 6.673 0 0 0-1.555-.179c-1.406 0-2.545.459-3.418 1.376-.872.917-1.308 2.109-1.308 3.574v8.645h-3.515V81.415h2.752l.464 2.916h.179c.548-.987 1.264-1.77 2.146-2.348.883-.578 1.832-.867 2.849-.867Zm-9.825-19.915-5.31-7.254-1.929 1.585v5.669h-3.485V37.93H53.3v11.351l-.179 3.185h.089l1.989-2.482 4.996-5.324h4.053l-6.656 7.104 7.074 9.437h-4.127ZM50.07 14.709c1.365.529 2.357 1.012 2.976 1.451.618.439 1.077.945 1.376 1.518.299.574.448 1.259.448 2.056 0 1.616-.588 2.855-1.764 3.717-1.177.862-2.862 1.294-5.055 1.294-2.204 0-3.974-.334-5.31-1.002v-3.036c1.945.897 3.754 1.346 5.429 1.346 2.164 0 3.246-.653 3.246-1.96 0-.418-.12-.767-.359-1.046-.24-.28-.634-.569-1.182-.868-.548-.299-1.311-.638-2.288-1.017-1.905-.738-3.193-1.475-3.866-2.213s-1.01-1.695-1.01-2.872c0-1.415.571-2.515 1.713-3.298 1.141-.782 2.694-1.174 4.658-1.174 1.945 0 3.784.394 5.519 1.182l-1.137 2.647c-1.784-.738-3.285-1.107-4.501-1.107-1.855 0-2.782.529-2.782 1.586 0 .518.242.957.725 1.316.484.359 1.538.852 3.164 1.48Zm-5.28 46.492h-3.514V37.93h3.514v23.271Zm-9.153-39.059h-.119c-.798 1.008-1.601 1.693-2.408 2.057-.808.364-1.845.546-3.111.546-1.625 0-2.894-.439-3.806-1.316-.912-.878-1.369-2.119-1.369-3.724 0-1.705.633-2.992 1.9-3.859 1.266-.867 3.195-1.341 5.788-1.421l2.856-.09v-.882c0-1.057-.247-1.847-.74-2.37-.494-.524-1.259-.786-2.296-.786a7.95 7.95 0 0 0-2.438.374c-.777.25-1.525.544-2.243.883l-1.137-2.513a12.26 12.26 0 0 1 2.947-1.069 13.566 13.566 0 0 1 3.021-.367c2.103 0 3.691.459 4.763 1.376 1.072.918 1.608 2.358 1.608 4.323v11.142H36.34l-.703-2.304Zm-.299-5.593-2.123.09c-1.656.059-2.86.336-3.612.83-.753.493-1.129 1.248-1.129 2.265 0 .738.219 1.309.658 1.713.438.404 1.096.606 1.974.606 1.276 0 2.3-.357 3.073-1.07.773-.712 1.159-1.712 1.159-2.998v-1.436ZM29.461 44.36c2.393 0 4.287.771 5.683 2.311 1.396 1.541 2.094 3.617 2.094 6.229 0 2.702-.694 4.811-2.079 6.326-1.386 1.516-3.316 2.274-5.788 2.274-1.546 0-2.912-.349-4.098-1.047-1.187-.698-2.099-1.7-2.737-3.006-.638-1.306-.957-2.822-.957-4.547 0-2.682.688-4.776 2.064-6.281 1.376-1.506 3.315-2.259 5.818-2.259Zm-.03 14.268c2.791 0 4.187-1.909 4.187-5.728 0-3.778-1.406-5.668-4.217-5.668-1.476 0-2.545.489-3.208 1.466-.663.977-.995 2.378-.995 4.202 0 3.819 1.411 5.728 4.233 5.728ZM10.003 24.446H3.886V2.58h6.76c3.48 0 6.187.938 8.121 2.812 1.935 1.875 2.902 4.512 2.902 7.912 0 3.609-1.002 6.368-3.006 8.277-2.004 1.91-4.891 2.865-8.66 2.865Zm.554-18.875H7.461v15.868h2.542c5.265 0 7.897-2.672 7.897-8.016 0-5.234-2.448-7.852-7.343-7.852ZM9.241 52.93c.239.648.493 1.483.762 2.505.27 1.022.444 1.782.524 2.281.129-.758.329-1.635.598-2.632.269-.997.488-1.735.658-2.214l4.562-13.535h3.709l-7.658 21.866H8.627L1 39.335h3.679L9.241 52.93Zm7.089 24.746c1.355 1.057 2.034 2.652 2.034 4.786 0 2.721-1.416 4.661-4.248 5.817l6.177 9.677h-4.068l-5.235-8.734H7.461v8.734H3.886V76.09h6.177c2.822 0 4.911.529 6.267 1.586Zm-8.869 1.435v7.149h2.482c1.665 0 2.872-.309 3.62-.927.748-.618 1.121-1.535 1.121-2.752 0-1.236-.403-2.124-1.211-2.662-.808-.538-2.024-.808-3.649-.808H7.461Zm19.023 12.503c0 1.267.26 2.216.778 2.849.518.634 1.331.95 2.438.95 1.475 0 2.56-.441 3.253-1.323.693-.883 1.039-2.361 1.039-4.435v-8.24h3.53v16.541h-2.767l-.494-2.169h-.179c-.489.768-1.184 1.371-2.086 1.81-.903.438-1.932.658-3.089.658-2.004 0-3.499-.499-4.486-1.496-.987-.997-1.481-2.507-1.481-4.531V81.415h3.544v10.199Zm19.562-11.022c0 .947-.059 1.959-.179 3.036h.224a4.879 4.879 0 0 1 1.997-1.854c.852-.439 1.847-.658 2.984-.658 4.008 0 6.012 2.019 6.012 6.057v10.783h-3.53v-10.17c0-1.276-.257-2.229-.77-2.857-.514-.628-1.329-.942-2.445-.942-1.476 0-2.56.441-3.253 1.324-.693.882-1.04 2.36-1.04 4.434v8.211h-3.514V74.685h3.514v5.907ZM73.64 51.464c1.366.529 2.358 1.013 2.976 1.451.618.439 1.077.945 1.376 1.518.299.574.448 1.259.448 2.057 0 1.615-.588 2.854-1.764 3.716-1.177.863-2.862 1.294-5.055 1.294-2.204 0-3.974-.334-5.31-1.002v-3.036c1.945.897 3.754 1.346 5.429 1.346 2.164 0 3.246-.653 3.246-1.96 0-.418-.12-.767-.359-1.046-.24-.279-.634-.569-1.182-.868-.548-.299-1.311-.638-2.288-1.017-1.904-.738-3.193-1.475-3.866-2.213s-1.01-1.695-1.01-2.872c0-1.415.571-2.515 1.713-3.297 1.141-.783 2.694-1.175 4.659-1.175 1.944 0 3.783.394 5.518 1.182l-1.136 2.647c-1.785-.738-3.286-1.107-4.502-1.107-1.855 0-2.782.529-2.782 1.586 0 .518.242.957.726 1.316.483.359 1.537.852 3.163 1.48Zm3.036 45.235a2.639 2.639 0 0 1-1.159-.964c-.305-.444-.457-.91-.457-1.399 0-.618.175-1.141.524-1.57.349-.429.867-.852 1.555-1.271-.857-.369-1.553-.97-2.086-1.802-.533-.833-.8-1.807-.8-2.924 0-1.795.566-3.186 1.697-4.173 1.132-.987 2.745-1.48 4.838-1.48.469 0 .96.032 1.474.097a9.31 9.31 0 0 1 1.159.202h5.728v1.929l-2.827.523c.259.35.474.778.643 1.287.17.508.254 1.046.254 1.615 0 1.705-.588 3.046-1.764 4.023-1.177.977-2.797 1.466-4.861 1.466a7.86 7.86 0 0 1-1.436-.12c-.758.469-1.136 1.017-1.136 1.645 0 .379.177.663.531.852.353.19 1.004.285 1.951.285h2.887c1.824 0 3.21.388 4.157 1.166.948.778 1.421 1.9 1.421 3.365 0 1.875-.773 3.32-2.318 4.337s-3.779 1.526-6.7 1.526c-2.253 0-3.973-.399-5.16-1.197-1.186-.797-1.779-1.934-1.779-3.41 0-1.017.321-1.872.964-2.564.643-.693 1.543-1.174 2.7-1.444Zm1.787-7.537c.533.558 1.298.837 2.296.837 2.034 0 3.051-1.086 3.051-3.26 0-1.077-.252-1.907-.756-2.49-.503-.584-1.269-.875-2.295-.875-1.017 0-1.788.289-2.311.867-.524.579-.785 1.421-.785 2.528 0 1.037.266 1.834.8 2.393Zm-1.286 13.116c.683.409 1.642.613 2.879.613 1.914 0 3.34-.274 4.277-.823.937-.548 1.406-1.276 1.406-2.183 0-.718-.257-1.229-.77-1.533-.514-.304-1.469-.456-2.864-.456h-2.663c-1.007 0-1.807.237-2.4.71-.593.474-.89 1.114-.89 1.922 0 .758.342 1.341 1.025 1.75Zm21.618-21.162c2.184 0 3.908.663 5.175 1.989 1.266 1.326 1.899 3.15 1.899 5.473v1.9H94.847c.05 1.605.483 2.839 1.301 3.701.817.863 1.969 1.294 3.455 1.294.977 0 1.886-.092 2.729-.277.843-.184 1.747-.491 2.715-.919v2.856c-.858.409-1.725.698-2.603.867-.877.17-1.879.255-3.006.255-2.572 0-4.584-.75-6.034-2.251-1.451-1.501-2.176-3.567-2.176-6.199 0-2.702.673-4.826 2.019-6.371 1.346-1.546 3.195-2.318 5.548-2.318Zm3.619 6.819c-.02-1.366-.349-2.4-.987-3.103-.638-.703-1.515-1.054-2.632-1.054-1.117 0-2.011.354-2.684 1.062-.673.708-1.075 1.74-1.204 3.095h7.507Zm28.311-12.862c.619 0 1.1.17 1.444.509.344.339.516.823.516 1.451 0 .598-.172 1.069-.516 1.413-.344.344-.825.516-1.444.516-.638 0-1.129-.172-1.473-.516-.344-.344-.516-.815-.516-1.413 0-.628.172-1.112.516-1.451.344-.339.835-.509 1.473-.509Zm1.735 22.883h-3.514V81.415h3.514v16.541Zm24.363-20.22h2.169v3.679h4.711v2.662h-4.711v8.854c0 .847.211 1.473.635 1.876.424.404.98.606 1.668.606a8.52 8.52 0 0 0 2.572-.404v2.648c-.389.169-.89.311-1.503.426-.613.114-1.249.172-1.907.172-3.33 0-4.995-1.755-4.995-5.265v-8.913h-2.258v-1.556l2.423-1.286 1.196-3.499Zm16.466 13.953c-.548-.299-1.311-.638-2.288-1.017-1.904-.738-3.193-1.475-3.866-2.213s-1.009-1.695-1.009-2.872c0-1.415.57-2.515 1.712-3.297 1.142-.783 2.694-1.174 4.659-1.174 1.944 0 3.783.394 5.518 1.181l-1.136 2.647c-1.785-.738-3.286-1.107-4.502-1.107-1.854 0-2.782.529-2.782 1.586 0 .518.242.957.726 1.316.483.359 1.537.852 3.163 1.48 1.366.529 2.358 1.013 2.976 1.451.618.439 1.077.945 1.376 1.518.299.574.449 1.259.449 2.057 0 1.615-.589 2.854-1.765 3.716-1.177.863-2.862 1.294-5.055 1.294-2.204 0-3.974-.334-5.31-1.002v-3.036c1.945.897 3.754 1.346 5.429 1.346 2.164 0 3.246-.653 3.246-1.959 0-.419-.12-.768-.359-1.047-.239-.279-.633-.569-1.182-.868Zm9.228-.374-.778-15.225h4.143l-.763 15.225h-2.602Zm1.286 2.513c.708 0 1.251.199 1.63.598.379.399.569.952.569 1.66s-.192 1.269-.576 1.683c-.384.413-.925.62-1.623.62-.708 0-1.259-.199-1.652-.598-.394-.399-.591-.967-.591-1.705 0-.738.194-1.298.583-1.682.389-.384.942-.576 1.66-.576Zm53.317-69.382h-3.514V7.905h3.514v16.541Zm42.624 0h-3.515V7.905h3.515v16.541Z" clip-rule="evenodd"/></svg>