<svg xmlns="http://www.w3.org/2000/svg" width="321" height="71" fill="none"><path fill="#FC0" d="M0 0h321v71H0z"/><path fill="#052453" fill-rule="evenodd" d="m44 54 25-25-3-3s-2.5 2.5-5 0 0-5 0-5l-3-3-4.168 4.168.831.832-.663.663-.832-.831L33 43l3 3s2.5-1.5 4.5.5.5 4.5.5 4.5l3 3Zm11-29.337.663-.663 2 2-.663.663-2-2ZM58.663 27l-.663.663 2 2 .663-.663-2-2ZM61 30.663l.663-.663 2 2-.663.663-2-2ZM283.671 46.517v-9.841c0-1.235-.248-2.157-.745-2.764-.497-.608-1.286-1.812-2.366-1.812-1.438 0-2.489 1.325-3.155 2.173-.666.85-.999 2.273-.999 4.27v7.974h-3.401V30.511h2.663l.478 2.098h.173c.483-.762 1.168-1.35 2.055-1.765.888-.415 1.872-.623 2.953-.623 3.84 0 5.76 1.954 5.76 5.861v10.435h-3.416Zm-15.47-13.155c-1.361 0-2.463.444-3.307 1.331-.845.888-1.267 2.041-1.267 3.459v8.365h-3.4V30.511h2.662l.449 2.822h.174c.53-.955 1.223-1.713 2.076-2.272a4.934 4.934 0 0 1 2.757-.84c.685 0 1.25.049 1.694.145l-.333 3.169a6.472 6.472 0 0 0-1.505-.173Zm-21.245 9.501c.791.834 1.905 1.251 3.343 1.251.945 0 1.825-.089 2.641-.267.815-.179 1.691-.475 2.627-.89v2.764c-.83.396-1.67.675-2.519.839-.849.164-1.818.246-2.908.246-2.49 0-4.436-.726-5.84-2.178s-2.106-3.451-2.106-5.998c0-2.615.652-4.67 1.954-6.166 1.303-1.495 3.092-2.243 5.369-2.243 2.113 0 3.782.642 5.008 1.925 1.225 1.283 1.837 3.049 1.837 5.297v1.838h-10.665c.048 1.553.467 2.747 1.259 3.582Zm6.063-6.042c-.019-1.322-.337-2.323-.955-3.003-.617-.681-1.466-1.021-2.547-1.021-1.08 0-1.946.343-2.597 1.028-.652.685-1.04 1.684-1.165 2.996h7.264Zm-18.017-.145c0-1.235-.249-2.157-.745-2.764-.498-.608-1.286-1.812-2.367-1.812-1.428 0-2.477 1.327-3.147 2.181-.671.854-1.006 2.284-1.006 4.291v7.945h-3.401V23.998h3.401v5.717c0 .916-.058 1.896-.174 2.938h.217a4.724 4.724 0 0 1 1.932-1.795c.825-.424 1.788-.637 2.887-.637 3.879 0 5.818 1.954 5.818 5.861v10.435h-3.415v-9.841Zm-18.64-3.618c-2.769 0-4.154 1.838-4.154 5.514 0 1.794.345 3.143 1.035 4.045.69.902 1.701 1.353 3.032 1.353a8.704 8.704 0 0 0 4.298-1.129v2.967a6.742 6.742 0 0 1-1.946.767c-.69.154-1.527.231-2.511.231-2.422 0-4.262-.706-5.521-2.12-1.259-1.413-1.889-3.442-1.889-6.085 0-2.692.659-4.762 1.976-6.209s3.22-2.171 5.709-2.171c1.688 0 3.208.314 4.559.941l-1.028 2.735c-1.438-.559-2.624-.839-3.56-.839Zm-13.242-4.921c-.618 0-1.093-.166-1.426-.499-.332-.333-.499-.789-.499-1.368 0-.607.167-1.075.499-1.403.333-.328.808-.492 1.426-.492.598 0 1.064.164 1.397.492.332.328.499.796.499 1.403 0 .579-.167 1.035-.499 1.368-.333.333-.799.499-1.397.499Zm-10.044 8.958c1.322.512 2.282.98 2.88 1.404.598.425 1.042.915 1.332 1.469.289.555.434 1.218.434 1.99 0 1.563-.569 2.762-1.708 3.596-1.138.835-2.769 1.252-4.891 1.252-2.133 0-3.845-.323-5.138-.969v-2.938c1.881.868 3.633 1.302 5.253 1.302 2.094 0 3.141-.632 3.141-1.896 0-.405-.116-.742-.347-1.013-.232-.27-.613-.55-1.144-.839-.53-.289-1.269-.617-2.214-.984-1.843-.714-3.09-1.428-3.741-2.142-.651-.714-.977-1.64-.977-2.779 0-1.369.552-2.433 1.657-3.191 1.105-.757 2.607-1.136 4.508-1.136 1.882 0 3.662.382 5.34 1.144l-1.099 2.561c-1.728-.714-3.18-1.071-4.357-1.071-1.794 0-2.691.512-2.691 1.534 0 .502.234.926.702 1.274.467.347 1.488.825 3.06 1.432Zm-22.127 0c1.321.512 2.281.98 2.88 1.404.598.425 1.042.915 1.331 1.469.29.555.434 1.218.434 1.99 0 1.563-.569 2.762-1.707 3.596-1.139.835-2.77 1.252-4.892 1.252-2.132 0-3.845-.323-5.138-.969v-2.938c1.882.868 3.633 1.302 5.254 1.302 2.093 0 3.14-.632 3.14-1.896 0-.405-.116-.742-.347-1.013-.232-.27-.613-.55-1.143-.839-.531-.289-1.269-.617-2.215-.984-1.843-.714-3.089-1.428-3.741-2.142-.651-.714-.977-1.64-.977-2.779 0-1.369.553-2.433 1.658-3.191 1.104-.757 2.607-1.136 4.508-1.136 1.881 0 3.661.382 5.34 1.144l-1.1 2.561c-1.727-.714-3.179-1.071-4.356-1.071-1.795 0-2.692.512-2.692 1.534 0 .502.234.926.702 1.274.468.347 1.488.825 3.061 1.432Zm-12.605 9.711c-3.223 0-4.834-1.698-4.834-5.094v-8.625h-2.185v-1.505l2.344-1.245 1.158-3.386h2.098v3.56h4.559v2.576h-4.559v8.567c0 .82.205 1.426.615 1.816.41.391.948.587 1.614.587.83 0 1.659-.131 2.489-.391v2.561c-.376.165-.861.302-1.454.413-.594.111-1.209.166-1.845.166Zm-18.423-3.943c.791.834 1.905 1.251 3.343 1.251.945 0 1.826-.089 2.641-.267.815-.179 1.691-.475 2.627-.89v2.764c-.83.396-1.67.675-2.519.839-.849.164-1.818.246-2.908.246-2.49 0-4.436-.726-5.84-2.178s-2.106-3.451-2.106-5.998c0-2.615.652-4.67 1.954-6.166 1.303-1.495 3.092-2.243 5.369-2.243 2.113 0 3.782.642 5.008 1.925 1.225 1.283 1.838 3.049 1.838 5.297v1.838h-10.666c.048 1.553.468 2.747 1.259 3.582Zm6.064-6.042c-.02-1.322-.338-2.323-.956-3.003-.617-.681-1.466-1.021-2.547-1.021-1.08 0-1.946.343-2.597 1.028-.652.685-1.04 1.684-1.165 2.996h7.265Zm-16.441 9.696-5.137-7.019-1.867 1.534v5.485h-3.372V23.998h3.372v10.985l-.174 3.082h.087l1.925-2.402 4.833-5.152h3.922l-6.44 6.874 6.846 9.132h-3.995Zm-18.35-13.459c-2.769 0-4.154 1.838-4.154 5.514 0 1.794.345 3.143 1.035 4.045.69.902 1.701 1.353 3.032 1.353a8.704 8.704 0 0 0 4.298-1.129v2.967a6.742 6.742 0 0 1-1.946.767c-.69.154-1.527.231-2.511.231-2.422 0-4.262-.706-5.521-2.12-1.259-1.413-1.889-3.442-1.889-6.085 0-2.692.659-4.762 1.976-6.209s3.22-2.171 5.709-2.171c1.688 0 3.208.314 4.558.941l-1.027 2.735c-1.438-.559-2.624-.839-3.56-.839Zm-13.242-4.921c-.618 0-1.093-.166-1.426-.499-.332-.333-.499-.789-.499-1.368 0-.607.167-1.075.499-1.403.333-.328.808-.492 1.426-.492.598 0 1.064.164 1.396.492.333.328.5.796.5 1.403 0 .579-.167 1.035-.5 1.368-.332.333-.798.499-1.396.499Zm-10.825 18.38h-3.459V28.325h-6.223v-2.966H93.35v2.966h-6.223v18.192Zm12.504 0H96.23V30.511h3.401v16.006Zm105.168 0h-3.401V30.511h3.401v16.006Z" clip-rule="evenodd"/></svg>