<svg xmlns="http://www.w3.org/2000/svg" width="460" height="54" fill="none"><path fill="#fff" fill-rule="evenodd" d="M444.47 40.183v-.936h2.132v-16.9c0-4.42-.624-4.94-1.924-4.94-2.184 0-4.212 3.276-4.212 7.488v14.352h2.236v.936h-14.769v-.936h2.86V2.118h-2.86v-.936h12.533v19.033c.884-2.6 2.6-5.304 7.748-5.304 4.836 0 8.06 2.392 8.06 8.684v15.652h2.912v.936H444.47Zm-25.584-1.248c4.732 0 6.76-4.004 7.332-6.812l.936.104c-.676 3.224-2.392 8.477-11.076 8.477-8.008 0-12.48-4.473-12.48-12.585 0-8.736 5.304-13.208 13.884-13.208 6.344 0 9.516 2.704 9.516 6.604 0 3.224-1.716 4.888-4.316 4.888-2.704 0-4.628-1.404-4.628-4.316 0-.468.052-1.144.26-1.872h1.716c.26-.728.364-1.352.364-1.872 0-1.768-1.04-2.496-2.496-2.496-3.016 0-4.264 3.016-4.264 10.764v2.704c0 6.656 1.196 9.62 5.252 9.62Zm-32.032.312h2.86v-22.88h-3.068v-.936h12.741v23.816h2.912v.936h-15.445v-.936Zm7.749-27.405c-4.213 0-5.201-2.652-5.201-4.836 0-2.548 1.404-4.836 5.305-4.836 3.224 0 5.148 1.612 5.148 4.784 0 2.756-1.508 4.888-5.252 4.888Zm-24.18 27.405h2.86V2.118h-3.068v-.936h12.74v38.065h2.912v.936h-15.444v-.936Zm-15.236 0h2.393l-5.877-12.064-.988.26v11.804h2.392v.936h-14.924v-.936h2.86V2.118h-3.068v-.936h12.74v25.221l.832-.312 11.701-9.724h-4.888v-.936h10.244v.936h-3.64l-6.188 5.252 8.996 17.628h1.872v.936h-14.457v-.936Zm-26.051-.312c4.732 0 6.76-4.004 7.332-6.812l.936.104c-.676 3.224-2.392 8.477-11.076 8.477-8.009 0-12.481-4.473-12.481-12.585 0-8.736 5.304-13.208 13.885-13.208 6.344 0 9.516 2.704 9.516 6.604 0 3.224-1.716 4.888-4.316 4.888-2.704 0-4.628-1.404-4.628-4.316 0-.468.052-1.144.26-1.872h1.716c.26-.728.364-1.352.364-1.872 0-1.768-1.04-2.496-2.496-2.496-3.016 0-4.264 3.016-4.264 10.764v2.704c0 6.656 1.196 9.62 5.252 9.62Zm-29.016-2.548c-.988 2.444-2.652 4.317-7.332 4.317-4.836 0-8.06-2.393-8.06-8.685V16.367h-2.913v-.936H294.4v17.836c0 4.42.624 5.096 1.924 5.096 2.08 0 3.692-2.132 3.692-6.084V16.367h-2.392v-.936h12.065v23.816h2.86v.936h-11.857l-.572-3.796Zm1.716-25.221c-2.912 0-3.9-2.028-3.9-3.9 0-2.028 1.352-3.796 3.848-3.796 2.236 0 3.9 1.196 3.9 3.796 0 2.288-1.352 3.9-3.848 3.9Zm-10.036 0c-2.912 0-3.9-2.028-3.9-3.9 0-2.028 1.352-3.796 3.848-3.796 2.236 0 3.9 1.196 3.9 3.796 0 2.288-1.352 3.9-3.848 3.9Zm-25.845 28.081h2.86V2.118h-3.068v-.936h12.741v38.065h2.912v.936h-15.445v-.936Zm-3.274-23.816c-1.56 0-2.912-.936-3.016-2.705l1.456-.884c.156-.832-.156-1.612-1.248-1.612-.676 0-2.236.208-2.236 3.432 0 .833.104 1.873.364 3.121 2.028 1.352 3.952 3.172 3.952 6.604 0 5.928-4.264 8.892-10.609 8.892-1.508 0-3.12-.208-4.212-.416-1.82 1.144-2.288 1.716-2.288 2.184 0 .468.572.728 3.328.728h5.304c5.877 0 11.805 1.404 11.805 8.477 0 5.772-4.16 9.932-14.665 9.932-9.048 0-12.844-2.184-12.844-5.564 0-2.6 2.184-3.64 4.004-4.16l3.12 1.404c-.312 1.144-.416 2.028-.416 2.86 0 2.184 1.092 4.472 6.656 4.472 5.513 0 8.425-2.236 8.425-5.512 0-2.496-1.144-3.484-6.605-3.484h-5.044c-6.188 0-7.852-2.548-7.852-4.837 0-2.964 1.872-4.42 5.928-6.864-4.056-1.144-6.032-3.588-6.032-7.904 0-4.888 3.38-8.684 11.232-8.684 2.548 0 4.056.364 5.773 1.3-.208-.936-.312-1.768-.312-2.549 0-4.264 2.964-5.512 5.096-5.512 2.444 0 4.212 1.352 4.212 3.848 0 2.393-1.56 3.433-3.276 3.433Zm-9.309 7.02c0-5.824-.832-6.604-2.236-6.604-1.456 0-2.496.936-2.496 6.604v2.808c0 4.888.884 5.98 2.444 5.98 1.404 0 2.288-.832 2.288-6.24v-2.548Zm-39.415 16.796h2.132v-16.9c0-4.42-.624-4.94-1.924-4.94-2.184 0-4.212 3.276-4.212 7.488v14.352h2.236v.936H197.42v-.936h2.86V2.118h-2.86v-.936h12.533v19.033c.884-2.6 2.6-5.304 7.748-5.304 4.836 0 8.06 2.392 8.06 8.684v15.652h2.913v.936h-14.717v-.936Zm-25.584-.312c4.733 0 6.761-4.004 7.333-6.812l.936.104c-.676 3.224-2.392 8.477-11.077 8.477-8.008 0-12.48-4.473-12.48-12.585 0-8.736 5.304-13.208 13.884-13.208 6.345 0 9.517 2.704 9.517 6.604 0 3.224-1.716 4.888-4.316 4.888-2.705 0-4.629-1.404-4.629-4.316 0-.468.052-1.144.26-1.872h1.716c.26-.728.364-1.352.364-1.872 0-1.768-1.04-2.496-2.496-2.496-3.016 0-4.264 3.016-4.264 10.764v2.704c0 6.656 1.196 9.62 5.252 9.62Zm-32.031.312h2.86v-22.88h-3.068v-.936h12.74v23.816h2.912v.936h-15.444v-.936Zm7.748-27.405c-4.212 0-5.2-2.652-5.2-4.836 0-2.548 1.404-4.836 5.304-4.836 3.224 0 5.148 1.612 5.148 4.784 0 2.756-1.508 4.888-5.252 4.888Zm-21.216 24.701c-1.092 2.6-3.12 4.161-7.176 4.161-5.772 0-9.412-4.109-9.412-12.845 0-8.788 3.64-12.948 10.296-12.948 3.224 0 5.096.936 6.032 2.548V2.118h-3.172v-.936h13.001v38.065h2.548v.936h-11.545l-.572-3.64Zm-.104-14.768c0-2.808-1.092-5.356-3.38-5.356-2.548 0-3.068 3.068-3.068 10.296v2.704c0 7.332.624 9.048 2.86 9.048 1.508 0 3.588-1.456 3.588-5.356V21.775Zm-41.859 17.472h2.132v-16.9c0-4.42-.624-4.94-1.924-4.94-2.184 0-4.212 3.276-4.212 7.488v14.352h2.236v.936H84.374v-.936h2.86V2.118h-2.86v-.936h12.533v19.033c.884-2.6 2.6-5.304 7.748-5.304 4.836 0 8.06 2.392 8.06 8.684v15.652h2.912v.936h-14.716v-.936Zm-25.584-.312c4.732 0 6.76-4.004 7.332-6.812l.937.104c-.677 3.224-2.393 8.477-11.077 8.477-8.008 0-12.48-4.473-12.48-12.585 0-8.736 5.304-13.208 13.884-13.208 6.344 0 9.516 2.704 9.516 6.604 0 3.224-1.716 4.888-4.316 4.888-2.704 0-4.628-1.404-4.628-4.316 0-.468.052-1.144.26-1.872h1.716c.26-.728.364-1.352.364-1.872 0-1.768-1.04-2.496-2.496-2.496-3.016 0-4.264 3.016-4.264 10.764v2.704c0 6.656 1.196 9.62 5.252 9.62Zm-22.723 1.769c-4.213 0-6.553-1.301-7.177-3.849-.832 2.496-2.34 3.849-5.98 3.849-3.64 0-7.696-1.093-7.696-6.293 0-5.252 4.524-6.448 11.96-6.448h1.508v-4.004c0-6.604-.572-8.32-2.652-8.32-.936 0-2.444.416-2.444 2.08 0 .416.104.936.312 1.508h1.3c.26.676.416 1.352.416 2.34 0 2.444-1.976 4.056-4.576 4.056-3.224 0-4.472-1.768-4.472-4.316 0-4.368 3.796-6.396 10.868-6.396 8.165 0 10.921 2.288 10.921 9.828v10.556c0 2.132.624 2.704 1.508 2.704.936 0 1.82-.988 2.08-5.356l.78.052c-1.16 6.24-2.184 8.009-6.656 8.009Zm-7.385-11.909h-.364c-2.184 0-3.224 1.56-3.224 4.732v.832c0 3.744.364 4.264 1.352 4.264.988 0 2.236-1.664 2.236-4.992v-4.836ZM.811 40.183v-1.144h3.068V4.926H.811V3.782h18.721v1.144H14.02v34.113h1.872c6.448 0 9.308-4.68 12.376-11.024h1.092l-.988 12.168H.811Z" clip-rule="evenodd"/></svg>