<svg xmlns="http://www.w3.org/2000/svg" width="480" height="87" fill="none"><path fill="#fff" fill-rule="evenodd" d="M475.754 86.183V75.558c0-1.333-.268-2.328-.805-2.984-.536-.656-1.388-.984-2.555-.984-1.552 0-2.687.458-3.406 1.375-.719.916-1.078 2.453-1.078 4.609v8.609h-3.672V68.902h2.875l.516 2.266h.187c.521-.823 1.261-1.458 2.219-1.906.958-.448 2.021-.672 3.188-.672 4.145 0 6.218 2.109 6.218 6.328v11.265h-3.687Zm-25.844-3.945c.854.901 2.057 1.352 3.609 1.352 1.021 0 1.972-.096 2.852-.289.88-.193 1.825-.513 2.836-.961v2.984c-.896.427-1.802.729-2.719.906-.917.177-1.963.266-3.14.266-2.688 0-4.789-.784-6.305-2.352-1.516-1.567-2.274-3.726-2.274-6.476 0-2.823.704-5.042 2.11-6.656 1.406-1.615 3.338-2.422 5.797-2.422 2.281 0 4.083.693 5.406 2.078 1.323 1.385 1.984 3.292 1.984 5.719v1.984h-11.515c.052 1.677.505 2.966 1.359 3.867Zm6.547-6.523c-.021-1.427-.365-2.508-1.031-3.242-.667-.735-1.584-1.102-2.75-1.102-1.167 0-2.102.37-2.805 1.109-.703.74-1.123 1.818-1.258 3.235h7.844Zm-19.641.297c1.427.552 2.464 1.057 3.11 1.515.645.459 1.125.987 1.437 1.586.313.599.469 1.315.469 2.149 0 1.687-.615 2.982-1.844 3.882-1.229.902-2.99 1.352-5.281 1.352-2.302 0-4.151-.349-5.547-1.047v-3.172c2.031.938 3.922 1.406 5.672 1.406 2.26 0 3.391-.682 3.391-2.046 0-.438-.125-.802-.375-1.094-.25-.292-.662-.594-1.235-.906-.573-.313-1.37-.667-2.39-1.063-1.99-.771-3.336-1.541-4.039-2.312-.704-.771-1.055-1.771-1.055-3 0-1.479.596-2.628 1.789-3.446 1.193-.817 2.815-1.226 4.867-1.226 2.031 0 3.953.411 5.766 1.234l-1.188 2.766c-1.865-.771-3.432-1.157-4.703-1.157-1.937 0-2.906.553-2.906 1.657 0 .541.252 1 .758 1.375.505.375 1.606.89 3.304 1.547Zm-15.578 0c1.427.552 2.464 1.057 3.11 1.515.645.459 1.125.987 1.437 1.586.313.599.469 1.315.469 2.149 0 1.687-.615 2.982-1.844 3.882-1.229.902-2.99 1.352-5.281 1.352-2.302 0-4.151-.349-5.547-1.047v-3.172c2.031.938 3.922 1.406 5.672 1.406 2.26 0 3.39-.682 3.39-2.046 0-.438-.125-.802-.375-1.094-.25-.292-.661-.594-1.234-.906-.573-.313-1.37-.667-2.391-1.063-1.989-.771-3.335-1.541-4.039-2.312-.703-.771-1.054-1.771-1.054-3 0-1.479.596-2.628 1.789-3.446 1.192-.817 2.815-1.226 4.867-1.226 2.031 0 3.953.411 5.766 1.234l-1.188 2.766c-1.865-.771-3.432-1.157-4.703-1.157-1.938 0-2.906.553-2.906 1.657 0 .541.252 1 .758 1.375.505.375 1.606.89 3.304 1.547Zm-16.721-46.841v3.016h-1.3v-10.92c0-.624.156-1.04.572-1.456l3.225-3.276c2.028-2.029 2.652-3.433 2.652-6.293 0-3.276-1.508-5.044-4.681-5.044-3.328 0-4.316 2.236-4.316 3.9 0 .416.104.936.312 1.508h1.664c.26.676.416 1.352.416 2.34 0 2.445-1.976 4.057-4.576 4.057-3.224 0-4.628-2.289-4.628-4.837 0-4.212 3.796-7.956 11.856-7.956 7.489 0 11.857 2.912 11.857 8.632 0 4.109-2.496 6.917-5.2 9.361l-7.853 6.968Zm-3.904 45.747v11.265h-3.687V75.558c0-1.333-.269-2.328-.805-2.984-.537-.656-1.388-.984-2.555-.984-1.552 0-2.687.458-3.406 1.375-.719.916-1.078 2.453-1.078 4.609v8.609h-3.672V68.902h2.875l.516 2.266h.187c.521-.823 1.26-1.458 2.219-1.906.958-.448 2.021-.672 3.187-.672 4.146 0 6.219 2.109 6.219 6.328Zm-18.976-42.991h-1.144v-4.472c0-8.164-3.38-13.833-3.38-19.033 0-3.276 2.184-4.212 4.212-4.212 1.976 0 3.953.832 3.953 4.212 0 5.564-3.641 10.817-3.641 19.085v4.42Zm-.728 1.924c2.288 0 4.004 1.144 4.004 3.848 0 2.392-1.404 4.005-3.9 4.005-3.016 0-4.004-1.977-4.004-3.901 0-2.184 1.404-3.952 3.9-3.952Zm-.53 34.739c.739 0 1.349.052 1.828.156l-.359 3.422a6.944 6.944 0 0 0-1.625-.188c-1.469 0-2.659.48-3.571 1.438-.911.958-1.367 2.203-1.367 3.734v9.031h-3.672V68.902h2.875l.485 3.047h.187c.573-1.031 1.32-1.849 2.242-2.453.922-.604 1.914-.906 2.977-.906Zm-18.761-26.886c-2.496 0-3.692-.417-5.616-1.509-.832-.468-1.248-.624-1.612-.624-.676 0-1.248.52-1.612 2.133h-.624v-9.309h.624c1.612 5.096 4.108 8.164 8.372 8.164 3.068 0 4.784-1.092 4.784-3.432 0-5.928-13.208-3.172-13.208-13.676 0-7.488 9.308-9.829 9.308-15.861 0-3.588-2.6-5.46-6.604-5.46-5.564 0-6.188 3.744-6.188 7.644v31.409h-29.016v-.936h2.86v-22.88h-3.068v-.936h12.74v23.816h6.811V16.795c0-12.169 6.397-15.809 14.977-15.809 7.124 0 8.996 3.432 8.996 6.448 0 5.616-6.084 7.645-6.084 11.337 0 5.2 13 2.964 13 14.04 0 5.408-4.212 8.893-8.84 8.893Zm-33.644-28.862c-4.212 0-5.2-2.652-5.2-4.836 0-2.548 1.404-4.836 5.304-4.836 3.224 0 5.148 1.612 5.148 4.784 0 2.756-1.508 4.888-5.252 4.888ZM321.91 68.59c4.146 0 6.219 2.109 6.219 6.328v11.265h-3.688V75.558c0-1.333-.268-2.328-.804-2.984-.537-.656-1.389-.984-2.555-.984-1.552 0-2.688.458-3.406 1.375-.719.916-1.078 2.453-1.078 4.609v8.609h-3.672V68.902h2.875l.515 2.266h.188c.521-.823 1.26-1.458 2.219-1.906.958-.448 2.02-.672 3.187-.672Zm-18.219-40.823v2.028c0 6.136 1.092 10.296 6.136 10.296 3.848 0 6.448-2.444 7.592-6.448l.936.156c-1.196 4.472-3.9 7.905-11.284 7.905-9.256 0-13.417-5.305-13.417-12.845 0-8.996 6.137-12.948 13.365-12.948 8.164 0 11.648 4.108 11.336 11.856h-14.664Zm5.408-3.588c0-5.46-.416-7.28-2.548-7.28-1.82 0-2.808 1.768-2.808 7.28v2.548h5.356v-2.548Zm-25.376 17.525h-4.628l-7.696-23.505-6.761 23.505h-4.524L247.01 5.77h-2.444v-.988h16.9v.988h-3.64l8.477 24.909 4.316-14.976-3.12-9.933h-2.965v-.988h16.121v.988h-3.068l7.748 24.597 6.24-24.597h-5.252v-.988h10.401v.988h-3.432l-9.569 35.934Zm-38.688 44.479h-3.672V75.527c0-1.323-.252-2.31-.758-2.961-.505-.651-1.289-.976-2.351-.976-1.427 0-2.472.445-3.133 1.336-.662.89-.992 2.257-.992 4.101v9.156h-3.688V75.527c0-1.323-.25-2.31-.75-2.961-.5-.651-1.281-.976-2.343-.976-1.417 0-2.456.461-3.118 1.383-.661.921-.992 2.455-.992 4.601v8.609h-3.672V68.902h2.875l.516 2.266h.187c.479-.823 1.175-1.458 2.086-1.906.912-.448 1.914-.672 3.008-.672 2.656 0 4.417.906 5.281 2.718h.25c.511-.854 1.229-1.52 2.157-2 .927-.479 1.989-.718 3.187-.718 2.063 0 3.565.521 4.508 1.562.943 1.042 1.414 2.631 1.414 4.766v11.265Zm-25.012-45.936h2.132v-16.9c0-4.42-.624-4.94-1.924-4.94-2.184 0-4.212 3.276-4.212 7.488v14.352h2.236v.936h-14.769v-.936h2.86v-22.88h-2.86v-.936h12.533v4.784c.884-2.6 2.6-5.304 7.748-5.304 4.836 0 8.06 2.392 8.06 8.684v15.652h2.912v.936h-14.716v-.936Zm-12.394 31.436h-4.922v9.25c0 .886.221 1.54.664 1.961.443.422 1.023.633 1.742.633a8.91 8.91 0 0 0 2.688-.422v2.766c-.407.177-.93.325-1.571.445-.64.12-1.304.18-1.992.18-3.479 0-5.219-1.833-5.219-5.5v-9.313h-2.359v-1.625l2.531-1.343 1.25-3.657h2.266v3.844h4.922v2.781Zm-20.73-31.436h2.86v-22.88h-3.068v-.936h12.74v23.816h2.913v.936h-15.445v-.936Zm7.748-27.405c-4.212 0-5.2-2.652-5.2-4.836 0-2.548 1.404-4.836 5.304-4.836 3.224 0 5.148 1.612 5.148 4.784 0 2.756-1.508 4.888-5.252 4.888Zm-19.221 69.396c.854.901 2.057 1.352 3.609 1.352 1.021 0 1.971-.096 2.852-.289.88-.193 1.825-.513 2.836-.961v2.984c-.896.427-1.803.729-2.719.906-.917.177-1.964.266-3.141.266-2.687 0-4.789-.784-6.304-2.352-1.516-1.567-2.274-3.726-2.274-6.476 0-2.823.703-5.042 2.109-6.656 1.407-1.615 3.339-2.422 5.797-2.422 2.282 0 4.084.693 5.407 2.078 1.322 1.385 1.984 3.292 1.984 5.719v1.984h-11.516c.052 1.677.505 2.966 1.36 3.867Zm6.547-6.523c-.021-1.427-.365-2.508-1.032-3.242-.666-.735-1.583-1.102-2.75-1.102-1.166 0-2.101.37-2.804 1.109-.703.74-1.123 1.818-1.258 3.235h7.844Zm-18.941-35.468c5.929 0 8.893-2.964 10.765-9.724h.728l-.832 10.66h-21.841v-.78l12.532-23.036h-.572c-7.072 0-8.84 1.664-10.972 9.048h-.676l.676-9.984h21.841v.936l-12.325 22.88h.676Zm-15.809 35.311c0-1.333-.269-2.328-.805-2.984-.537-.656-1.388-.984-2.555-.984-1.542 0-2.674.461-3.398 1.383-.724.921-1.086 2.466-1.086 4.632v8.578h-3.672V61.871h3.672v6.172c0 .99-.063 2.047-.188 3.172h.235a5.098 5.098 0 0 1 2.086-1.938c.89-.458 1.929-.687 3.117-.687 4.187 0 6.281 2.109 6.281 6.328v11.265h-3.687V75.558Zm-12.114-35.311h2.132v-16.9c0-4.42-.624-4.94-1.924-4.94-2.184 0-4.212 3.276-4.212 7.488v14.352h2.236v.936h-14.769v-.936h2.86v-22.88h-2.86v-.936h12.533v4.784c.884-2.6 2.6-5.304 7.748-5.304 4.836 0 8.06 2.392 8.06 8.684v15.652h2.912v.936h-14.716v-.936Zm-23.816 1.457c-4.212 0-6.552-1.301-7.176-3.849-.832 2.496-2.34 3.849-5.98 3.849-3.641 0-7.697-1.093-7.697-6.293 0-5.252 4.524-6.448 11.961-6.448h1.508v-4.004c0-6.604-.572-8.32-2.652-8.32-.936 0-2.444.416-2.444 2.08 0 .416.104.936.312 1.508h1.3c.26.676.416 1.352.416 2.34 0 2.444-1.976 4.056-4.576 4.056-3.225 0-4.473-1.768-4.473-4.316 0-4.368 3.796-6.396 10.869-6.396 8.164 0 10.92 2.288 10.92 9.828v10.556c0 2.132.624 2.704 1.508 2.704.936 0 1.82-.988 2.08-5.356l.78.052c-.26 6.24-2.184 8.009-6.656 8.009Zm-7.384-11.909h-.364c-2.184 0-3.224 1.56-3.224 4.732v.832c0 3.744.364 4.264 1.352 4.264.988 0 2.236-1.664 2.236-4.992v-4.836ZM85.917 41.131h-.78c-.624-.884-1.196-1.3-2.652-1.3-2.08 0-5.98 1.873-10.504 1.873-11.025 0-17.785-5.825-17.785-18.253 0-12.585 7.28-19.241 17.941-19.241 5.408 0 8.216 1.612 10.036 1.612.832 0 1.04-.364 1.404-1.04h.572l.416 11.285h-.936C80.717 10.242 77.337 5.25 72.761 5.25c-5.148 0-7.956 4.784-7.956 15.549v4.108c0 10.556 2.756 15.756 7.54 15.756 3.64 0 3.952-1.456 3.952-4.108V26.467h-3.328v-1.144h14.976v1.144h-2.028v14.664ZM56.41 68.59c2.281 0 4.083.693 5.406 2.078 1.323 1.385 1.985 3.292 1.985 5.719v1.984H52.285c.052 1.677.505 2.966 1.359 3.867.854.901 2.058 1.352 3.61 1.352 1.021 0 1.971-.096 2.851-.289.881-.193 1.826-.513 2.836-.961v2.984a11.28 11.28 0 0 1-2.718.906c-.917.177-1.964.266-3.141.266-2.688 0-4.789-.784-6.305-2.352-1.515-1.567-2.273-3.726-2.273-6.476 0-2.823.703-5.042 2.109-6.656 1.406-1.615 3.339-2.422 5.797-2.422Zm-4.062 7.125h7.843c-.021-1.427-.364-2.508-1.031-3.242-.667-.735-1.583-1.102-2.75-1.102s-2.101.37-2.805 1.109c-.703.74-1.122 1.818-1.257 3.235Zm-11.61-.157c0-1.333-.268-2.328-.804-2.984-.537-.656-1.389-.984-2.555-.984-1.552 0-2.688.458-3.406 1.375-.719.916-1.079 2.453-1.079 4.609v8.609h-3.671V68.902h2.875l.515 2.266h.188c.52-.823 1.26-1.458 2.218-1.906.959-.448 2.021-.672 3.188-.672 4.146 0 6.219 2.109 6.219 6.328v11.265h-3.688V75.558ZM22.16 66.34c-.667 0-1.18-.18-1.539-.539-.359-.36-.539-.852-.539-1.477 0-.656.18-1.161.539-1.516.359-.354.872-.531 1.539-.531.646 0 1.149.177 1.508.531.359.355.539.86.539 1.516 0 .625-.18 1.117-.539 1.477-.359.359-.862.539-1.508.539ZM5.973 82.238c.854.901 2.057 1.352 3.609 1.352 1.021 0 1.971-.096 2.852-.289.88-.193 1.825-.513 2.835-.961v2.984a11.28 11.28 0 0 1-2.718.906c-.917.177-1.964.266-3.141.266-2.687 0-4.789-.784-6.305-2.352C1.59 82.577.832 80.418.832 77.668c0-2.823.703-5.042 2.109-6.656 1.407-1.615 3.339-2.422 5.797-2.422 2.281 0 4.083.693 5.406 2.078 1.323 1.385 1.985 3.292 1.985 5.719v1.984H4.613c.052 1.677.505 2.966 1.36 3.867Zm6.546-6.523c-.021-1.427-.364-2.508-1.031-3.242-.667-.735-1.583-1.102-2.75-1.102s-2.101.37-2.804 1.109c-.704.74-1.123 1.818-1.258 3.235h7.843Zm11.454 10.468h-3.672V68.902h3.672v17.281Zm56.437-13.5h10.531V63.34h3.75v22.843h-3.75V75.887H80.41v10.296h-3.734V63.34h3.734v9.343Zm27.109-4.093c2.5 0 4.479.804 5.938 2.414 1.458 1.609 2.187 3.779 2.187 6.508 0 2.823-.724 5.026-2.171 6.609-1.448 1.583-3.464 2.375-6.047 2.375-1.615 0-3.042-.365-4.282-1.094-1.239-.729-2.192-1.776-2.859-3.14-.667-1.365-1-2.948-1-4.75 0-2.802.719-4.99 2.156-6.563 1.438-1.573 3.464-2.359 6.078-2.359Zm-.031 14.906c2.917 0 4.375-1.995 4.375-5.984 0-3.948-1.469-5.922-4.406-5.922-1.542 0-2.659.51-3.352 1.531-.692 1.021-1.039 2.484-1.039 4.391 0 3.989 1.474 5.984 4.422 5.984Zm19.641-14.906c1.823 0 3.463.338 4.922 1.015l-1.11 2.953c-1.552-.604-2.833-.906-3.843-.906-2.99 0-4.485 1.985-4.485 5.953 0 1.938.373 3.394 1.117 4.368.745.974 1.836 1.46 3.274 1.46a9.394 9.394 0 0 0 4.64-1.218v3.203a7.264 7.264 0 0 1-2.101.828c-.745.166-1.649.25-2.711.25-2.615 0-4.602-.763-5.961-2.289-1.359-1.526-2.039-3.716-2.039-6.57 0-2.907.711-5.141 2.133-6.704 1.422-1.562 3.476-2.343 6.164-2.343Zm27.859 3.125v-2.813h12.328v2.563l-8.547 11.906h8.797v2.812h-13.109v-2.265l8.734-12.203h-8.203Zm36.625-9.438c.646 0 1.149.177 1.508.531.359.355.539.86.539 1.516 0 .625-.18 1.117-.539 1.477-.359.359-.862.539-1.508.539-.667 0-1.179-.18-1.539-.539-.359-.36-.539-.852-.539-1.477 0-.656.18-1.161.539-1.516.36-.354.872-.531 1.539-.531Zm1.813 23.906h-3.672V68.902h3.672v17.281Zm58.593-23.906c.646 0 1.149.177 1.508.531.36.355.539.86.539 1.516 0 .625-.179 1.117-.539 1.477-.359.359-.862.539-1.508.539-.666 0-1.179-.18-1.539-.539-.359-.36-.539-.852-.539-1.477 0-.656.18-1.161.539-1.516.36-.354.873-.531 1.539-.531Zm1.813 23.906h-3.672V68.902h3.672v17.281Zm7.016-21.125h2.265v3.844h4.922v2.781h-4.922v9.25c0 .886.221 1.54.664 1.961.443.422 1.024.633 1.742.633a8.91 8.91 0 0 0 2.688-.422v2.766c-.406.177-.93.325-1.57.445-.641.12-1.305.18-1.993.18-3.479 0-5.218-1.833-5.218-5.5v-9.313h-2.36v-1.625l2.532-1.343 1.25-3.657Zm23.25 7.625h10.531V63.34h3.75v22.843h-3.75V75.887h-10.531v10.296h-3.735V63.34h3.735v9.343Zm21.765-10.406c.646 0 1.149.177 1.508.531.359.355.539.86.539 1.516 0 .625-.18 1.117-.539 1.477-.359.359-.862.539-1.508.539-.667 0-1.179-.18-1.539-.539-.359-.36-.539-.852-.539-1.477 0-.656.18-1.161.539-1.516.36-.354.872-.531 1.539-.531Zm1.813 23.906h-3.672V68.902h3.672v17.281Zm31.453-17.593c2.271 0 4 .838 5.187 2.515h.188c-.177-1.239-.266-2.218-.266-2.937v-6.297h3.688v24.312h-2.875l-.641-2.265h-.172c-1.177 1.719-2.901 2.578-5.172 2.578-2.156 0-3.838-.781-5.047-2.344-1.208-1.562-1.812-3.755-1.812-6.578 0-2.833.612-5.039 1.836-6.617 1.224-1.578 2.919-2.367 5.086-2.367Zm-2.125 13.429c.677 1.006 1.692 1.508 3.047 1.508 1.51 0 2.609-.424 3.297-1.273.687-.849 1.041-2.227 1.062-4.133v-.516c0-2.177-.354-3.724-1.062-4.64-.709-.917-1.818-1.375-3.329-1.375-1.291 0-2.286.523-2.984 1.57-.698 1.047-1.047 2.539-1.047 4.477 0 1.916.339 3.377 1.016 4.382Zm23.047-13.429c2.281 0 4.083.693 5.406 2.078 1.323 1.385 1.984 3.292 1.984 5.719v1.984h-11.515c.052 1.677.505 2.966 1.359 3.867.854.901 2.057 1.352 3.609 1.352 1.021 0 1.972-.096 2.852-.289.88-.193 1.825-.513 2.836-.961v2.984c-.896.427-1.802.729-2.719.906-.917.177-1.963.266-3.14.266-2.688 0-4.789-.784-6.305-2.352-1.516-1.567-2.274-3.726-2.274-6.476 0-2.823.704-5.042 2.11-6.656 1.406-1.615 3.338-2.422 5.797-2.422Zm3.781 7.125c-.021-1.427-.365-2.508-1.031-3.242-.667-.735-1.584-1.102-2.75-1.102-1.167 0-2.102.37-2.805 1.109-.703.74-1.123 1.818-1.258 3.235h7.844Zm39.957-41.864c2.288 0 4.005 1.144 4.005 3.848 0 2.392-1.404 4.005-3.901 4.005-3.016 0-4.004-1.977-4.004-3.901 0-2.184 1.404-3.952 3.9-3.952Zm3.793 28.426c.646 0 1.148.177 1.508.531.359.355.539.86.539 1.516 0 .625-.18 1.117-.539 1.477-.36.359-.862.539-1.508.539-.667 0-1.18-.18-1.539-.539-.359-.36-.539-.852-.539-1.477 0-.656.18-1.161.539-1.516.359-.354.872-.531 1.539-.531Zm1.812 23.906h-3.671V68.902h3.671v17.281Z" clip-rule="evenodd"/></svg>